<?xml version="1.0" encoding="UTF-8" standalone="no"?>
<!DOCTYPE svg PUBLIC "-//W3C//DTD SVG 1.1//EN"
 "http://www.w3.org/Graphics/SVG/1.1/DTD/svg11.dtd">
<!-- Generated by graphviz version 2.38.0 (20140413.2041)
 -->
<!-- Title: finite_state_machine Pages: 1 -->
<svg width="1921pt" height="695pt"
 viewBox="0.00 0.00 1921.40 695.26" xmlns="http://www.w3.org/2000/svg" xmlns:xlink="http://www.w3.org/1999/xlink">
<g id="graph0" class="graph" transform="scale(1 1) rotate(0) translate(7.2 688.062)">
<title>finite_state_machine</title>
<polygon fill="white" stroke="none" points="-7.2,7.2 -7.2,-688.062 1914.2,-688.062 1914.2,7.2 -7.2,7.2"/>
<!-- Start -->
<g id="node1" class="node"><title>Start</title>
<ellipse fill="none" stroke="black" cx="33" cy="-620.862" rx="29" ry="29"/>
<ellipse fill="none" stroke="black" cx="33" cy="-620.862" rx="33" ry="33"/>
<text text-anchor="middle" x="33" y="-618.662" font-family="Verdana" font-size="9.00">Start</text>
</g>
<!-- Load\nGame -->
<g id="node9" class="node"><title>Load\nGame</title>
<ellipse fill="#b4d3ff" stroke="#054ed9" cx="200" cy="-620.862" rx="29" ry="29"/>
<text text-anchor="middle" x="200" y="-623.662" font-family="Verdana" font-size="9.00">Load</text>
<text text-anchor="middle" x="200" y="-613.662" font-family="Verdana" font-size="9.00">Game</text>
</g>
<!-- Start&#45;&gt;Load\nGame -->
<g id="edge1" class="edge"><title>Start&#45;&gt;Load\nGame</title>
<path fill="none" stroke="#036d0b" d="M66.2054,-620.862C93.3518,-620.862 132.247,-620.862 160.93,-620.862"/>
<polygon fill="#036d0b" stroke="#036d0b" points="160.995,-624.362 170.995,-620.862 160.995,-617.362 160.995,-624.362"/>
<text text-anchor="middle" x="118.5" y="-633.662" font-family="Verdana" font-size="9.00" fill="#036d0b">Operator Data</text>
<text text-anchor="middle" x="118.5" y="-623.662" font-family="Verdana" font-size="9.00" fill="#036d0b">(UserTokenID)</text>
</g>
<!-- Fatal\nError -->
<g id="node2" class="node"><title>Fatal\nError</title>
<ellipse fill="#ffb5b4" stroke="red" cx="1137" cy="-633.862" rx="29" ry="29"/>
<ellipse fill="none" stroke="red" cx="1137" cy="-633.862" rx="33" ry="33"/>
<text text-anchor="middle" x="1137" y="-636.662" font-family="Verdana" font-size="9.00">Fatal</text>
<text text-anchor="middle" x="1137" y="-626.662" font-family="Verdana" font-size="9.00">Error</text>
</g>
<!-- Return\nto\nLobby -->
<g id="node5" class="node"><title>Return\nto\nLobby</title>
<ellipse fill="none" stroke="black" cx="1240" cy="-593.862" rx="29" ry="29"/>
<ellipse fill="none" stroke="black" cx="1240" cy="-593.862" rx="33" ry="33"/>
<text text-anchor="middle" x="1240" y="-601.662" font-family="Verdana" font-size="9.00">Return</text>
<text text-anchor="middle" x="1240" y="-591.662" font-family="Verdana" font-size="9.00">to</text>
<text text-anchor="middle" x="1240" y="-581.662" font-family="Verdana" font-size="9.00">Lobby</text>
</g>
<!-- Fatal\nError&#45;&gt;Return\nto\nLobby -->
<g id="edge48" class="edge"><title>Fatal\nError&#45;&gt;Return\nto\nLobby</title>
<path fill="none" stroke="black" d="M1168.03,-621.969C1177.91,-618.055 1189.06,-613.642 1199.53,-609.493"/>
<polygon fill="black" stroke="black" points="1200.9,-612.715 1208.91,-605.778 1198.33,-606.206 1200.9,-612.715"/>
</g>
<!-- Begin\nActions -->
<g id="node3" class="node"><title>Begin\nActions</title>
<ellipse fill="#ffe785" stroke="#036d0b" cx="1137" cy="-423.862" rx="29" ry="29"/>
<ellipse fill="none" stroke="#036d0b" cx="1137" cy="-423.862" rx="33" ry="33"/>
<text text-anchor="middle" x="1137" y="-426.662" font-family="Verdana" font-size="9.00">Begin</text>
<text text-anchor="middle" x="1137" y="-416.662" font-family="Verdana" font-size="9.00">Actions</text>
</g>
<!-- Animate\nNext\nAction -->
<g id="node18" class="node"><title>Animate\nNext\nAction</title>
<ellipse fill="#ffe785" stroke="#036d0b" cx="1240" cy="-423.862" rx="29" ry="29"/>
<text text-anchor="middle" x="1240" y="-431.662" font-family="Verdana" font-size="9.00">Animate</text>
<text text-anchor="middle" x="1240" y="-421.662" font-family="Verdana" font-size="9.00">Next</text>
<text text-anchor="middle" x="1240" y="-411.662" font-family="Verdana" font-size="9.00">Action</text>
</g>
<!-- Begin\nActions&#45;&gt;Animate\nNext\nAction -->
<g id="edge24" class="edge"><title>Begin\nActions&#45;&gt;Animate\nNext\nAction</title>
<path fill="none" stroke="#a903a3" d="M1170.23,-423.862C1179.92,-423.862 1190.64,-423.862 1200.67,-423.862"/>
<polygon fill="#a903a3" stroke="#a903a3" points="1200.81,-427.362 1210.81,-423.862 1200.81,-420.362 1200.81,-427.362"/>
</g>
<!-- Finish\nActions -->
<g id="node4" class="node"><title>Finish\nActions</title>
<ellipse fill="#ffe785" stroke="#036d0b" cx="1779" cy="-423.862" rx="29" ry="29"/>
<ellipse fill="none" stroke="#036d0b" cx="1779" cy="-423.862" rx="33" ry="33"/>
<text text-anchor="middle" x="1779" y="-426.662" font-family="Verdana" font-size="9.00">Finish</text>
<text text-anchor="middle" x="1779" y="-416.662" font-family="Verdana" font-size="9.00">Actions</text>
</g>
<!-- Next\nAuto\nScratch -->
<g id="node23" class="node"><title>Next\nAuto\nScratch</title>
<ellipse fill="#f3b7ff" stroke="#8c05cc" cx="1878" cy="-100.862" rx="29" ry="29"/>
<text text-anchor="middle" x="1878" y="-108.662" font-family="Verdana" font-size="9.00">Next</text>
<text text-anchor="middle" x="1878" y="-98.662" font-family="Verdana" font-size="9.00">Auto</text>
<text text-anchor="middle" x="1878" y="-88.662" font-family="Verdana" font-size="9.00">Scratch</text>
</g>
<!-- Finish\nActions&#45;&gt;Next\nAuto\nScratch -->
<g id="edge45" class="edge"><title>Finish\nActions&#45;&gt;Next\nAuto\nScratch</title>
<path fill="none" stroke="#a903a3" d="M1789.48,-392.303C1807.49,-332.333 1846.57,-202.188 1865.82,-138.078"/>
<polygon fill="#a903a3" stroke="#a903a3" points="1869.21,-138.961 1868.74,-128.377 1862.51,-136.948 1869.21,-138.961"/>
</g>
<!-- Intro\nScene -->
<g id="node6" class="node"><title>Intro\nScene</title>
<ellipse fill="#c7ffc2" stroke="#036d0b" stroke-dasharray="1,5" cx="390" cy="-449.862" rx="29" ry="29"/>
<text text-anchor="middle" x="390" y="-452.662" font-family="Verdana" font-size="9.00">Intro</text>
<text text-anchor="middle" x="390" y="-442.662" font-family="Verdana" font-size="9.00">Scene</text>
</g>
<!-- Title\nScene -->
<g id="node7" class="node"><title>Title\nScene</title>
<ellipse fill="#c7ffc2" stroke="#036d0b" cx="390" cy="-310.862" rx="29" ry="29"/>
<text text-anchor="middle" x="390" y="-313.662" font-family="Verdana" font-size="9.00">Title</text>
<text text-anchor="middle" x="390" y="-303.662" font-family="Verdana" font-size="9.00">Scene</text>
</g>
<!-- Intro\nScene&#45;&gt;Title\nScene -->
<g id="edge8" class="edge"><title>Intro\nScene&#45;&gt;Title\nScene</title>
<path fill="none" stroke="#036d0b" d="M390,-420.761C390,-400.291 390,-372.657 390,-350.22"/>
<polygon fill="#036d0b" stroke="#036d0b" points="393.5,-350.001 390,-340.001 386.5,-350.001 393.5,-350.001"/>
<text text-anchor="middle" x="382" y="-378.162" font-family="Verdana" font-size="9.00" fill="#036d0b">[Skip Video]</text>
</g>
<!-- Board\nScene -->
<g id="node24" class="node"><title>Board\nScene</title>
<ellipse fill="none" stroke="black" cx="512" cy="-310.862" rx="29" ry="29"/>
<text text-anchor="middle" x="512" y="-313.662" font-family="Verdana" font-size="9.00">Board</text>
<text text-anchor="middle" x="512" y="-303.662" font-family="Verdana" font-size="9.00">Scene</text>
</g>
<!-- Title\nScene&#45;&gt;Board\nScene -->
<g id="edge9" class="edge"><title>Title\nScene&#45;&gt;Board\nScene</title>
<path fill="none" stroke="#036d0b" d="M419.135,-310.862C434.968,-310.862 454.972,-310.862 472.268,-310.862"/>
<polygon fill="#036d0b" stroke="#036d0b" points="472.626,-314.362 482.626,-310.862 472.626,-307.362 472.626,-314.362"/>
<text text-anchor="middle" x="451" y="-313.662" font-family="Verdana" font-size="9.00" fill="#036d0b">[Play]</text>
</g>
<!-- Load\nAssets -->
<g id="node8" class="node"><title>Load\nAssets</title>
<ellipse fill="#b4d3ff" stroke="#054ed9" cx="295" cy="-563.862" rx="29" ry="29"/>
<text text-anchor="middle" x="295" y="-566.662" font-family="Verdana" font-size="9.00">Load</text>
<text text-anchor="middle" x="295" y="-556.662" font-family="Verdana" font-size="9.00">Assets</text>
</g>
<!-- Load\nAssets&#45;&gt;Fatal\nError -->
<g id="edge7" class="edge"><title>Load\nAssets&#45;&gt;Fatal\nError</title>
<path fill="none" stroke="#ff0000" d="M317.759,-582.168C335.69,-595.365 362.407,-610.862 389,-610.862 389,-610.862 389,-610.862 970,-610.862 1012.85,-610.862 1061.33,-618.473 1094.79,-624.939"/>
<polygon fill="#ff0000" stroke="#ff0000" points="1094.17,-628.385 1104.66,-626.899 1095.54,-621.519 1094.17,-628.385"/>
<text text-anchor="middle" x="630" y="-613.662" font-family="Verdana" font-size="9.00" fill="#ff0000">Error</text>
</g>
<!-- Load\nAssets&#45;&gt;Intro\nScene -->
<g id="edge6" class="edge"><title>Load\nAssets&#45;&gt;Intro\nScene</title>
<path fill="none" stroke="black" d="M313.931,-541.882C328.249,-524.331 348.465,-499.55 364.312,-480.124"/>
<polygon fill="black" stroke="black" points="367.197,-482.125 370.806,-472.164 361.773,-477.7 367.197,-482.125"/>
</g>
<!-- Load\nAssets&#45;&gt;Load\nAssets -->
<g id="edge5" class="edge"><title>Load\nAssets&#45;&gt;Load\nAssets</title>
<path fill="none" stroke="black" d="M286.394,-591.848C286.112,-602.277 288.98,-610.862 295,-610.862 298.856,-610.862 301.419,-607.339 302.689,-602.064"/>
<polygon fill="black" stroke="black" points="306.198,-602.121 303.606,-591.848 299.226,-601.495 306.198,-602.121"/>
<text text-anchor="middle" x="295" y="-613.662" font-family="Verdana" font-size="9.00">Retry</text>
</g>
<!-- Load\nGame&#45;&gt;Fatal\nError -->
<g id="edge4" class="edge"><title>Load\nGame&#45;&gt;Fatal\nError</title>
<path fill="none" stroke="#ff0000" d="M226.439,-632.899C244.793,-640.488 270.394,-648.862 294,-648.862 294,-648.862 294,-648.862 970,-648.862 1012.3,-648.862 1060.42,-643.971 1093.92,-639.775"/>
<polygon fill="#ff0000" stroke="#ff0000" points="1094.78,-643.192 1104.25,-638.444 1093.89,-636.25 1094.78,-643.192"/>
<text text-anchor="middle" x="571" y="-651.662" font-family="Verdana" font-size="9.00" fill="#ff0000">Error</text>
</g>
<!-- Load\nGame&#45;&gt;Load\nAssets -->
<g id="edge2" class="edge"><title>Load\nGame&#45;&gt;Load\nAssets</title>
<path fill="none" stroke="black" d="M225.435,-605.886C236.328,-599.21 249.323,-591.244 261.057,-584.053"/>
<polygon fill="black" stroke="black" points="263.031,-586.948 269.729,-578.738 259.374,-580.98 263.031,-586.948"/>
</g>
<!-- Load\nGame&#45;&gt;Load\nGame -->
<g id="edge3" class="edge"><title>Load\nGame&#45;&gt;Load\nGame</title>
<path fill="none" stroke="black" d="M191.394,-648.848C191.112,-659.277 193.98,-667.862 200,-667.862 203.856,-667.862 206.419,-664.339 207.689,-659.064"/>
<polygon fill="black" stroke="black" points="211.198,-659.121 208.606,-648.848 204.226,-658.495 211.198,-659.121"/>
<text text-anchor="middle" x="200" y="-670.662" font-family="Verdana" font-size="9.00">Retry</text>
</g>
<!-- Get\nTicket\nAsync -->
<g id="node10" class="node"><title>Get\nTicket\nAsync</title>
<ellipse fill="#b4d3ff" stroke="#054ed9" cx="868" cy="-515.862" rx="29" ry="29"/>
<text text-anchor="middle" x="868" y="-523.662" font-family="Verdana" font-size="9.00">Get</text>
<text text-anchor="middle" x="868" y="-513.662" font-family="Verdana" font-size="9.00">Ticket</text>
<text text-anchor="middle" x="868" y="-503.662" font-family="Verdana" font-size="9.00">Async</text>
</g>
<!-- Get\nTicket\nAsync&#45;&gt;Fatal\nError -->
<g id="edge19" class="edge"><title>Get\nTicket\nAsync&#45;&gt;Fatal\nError</title>
<path fill="none" stroke="#ff0000" d="M897.104,-517.662C925.097,-520.23 968.853,-526.368 1004,-540.862 1041.65,-556.389 1079.08,-584.243 1104.41,-605.433"/>
<polygon fill="#ff0000" stroke="#ff0000" points="1102.31,-608.242 1112.2,-612.055 1106.85,-602.91 1102.31,-608.242"/>
<text text-anchor="middle" x="969" y="-543.662" font-family="Verdana" font-size="9.00" fill="#ff0000">Error</text>
</g>
<!-- Wait\nTicket -->
<g id="node11" class="node"><title>Wait\nTicket</title>
<ellipse fill="#b4d3ff" stroke="#054ed9" cx="969" cy="-423.862" rx="29" ry="29"/>
<text text-anchor="middle" x="969" y="-426.662" font-family="Verdana" font-size="9.00">Wait</text>
<text text-anchor="middle" x="969" y="-416.662" font-family="Verdana" font-size="9.00">Ticket</text>
</g>
<!-- Get\nTicket\nAsync&#45;&gt;Wait\nTicket -->
<g id="edge20" class="edge"><title>Get\nTicket\nAsync&#45;&gt;Wait\nTicket</title>
<path fill="none" stroke="black" d="M889.995,-496.351C904.433,-482.934 923.779,-464.956 939.593,-450.261"/>
<polygon fill="black" stroke="black" points="942.092,-452.716 947.035,-443.345 937.327,-447.588 942.092,-452.716"/>
</g>
<!-- Wait\nTicket&#45;&gt;Fatal\nError -->
<g id="edge22" class="edge"><title>Wait\nTicket&#45;&gt;Fatal\nError</title>
<path fill="none" stroke="#ff0000" d="M996.019,-435.71C1022.07,-448.772 1061.68,-472.084 1086,-502.862 1106.57,-528.888 1119.41,-564.324 1126.92,-591.778"/>
<polygon fill="#ff0000" stroke="#ff0000" points="1123.54,-592.703 1129.45,-601.499 1130.31,-590.94 1123.54,-592.703"/>
<text text-anchor="middle" x="1054" y="-505.662" font-family="Verdana" font-size="9.00" fill="#ff0000">Error</text>
</g>
<!-- Wait\nTicket&#45;&gt;Begin\nActions -->
<g id="edge23" class="edge"><title>Wait\nTicket&#45;&gt;Begin\nActions</title>
<path fill="none" stroke="black" d="M998.16,-423.862C1024.31,-423.862 1063.6,-423.862 1093.55,-423.862"/>
<polygon fill="black" stroke="black" points="1093.72,-427.362 1103.72,-423.862 1093.72,-420.362 1093.72,-427.362"/>
<text text-anchor="middle" x="1054" y="-436.662" font-family="Verdana" font-size="9.00">Ticket Actions</text>
<text text-anchor="middle" x="1054" y="-426.662" font-family="Verdana" font-size="9.00">Received</text>
</g>
<!-- Wait\nTicket&#45;&gt;Wait\nTicket -->
<g id="edge21" class="edge"><title>Wait\nTicket&#45;&gt;Wait\nTicket</title>
<path fill="none" stroke="black" d="M959.288,-451.38C958.856,-462.019 962.094,-470.862 969,-470.862 973.532,-470.862 976.484,-467.054 977.856,-461.428"/>
<polygon fill="black" stroke="black" points="981.351,-461.64 978.712,-451.38 974.376,-461.047 981.351,-461.64"/>
<text text-anchor="middle" x="969" y="-483.662" font-family="Verdana" font-size="9.00">Wait Server</text>
<text text-anchor="middle" x="969" y="-473.662" font-family="Verdana" font-size="9.00">Retry</text>
</g>
<!-- Wait\nfor\nBet -->
<g id="node12" class="node"><title>Wait\nfor\nBet</title>
<ellipse fill="#c7ffc2" stroke="#036d0b" cx="630" cy="-310.862" rx="29" ry="29"/>
<text text-anchor="middle" x="630" y="-318.662" font-family="Verdana" font-size="9.00">Wait</text>
<text text-anchor="middle" x="630" y="-308.662" font-family="Verdana" font-size="9.00">for</text>
<text text-anchor="middle" x="630" y="-298.662" font-family="Verdana" font-size="9.00">Bet</text>
</g>
<!-- Wait\nfor\nBet&#45;&gt;Return\nto\nLobby -->
<g id="edge18" class="edge"><title>Wait\nfor\nBet&#45;&gt;Return\nto\nLobby</title>
<path fill="none" stroke="#036d0b" d="M633.15,-340.11C637.722,-394.025 650.254,-506.031 677,-532.862 737.923,-593.979 780.704,-572.862 867,-572.862 867,-572.862 867,-572.862 1138,-572.862 1158.25,-572.862 1180.31,-576.958 1198.64,-581.532"/>
<polygon fill="#036d0b" stroke="#036d0b" points="1197.84,-584.941 1208.4,-584.1 1199.62,-578.171 1197.84,-584.941"/>
<text text-anchor="middle" x="969" y="-575.662" font-family="Verdana" font-size="9.00" fill="#036d0b">[Home Button]</text>
</g>
<!-- Wait\nfor\nBet&#45;&gt;Get\nTicket\nAsync -->
<g id="edge11" class="edge"><title>Wait\nfor\nBet&#45;&gt;Get\nTicket\nAsync</title>
<path fill="none" stroke="#036d0b" stroke-width="2" d="M632.071,-339.951C634.88,-373.402 644.537,-427.813 677,-459.862 717.807,-500.15 786.067,-511.713 828.702,-514.879"/>
<polygon fill="#036d0b" stroke="#036d0b" stroke-width="2" points="828.497,-518.373 838.696,-515.502 828.933,-511.386 828.497,-518.373"/>
<text text-anchor="start" x="700.5" y="-519.462" font-family="Verdana" font-weight="bold" font-size="13.00" fill="#036d0b">[Play Button]</text>
</g>
<!-- Display\nHelp -->
<g id="node13" class="node"><title>Display\nHelp</title>
<ellipse fill="#c7ffc2" stroke="#036d0b" cx="868" cy="-439.862" rx="29" ry="29"/>
<text text-anchor="middle" x="868" y="-442.662" font-family="Verdana" font-size="9.00">Display</text>
<text text-anchor="middle" x="868" y="-432.662" font-family="Verdana" font-size="9.00">Help</text>
</g>
<!-- Wait\nfor\nBet&#45;&gt;Display\nHelp -->
<g id="edge14" class="edge"><title>Wait\nfor\nBet&#45;&gt;Display\nHelp</title>
<path fill="none" stroke="#036d0b" d="M646.856,-346.129C654.327,-359.297 664.401,-373.347 677,-382.862 722.126,-416.944 787.534,-430.755 828.638,-436.278"/>
<polygon fill="#036d0b" stroke="#036d0b" points="649.897,-344.394 642.101,-337.22 643.722,-347.69 649.897,-344.394"/>
<polygon fill="#036d0b" stroke="#036d0b" points="828.435,-439.779 838.791,-437.539 829.299,-432.833 828.435,-439.779"/>
<text text-anchor="middle" x="749" y="-448.662" font-family="Verdana" font-size="9.00" fill="#036d0b">[Help Button]</text>
<text text-anchor="middle" x="749" y="-438.662" font-family="Verdana" font-size="9.00" fill="#036d0b">[Close Button]</text>
</g>
<!-- Display\nLines -->
<g id="node14" class="node"><title>Display\nLines</title>
<ellipse fill="#c7ffc2" stroke="#036d0b" stroke-dasharray="1,5" cx="868" cy="-363.862" rx="29" ry="29"/>
<text text-anchor="middle" x="868" y="-366.662" font-family="Verdana" font-size="9.00">Display</text>
<text text-anchor="middle" x="868" y="-356.662" font-family="Verdana" font-size="9.00">Lines</text>
</g>
<!-- Wait\nfor\nBet&#45;&gt;Display\nLines -->
<g id="edge15" class="edge"><title>Wait\nfor\nBet&#45;&gt;Display\nLines</title>
<path fill="none" stroke="#036d0b" d="M665.95,-327.073C669.637,-328.476 673.366,-329.773 677,-330.862 728.303,-346.23 789.675,-355.277 828.503,-359.902"/>
<polygon fill="#036d0b" stroke="#036d0b" points="666.966,-323.708 656.384,-323.181 664.328,-330.191 666.966,-323.708"/>
<polygon fill="#036d0b" stroke="#036d0b" points="828.495,-363.424 838.829,-361.091 829.295,-356.47 828.495,-363.424"/>
<text text-anchor="middle" x="749" y="-371.662" font-family="Verdana" font-size="9.00" fill="#036d0b">[Line Indicator Button]</text>
<text text-anchor="middle" x="749" y="-361.662" font-family="Verdana" font-size="9.00" fill="#036d0b">(Timeout)</text>
</g>
<!-- Display\nMenu -->
<g id="node15" class="node"><title>Display\nMenu</title>
<ellipse fill="#c7ffc2" stroke="#036d0b" cx="868" cy="-287.862" rx="29" ry="29"/>
<text text-anchor="middle" x="868" y="-290.662" font-family="Verdana" font-size="9.00">Display</text>
<text text-anchor="middle" x="868" y="-280.662" font-family="Verdana" font-size="9.00">Menu</text>
</g>
<!-- Wait\nfor\nBet&#45;&gt;Display\nMenu -->
<g id="edge13" class="edge"><title>Wait\nfor\nBet&#45;&gt;Display\nMenu</title>
<path fill="none" stroke="#036d0b" d="M669.199,-307.139C713.22,-302.849 785.124,-295.841 829.043,-291.561"/>
<polygon fill="#036d0b" stroke="#036d0b" points="668.612,-303.68 658.999,-308.133 669.291,-310.647 668.612,-303.68"/>
<polygon fill="#036d0b" stroke="#036d0b" points="829.424,-295.041 839.037,-290.587 828.745,-288.074 829.424,-295.041"/>
<text text-anchor="middle" x="749" y="-319.662" font-family="Verdana" font-size="9.00" fill="#036d0b">[Menu Button]</text>
<text text-anchor="middle" x="749" y="-309.662" font-family="Verdana" font-size="9.00" fill="#036d0b">(Timeout)</text>
</g>
<!-- Display\nSymbol -->
<g id="node16" class="node"><title>Display\nSymbol</title>
<ellipse fill="#c7ffc2" stroke="#036d0b" stroke-dasharray="1,5" cx="868" cy="-211.862" rx="29" ry="29"/>
<text text-anchor="middle" x="868" y="-214.662" font-family="Verdana" font-size="9.00">Display</text>
<text text-anchor="middle" x="868" y="-204.662" font-family="Verdana" font-size="9.00">Symbol</text>
</g>
<!-- Wait\nfor\nBet&#45;&gt;Display\nSymbol -->
<g id="edge16" class="edge"><title>Wait\nfor\nBet&#45;&gt;Display\nSymbol</title>
<path fill="none" stroke="#036d0b" d="M649.668,-276.55C656.907,-266.177 666.104,-255.73 677,-248.862 723.552,-219.52 788.287,-212.576 828.897,-211.382"/>
<polygon fill="#036d0b" stroke="#036d0b" points="646.582,-274.876 644.054,-285.165 652.446,-278.697 646.582,-274.876"/>
<polygon fill="#036d0b" stroke="#036d0b" points="828.995,-214.881 838.926,-211.19 828.861,-207.882 828.995,-214.881"/>
<text text-anchor="middle" x="749" y="-261.662" font-family="Verdana" font-size="9.00" fill="#036d0b">[Symbol Button]</text>
<text text-anchor="middle" x="749" y="-251.662" font-family="Verdana" font-size="9.00" fill="#036d0b">(Timeout)</text>
</g>
<!-- Auto\nScratch\nToggle -->
<g id="node22" class="node"><title>Auto\nScratch\nToggle</title>
<ellipse fill="#f3b7ff" stroke="#8c05cc" cx="868" cy="-135.862" rx="29" ry="29"/>
<text text-anchor="middle" x="868" y="-143.662" font-family="Verdana" font-size="9.00">Auto</text>
<text text-anchor="middle" x="868" y="-133.662" font-family="Verdana" font-size="9.00">Scratch</text>
<text text-anchor="middle" x="868" y="-123.662" font-family="Verdana" font-size="9.00">Toggle</text>
</g>
<!-- Wait\nfor\nBet&#45;&gt;Auto\nScratch\nToggle -->
<g id="edge12" class="edge"><title>Wait\nfor\nBet&#45;&gt;Auto\nScratch\nToggle</title>
<path fill="none" stroke="#036d0b" d="M632.387,-271.494C635.793,-237.994 646.227,-191.233 677,-164.862 719.161,-128.732 786.787,-127.318 828.961,-130.755"/>
<polygon fill="#036d0b" stroke="#036d0b" points="628.865,-271.603 631.511,-281.863 635.84,-272.193 628.865,-271.603"/>
<polygon fill="#036d0b" stroke="#036d0b" points="828.818,-134.257 839.103,-131.715 829.478,-127.288 828.818,-134.257"/>
<text text-anchor="middle" x="749" y="-168.462" font-family="Verdana" font-size="13.00" fill="#036d0b">[Auto Scratch Switch]</text>
</g>
<!-- Toggle\nAudio -->
<g id="node25" class="node"><title>Toggle\nAudio</title>
<ellipse fill="none" stroke="black" cx="868" cy="-59.862" rx="29" ry="29"/>
<text text-anchor="middle" x="868" y="-62.662" font-family="Verdana" font-size="9.00">Toggle</text>
<text text-anchor="middle" x="868" y="-52.662" font-family="Verdana" font-size="9.00">Audio</text>
</g>
<!-- Wait\nfor\nBet&#45;&gt;Toggle\nAudio -->
<g id="edge17" class="edge"><title>Wait\nfor\nBet&#45;&gt;Toggle\nAudio</title>
<path fill="none" stroke="#036d0b" d="M633.657,-271.7C638.418,-214.105 650.493,-110.683 677,-85.862 717.749,-47.705 786.628,-48.3782 829.307,-53.3848"/>
<polygon fill="#036d0b" stroke="#036d0b" points="630.151,-271.647 632.852,-281.892 637.129,-272.199 630.151,-271.647"/>
<polygon fill="#036d0b" stroke="#036d0b" points="828.929,-56.8652 839.299,-54.6923 829.838,-49.9244 828.929,-56.8652"/>
<text text-anchor="middle" x="749" y="-98.662" font-family="Verdana" font-size="9.00" fill="#036d0b">[Audio Toggle Button]</text>
<text text-anchor="middle" x="749" y="-88.662" font-family="Verdana" font-size="9.00" fill="#036d0b">(Timeout)</text>
</g>
<!-- Wait\nfor\nScratch -->
<g id="node17" class="node"><title>Wait\nfor\nScratch</title>
<ellipse fill="#c7ffc2" stroke="#036d0b" cx="1457.5" cy="-651.862" rx="29" ry="29"/>
<text text-anchor="middle" x="1457.5" y="-659.662" font-family="Verdana" font-size="9.00">Wait</text>
<text text-anchor="middle" x="1457.5" y="-649.662" font-family="Verdana" font-size="9.00">for</text>
<text text-anchor="middle" x="1457.5" y="-639.662" font-family="Verdana" font-size="9.00">Scratch</text>
</g>
<!-- Reveal\nOne -->
<g id="node20" class="node"><title>Reveal\nOne</title>
<ellipse fill="#ffe785" stroke="#036d0b" cx="1585" cy="-641.862" rx="29" ry="29"/>
<text text-anchor="middle" x="1585" y="-644.662" font-family="Verdana" font-size="9.00">Reveal</text>
<text text-anchor="middle" x="1585" y="-634.662" font-family="Verdana" font-size="9.00">One</text>
</g>
<!-- Wait\nfor\nScratch&#45;&gt;Reveal\nOne -->
<g id="edge35" class="edge"><title>Wait\nfor\nScratch&#45;&gt;Reveal\nOne</title>
<path fill="none" stroke="black" d="M1486.66,-649.618C1504.1,-648.228 1526.73,-646.426 1545.77,-644.908"/>
<polygon fill="black" stroke="black" points="1546.24,-648.382 1555.93,-644.099 1545.68,-641.404 1546.24,-648.382"/>
</g>
<!-- Reveal\nAll -->
<g id="node21" class="node"><title>Reveal\nAll</title>
<ellipse fill="#ffe785" stroke="#036d0b" stroke-dasharray="1,5" cx="1585" cy="-564.862" rx="29" ry="29"/>
<text text-anchor="middle" x="1585" y="-567.662" font-family="Verdana" font-size="9.00">Reveal</text>
<text text-anchor="middle" x="1585" y="-557.662" font-family="Verdana" font-size="9.00">All</text>
</g>
<!-- Wait\nfor\nScratch&#45;&gt;Reveal\nAll -->
<g id="edge36" class="edge"><title>Wait\nfor\nScratch&#45;&gt;Reveal\nAll</title>
<path fill="none" stroke="black" d="M1482.65,-637.344C1493.85,-630.446 1507.25,-621.956 1519,-613.862 1530.59,-605.874 1543,-596.684 1553.84,-588.437"/>
<polygon fill="black" stroke="black" points="1555.98,-591.21 1561.78,-582.349 1551.72,-585.654 1555.98,-591.21"/>
</g>
<!-- Animate\nNext\nAction&#45;&gt;Wait\nfor\nScratch -->
<g id="edge28" class="edge"><title>Animate\nNext\nAction&#45;&gt;Wait\nfor\nScratch</title>
<path fill="none" stroke="black" d="M1252.87,-449.962C1261.98,-468.65 1275.58,-493.928 1291,-513.862 1330.43,-564.834 1345.13,-574.303 1396,-613.862 1404.45,-620.429 1414.07,-626.884 1423.11,-632.558"/>
<polygon fill="black" stroke="black" points="1421.55,-635.704 1431.91,-637.946 1425.21,-629.736 1421.55,-635.704"/>
</g>
<!-- Animate\nNext\nAction&#45;&gt;Animate\nNext\nAction -->
<g id="edge25" class="edge"><title>Animate\nNext\nAction&#45;&gt;Animate\nNext\nAction</title>
<path fill="none" stroke="#a903a3" d="M1230.66,-451.38C1230.25,-462.019 1233.36,-470.862 1240,-470.862 1244.36,-470.862 1247.2,-467.054 1248.52,-461.428"/>
<polygon fill="#a903a3" stroke="#a903a3" points="1252.01,-461.632 1249.34,-451.38 1245.03,-461.061 1252.01,-461.632"/>
<text text-anchor="middle" x="1240" y="-473.662" font-family="Verdana" font-size="9.00">Repeat</text>
</g>
<!-- Big\nWin -->
<g id="node26" class="node"><title>Big\nWin</title>
<ellipse fill="none" stroke="black" cx="1457.5" cy="-575.862" rx="29" ry="29"/>
<text text-anchor="middle" x="1457.5" y="-578.662" font-family="Verdana" font-size="9.00">Big</text>
<text text-anchor="middle" x="1457.5" y="-568.662" font-family="Verdana" font-size="9.00">Win</text>
</g>
<!-- Animate\nNext\nAction&#45;&gt;Big\nWin -->
<g id="edge29" class="edge"><title>Animate\nNext\nAction&#45;&gt;Big\nWin</title>
<path fill="none" stroke="black" d="M1261.15,-444.434C1269.97,-453.005 1280.66,-462.815 1291,-470.862 1334.27,-504.526 1388.62,-537.403 1422.97,-557.152"/>
<polygon fill="black" stroke="black" points="1421.26,-560.204 1431.68,-562.123 1424.73,-554.125 1421.26,-560.204"/>
</g>
<!-- Mega\nWin -->
<g id="node27" class="node"><title>Mega\nWin</title>
<ellipse fill="none" stroke="black" cx="1457.5" cy="-499.862" rx="29" ry="29"/>
<text text-anchor="middle" x="1457.5" y="-502.662" font-family="Verdana" font-size="9.00">Mega</text>
<text text-anchor="middle" x="1457.5" y="-492.662" font-family="Verdana" font-size="9.00">Win</text>
</g>
<!-- Animate\nNext\nAction&#45;&gt;Mega\nWin -->
<g id="edge30" class="edge"><title>Animate\nNext\nAction&#45;&gt;Mega\nWin</title>
<path fill="none" stroke="black" d="M1267.86,-433.334C1306.38,-446.919 1377.4,-471.967 1420.46,-487.151"/>
<polygon fill="black" stroke="black" points="1419.39,-490.484 1429.98,-490.51 1421.71,-483.883 1419.39,-490.484"/>
</g>
<!-- Win -->
<g id="node28" class="node"><title>Win</title>
<ellipse fill="none" stroke="black" cx="1457.5" cy="-423.862" rx="29" ry="29"/>
<text text-anchor="middle" x="1457.5" y="-421.662" font-family="Verdana" font-size="9.00">Win</text>
</g>
<!-- Animate\nNext\nAction&#45;&gt;Win -->
<g id="edge31" class="edge"><title>Animate\nNext\nAction&#45;&gt;Win</title>
<path fill="none" stroke="black" d="M1269.17,-423.862C1307.33,-423.862 1375.56,-423.862 1418.3,-423.862"/>
<polygon fill="black" stroke="black" points="1418.32,-427.362 1428.32,-423.862 1418.32,-420.362 1418.32,-427.362"/>
</g>
<!-- Free\nScratch\nAward -->
<g id="node29" class="node"><title>Free\nScratch\nAward</title>
<ellipse fill="none" stroke="black" cx="1457.5" cy="-347.862" rx="29" ry="29"/>
<text text-anchor="middle" x="1457.5" y="-355.662" font-family="Verdana" font-size="9.00">Free</text>
<text text-anchor="middle" x="1457.5" y="-345.662" font-family="Verdana" font-size="9.00">Scratch</text>
<text text-anchor="middle" x="1457.5" y="-335.662" font-family="Verdana" font-size="9.00">Award</text>
</g>
<!-- Animate\nNext\nAction&#45;&gt;Free\nScratch\nAward -->
<g id="edge33" class="edge"><title>Animate\nNext\nAction&#45;&gt;Free\nScratch\nAward</title>
<path fill="none" stroke="black" d="M1267.86,-414.39C1306.38,-400.805 1377.4,-375.757 1420.46,-360.573"/>
<polygon fill="black" stroke="black" points="1421.71,-363.841 1429.98,-357.214 1419.39,-357.24 1421.71,-363.841"/>
</g>
<!-- Free\nScratch\nWin -->
<g id="node30" class="node"><title>Free\nScratch\nWin</title>
<ellipse fill="none" stroke="black" cx="1457.5" cy="-271.862" rx="29" ry="29"/>
<text text-anchor="middle" x="1457.5" y="-279.662" font-family="Verdana" font-size="9.00">Free</text>
<text text-anchor="middle" x="1457.5" y="-269.662" font-family="Verdana" font-size="9.00">Scratch</text>
<text text-anchor="middle" x="1457.5" y="-259.662" font-family="Verdana" font-size="9.00">Win</text>
</g>
<!-- Animate\nNext\nAction&#45;&gt;Free\nScratch\nWin -->
<g id="edge34" class="edge"><title>Animate\nNext\nAction&#45;&gt;Free\nScratch\nWin</title>
<path fill="none" stroke="black" d="M1259.87,-402.314C1268.81,-392.733 1279.93,-381.658 1291,-372.862 1333.27,-339.262 1387.55,-308.112 1422.19,-289.535"/>
<polygon fill="black" stroke="black" points="1424.23,-292.419 1431.42,-284.638 1420.94,-286.236 1424.23,-292.419"/>
</g>
<!-- Lose -->
<g id="node31" class="node"><title>Lose</title>
<ellipse fill="none" stroke="black" cx="1457.5" cy="-195.862" rx="29" ry="29"/>
<text text-anchor="middle" x="1457.5" y="-193.662" font-family="Verdana" font-size="9.00">Lose</text>
</g>
<!-- Animate\nNext\nAction&#45;&gt;Lose -->
<g id="edge32" class="edge"><title>Animate\nNext\nAction&#45;&gt;Lose</title>
<path fill="none" stroke="black" d="M1249.12,-396.212C1257.07,-372.38 1270.94,-337.953 1291,-312.862 1327.16,-267.639 1385.22,-232.212 1422.08,-212.672"/>
<polygon fill="black" stroke="black" points="1423.71,-215.769 1430.97,-208.051 1420.48,-209.558 1423.71,-215.769"/>
</g>
<!-- Update\nBalance -->
<g id="node19" class="node"><title>Update\nBalance</title>
<ellipse fill="#ffe785" stroke="#036d0b" cx="1680" cy="-423.862" rx="29" ry="29"/>
<text text-anchor="middle" x="1680" y="-426.662" font-family="Verdana" font-size="9.00">Update</text>
<text text-anchor="middle" x="1680" y="-416.662" font-family="Verdana" font-size="9.00">Balance</text>
</g>
<!-- Update\nBalance&#45;&gt;Finish\nActions -->
<g id="edge27" class="edge"><title>Update\nBalance&#45;&gt;Finish\nActions</title>
<path fill="none" stroke="#a903a3" d="M1709.06,-423.862C1717.43,-423.862 1726.8,-423.862 1735.87,-423.862"/>
<polygon fill="#a903a3" stroke="#a903a3" points="1735.91,-427.362 1745.91,-423.862 1735.91,-420.362 1735.91,-427.362"/>
</g>
<!-- Update\nBalance&#45;&gt;Animate\nNext\nAction -->
<g id="edge26" class="edge"><title>Update\nBalance&#45;&gt;Animate\nNext\nAction</title>
<path fill="none" stroke="#a903a3" stroke-dasharray="1,5" d="M1671.04,-395.97C1660.82,-362.704 1641.12,-306.162 1614,-262.862 1580.59,-209.528 1576.52,-183.39 1519,-157.862 1469.03,-135.687 1447.95,-140.854 1396,-157.862 1341,-175.867 1323.6,-187.046 1291,-234.862 1259.96,-280.397 1248.18,-344.2 1243.72,-384.78"/>
<polygon fill="#a903a3" stroke="#a903a3" points="1240.22,-384.523 1242.71,-394.823 1247.19,-385.222 1240.22,-384.523"/>
</g>
<!-- Reveal\nOne&#45;&gt;Update\nBalance -->
<g id="edge37" class="edge"><title>Reveal\nOne&#45;&gt;Update\nBalance</title>
<path fill="none" stroke="black" d="M1603.68,-619.443C1607.38,-614.178 1611.04,-608.465 1614,-602.862 1638.47,-556.488 1657.57,-498.876 1668.56,-461.746"/>
<polygon fill="black" stroke="black" points="1672,-462.423 1671.44,-451.843 1665.28,-460.467 1672,-462.423"/>
</g>
<!-- Reveal\nAll&#45;&gt;Update\nBalance -->
<g id="edge38" class="edge"><title>Reveal\nAll&#45;&gt;Update\nBalance</title>
<path fill="none" stroke="black" d="M1608.3,-547.102C1616.76,-539.62 1626.01,-530.431 1633,-520.862 1646.48,-502.403 1657.6,-479.371 1665.53,-460.383"/>
<polygon fill="black" stroke="black" points="1668.87,-461.451 1669.38,-450.868 1662.38,-458.825 1668.87,-461.451"/>
</g>
<!-- Next\nAuto\nScratch&#45;&gt;Get\nTicket\nAsync -->
<g id="edge46" class="edge"><title>Next\nAuto\nScratch&#45;&gt;Get\nTicket\nAsync</title>
<path fill="none" stroke="#a903a3" d="M1848.98,-100.862C1829.61,-100.862 1803.24,-100.862 1780,-100.862 968,-100.862 968,-100.862 968,-100.862 882.749,-100.862 931.028,-399.697 897,-477.862 895.903,-480.381 894.613,-482.893 893.2,-485.355"/>
<polygon fill="#a903a3" stroke="#a903a3" points="890.119,-483.676 887.664,-493.983 896.01,-487.457 890.119,-483.676"/>
<text text-anchor="middle" x="1457.5" y="-103.662" font-family="Verdana" font-size="9.00">Remaining Auto Scratches</text>
</g>
<!-- Next\nAuto\nScratch&#45;&gt;Wait\nfor\nBet -->
<g id="edge47" class="edge"><title>Next\nAuto\nScratch&#45;&gt;Wait\nfor\nBet</title>
<path fill="none" stroke="#a903a3" d="M1865.16,-74.8571C1849.94,-45.8241 1820.58,-2.86199 1780,-2.86199 867,-2.86199 867,-2.86199 867,-2.86199 780.219,-2.86199 736.514,15.2964 677,-47.862 647.189,-79.4988 636.368,-205.951 632.713,-271.303"/>
<polygon fill="#a903a3" stroke="#a903a3" points="629.201,-271.451 632.167,-281.622 636.191,-271.821 629.201,-271.451"/>
<text text-anchor="middle" x="1334.5" y="-5.66199" font-family="Verdana" font-size="9.00">No Auto Scratches</text>
</g>
<!-- Board\nScene&#45;&gt;Wait\nfor\nBet -->
<g id="edge10" class="edge"><title>Board\nScene&#45;&gt;Wait\nfor\nBet</title>
<path fill="none" stroke="black" d="M541.08,-310.862C555.931,-310.862 574.386,-310.862 590.548,-310.862"/>
<polygon fill="black" stroke="black" points="590.776,-314.362 600.776,-310.862 590.776,-307.362 590.776,-314.362"/>
</g>
<!-- Big\nWin&#45;&gt;Update\nBalance -->
<g id="edge39" class="edge"><title>Big\nWin&#45;&gt;Update\nBalance</title>
<path fill="none" stroke="black" d="M1482.54,-561.173C1493.71,-554.24 1507.13,-545.769 1519,-537.862 1564.73,-507.403 1616.27,-470.133 1648.2,-446.687"/>
<polygon fill="black" stroke="black" points="1650.29,-449.494 1656.27,-440.747 1646.14,-443.856 1650.29,-449.494"/>
</g>
<!-- Mega\nWin&#45;&gt;Update\nBalance -->
<g id="edge40" class="edge"><title>Mega\nWin&#45;&gt;Update\nBalance</title>
<path fill="none" stroke="black" d="M1485.1,-490.695C1524.5,-477.114 1598.48,-451.615 1642.79,-436.342"/>
<polygon fill="black" stroke="black" points="1643.99,-439.629 1652.31,-433.062 1641.71,-433.012 1643.99,-439.629"/>
</g>
<!-- Win&#45;&gt;Update\nBalance -->
<g id="edge41" class="edge"><title>Win&#45;&gt;Update\nBalance</title>
<path fill="none" stroke="black" d="M1486.88,-423.862C1525.99,-423.862 1596.6,-423.862 1640.46,-423.862"/>
<polygon fill="black" stroke="black" points="1640.73,-427.362 1650.73,-423.862 1640.73,-420.362 1640.73,-427.362"/>
</g>
<!-- Free\nScratch\nAward&#45;&gt;Update\nBalance -->
<g id="edge43" class="edge"><title>Free\nScratch\nAward&#45;&gt;Update\nBalance</title>
<path fill="none" stroke="black" d="M1485.1,-357.029C1524.5,-370.61 1598.48,-396.109 1642.79,-411.382"/>
<polygon fill="black" stroke="black" points="1641.71,-414.712 1652.31,-414.662 1643.99,-408.094 1641.71,-414.712"/>
</g>
<!-- Free\nScratch\nWin&#45;&gt;Update\nBalance -->
<g id="edge44" class="edge"><title>Free\nScratch\nWin&#45;&gt;Update\nBalance</title>
<path fill="none" stroke="black" d="M1482.56,-286.525C1493.73,-293.452 1507.15,-301.927 1519,-309.862 1564.66,-340.431 1616.22,-377.673 1648.17,-401.082"/>
<polygon fill="black" stroke="black" points="1646.11,-403.916 1656.24,-407.012 1650.25,-398.273 1646.11,-403.916"/>
</g>
<!-- Lose&#45;&gt;Update\nBalance -->
<g id="edge42" class="edge"><title>Lose&#45;&gt;Update\nBalance</title>
<path fill="none" stroke="black" d="M1483.26,-209.575C1494.58,-216.303 1507.92,-224.883 1519,-233.862 1566.13,-272.047 1575.27,-285.173 1614,-331.862 1629.67,-350.748 1645.59,-373.22 1657.75,-391.228"/>
<polygon fill="black" stroke="black" points="1654.94,-393.31 1663.41,-399.674 1660.75,-389.416 1654.94,-393.31"/>
</g>
</g>
</svg>
