<?xml version="1.0" encoding="UTF-8" standalone="no"?>
<!DOCTYPE svg PUBLIC "-//W3C//DTD SVG 1.1//EN"
 "http://www.w3.org/Graphics/SVG/1.1/DTD/svg11.dtd">
<!-- Generated by graphviz version 2.38.0 (20140413.2041)
 -->
<!-- Title: finite_state_machine Pages: 1 -->
<svg width="1974pt" height="1133pt"
 viewBox="0.00 0.00 1974.40 1133.40" xmlns="http://www.w3.org/2000/svg" xmlns:xlink="http://www.w3.org/1999/xlink">
<g id="graph0" class="graph" transform="scale(1 1) rotate(0) translate(7.2 1126.2)">
<title>finite_state_machine</title>
<polygon fill="white" stroke="none" points="-7.2,7.2 -7.2,-1126.2 1967.2,-1126.2 1967.2,7.2 -7.2,7.2"/>
<text text-anchor="middle" x="980" y="-1091" font-family="Arial" font-size="30.00">Scratch Client Game Engine FSM (with UI Handling Shared State)</text>
<!-- Start -->
<g id="node1" class="node"><title>Start</title>
<ellipse fill="none" stroke="black" cx="33" cy="-1021" rx="29" ry="29"/>
<ellipse fill="none" stroke="black" cx="33" cy="-1021" rx="33" ry="33"/>
<text text-anchor="middle" x="33" y="-1018.8" font-family="Verdana" font-size="9.00">Start</text>
</g>
<!-- Load\nGame -->
<g id="node7" class="node"><title>Load\nGame</title>
<ellipse fill="#b4d3ff" stroke="#054ed9" cx="200" cy="-1021" rx="29" ry="29"/>
<text text-anchor="middle" x="200" y="-1023.8" font-family="Verdana" font-size="9.00">Load</text>
<text text-anchor="middle" x="200" y="-1013.8" font-family="Verdana" font-size="9.00">Game</text>
</g>
<!-- Start&#45;&gt;Load\nGame -->
<g id="edge1" class="edge"><title>Start&#45;&gt;Load\nGame</title>
<path fill="none" stroke="#036d0b" d="M66.2054,-1021C93.3518,-1021 132.247,-1021 160.93,-1021"/>
<polygon fill="#036d0b" stroke="#036d0b" points="160.995,-1024.5 170.995,-1021 160.995,-1017.5 160.995,-1024.5"/>
<text text-anchor="middle" x="118.5" y="-1033.8" font-family="Verdana" font-size="9.00" fill="#036d0b">Operator Data</text>
<text text-anchor="middle" x="118.5" y="-1023.8" font-family="Verdana" font-size="9.00" fill="#036d0b">(UserTokenID)</text>
</g>
<!-- Fatal\nError -->
<g id="node2" class="node"><title>Fatal\nError</title>
<ellipse fill="#ffb5b4" stroke="red" cx="925" cy="-861" rx="29" ry="29"/>
<ellipse fill="none" stroke="red" cx="925" cy="-861" rx="33" ry="33"/>
<text text-anchor="middle" x="925" y="-863.8" font-family="Verdana" font-size="9.00">Fatal</text>
<text text-anchor="middle" x="925" y="-853.8" font-family="Verdana" font-size="9.00">Error</text>
</g>
<!-- Return\nto\nLobby -->
<g id="node5" class="node"><title>Return\nto\nLobby</title>
<ellipse fill="none" stroke="black" cx="1729" cy="-900" rx="29" ry="29"/>
<ellipse fill="none" stroke="black" cx="1729" cy="-900" rx="33" ry="33"/>
<text text-anchor="middle" x="1729" y="-907.8" font-family="Verdana" font-size="9.00">Return</text>
<text text-anchor="middle" x="1729" y="-897.8" font-family="Verdana" font-size="9.00">to</text>
<text text-anchor="middle" x="1729" y="-887.8" font-family="Verdana" font-size="9.00">Lobby</text>
</g>
<!-- Fatal\nError&#45;&gt;Return\nto\nLobby -->
<g id="edge50" class="edge"><title>Fatal\nError&#45;&gt;Return\nto\nLobby</title>
<path fill="none" stroke="black" d="M956.215,-872.193C987.488,-882.761 1037.98,-897 1083,-897 1083,-897 1083,-897 1525,-897 1580.61,-897 1644.77,-898.139 1685.83,-899.014"/>
<polygon fill="black" stroke="black" points="1685.93,-902.517 1696.01,-899.235 1686.09,-895.518 1685.93,-902.517"/>
</g>
<!-- Begin\nActions -->
<g id="node3" class="node"><title>Begin\nActions</title>
<ellipse fill="#ffe785" stroke="#036d0b" cx="925" cy="-407" rx="29" ry="29"/>
<ellipse fill="none" stroke="#036d0b" cx="925" cy="-407" rx="33" ry="33"/>
<text text-anchor="middle" x="925" y="-409.8" font-family="Verdana" font-size="9.00">Begin</text>
<text text-anchor="middle" x="925" y="-399.8" font-family="Verdana" font-size="9.00">Actions</text>
</g>
<!-- Animate\nNext\nAction -->
<g id="node19" class="node"><title>Animate\nNext\nAction</title>
<ellipse fill="#ffe785" stroke="#036d0b" cx="1084" cy="-407" rx="29" ry="29"/>
<text text-anchor="middle" x="1084" y="-414.8" font-family="Verdana" font-size="9.00">Animate</text>
<text text-anchor="middle" x="1084" y="-404.8" font-family="Verdana" font-size="9.00">Next</text>
<text text-anchor="middle" x="1084" y="-394.8" font-family="Verdana" font-size="9.00">Action</text>
</g>
<!-- Begin\nActions&#45;&gt;Animate\nNext\nAction -->
<g id="edge25" class="edge"><title>Begin\nActions&#45;&gt;Animate\nNext\nAction</title>
<path fill="none" stroke="#a903a3" d="M958.15,-407C983.256,-407 1018.22,-407 1044.76,-407"/>
<polygon fill="#a903a3" stroke="#a903a3" points="1044.84,-410.5 1054.84,-407 1044.84,-403.5 1044.84,-410.5"/>
</g>
<!-- Finish\nActions -->
<g id="node4" class="node"><title>Finish\nActions</title>
<ellipse fill="#ffe785" stroke="#036d0b" cx="1832" cy="-107" rx="29" ry="29"/>
<ellipse fill="none" stroke="#036d0b" cx="1832" cy="-107" rx="33" ry="33"/>
<text text-anchor="middle" x="1832" y="-109.8" font-family="Verdana" font-size="9.00">Finish</text>
<text text-anchor="middle" x="1832" y="-99.8" font-family="Verdana" font-size="9.00">Actions</text>
</g>
<!-- Next\nAuto\nScratch -->
<g id="node24" class="node"><title>Next\nAuto\nScratch</title>
<ellipse fill="#f3b7ff" stroke="#8c05cc" cx="1931" cy="-107" rx="29" ry="29"/>
<text text-anchor="middle" x="1931" y="-114.8" font-family="Verdana" font-size="9.00">Next</text>
<text text-anchor="middle" x="1931" y="-104.8" font-family="Verdana" font-size="9.00">Auto</text>
<text text-anchor="middle" x="1931" y="-94.8" font-family="Verdana" font-size="9.00">Scratch</text>
</g>
<!-- Finish\nActions&#45;&gt;Next\nAuto\nScratch -->
<g id="edge47" class="edge"><title>Finish\nActions&#45;&gt;Next\nAuto\nScratch</title>
<path fill="none" stroke="#a903a3" d="M1865.03,-107C1873.6,-107 1882.94,-107 1891.81,-107"/>
<polygon fill="#a903a3" stroke="#a903a3" points="1891.92,-110.5 1901.92,-107 1891.92,-103.5 1891.92,-110.5"/>
</g>
<!-- Load\nAssets -->
<g id="node6" class="node"><title>Load\nAssets</title>
<ellipse fill="#b4d3ff" stroke="#054ed9" cx="200" cy="-899" rx="29" ry="29"/>
<text text-anchor="middle" x="200" y="-901.8" font-family="Verdana" font-size="9.00">Load</text>
<text text-anchor="middle" x="200" y="-891.8" font-family="Verdana" font-size="9.00">Assets</text>
</g>
<!-- Load\nAssets&#45;&gt;Fatal\nError -->
<g id="edge7" class="edge"><title>Load\nAssets&#45;&gt;Fatal\nError</title>
<path fill="none" stroke="#ff0000" d="M229.126,-899C253.444,-899 289.542,-899 321,-899 321,-899 321,-899 704,-899 767.288,-899 839.342,-883.541 883.234,-872.343"/>
<polygon fill="#ff0000" stroke="#ff0000" points="884.163,-875.718 892.96,-869.813 882.401,-868.943 884.163,-875.718"/>
<text text-anchor="middle" x="512.5" y="-901.8" font-family="Verdana" font-size="9.00" fill="#ff0000">Error</text>
</g>
<!-- Load\nAssets&#45;&gt;Load\nAssets -->
<g id="edge5" class="edge"><title>Load\nAssets&#45;&gt;Load\nAssets</title>
<path fill="none" stroke="black" d="M188.819,-926.047C188.187,-936.895 191.914,-946 200,-946 205.306,-946 208.736,-942.079 210.288,-936.317"/>
<polygon fill="black" stroke="black" points="213.801,-936.313 211.181,-926.047 206.827,-935.706 213.801,-936.313"/>
<text text-anchor="middle" x="200" y="-948.8" font-family="Verdana" font-size="9.00">Retry</text>
</g>
<!-- Intro\nScene -->
<g id="node18" class="node"><title>Intro\nScene</title>
<ellipse fill="#c7ffc2" stroke="#036d0b" stroke-dasharray="1,5" cx="200" cy="-805" rx="29" ry="29"/>
<text text-anchor="middle" x="200" y="-807.8" font-family="Verdana" font-size="9.00">Intro</text>
<text text-anchor="middle" x="200" y="-797.8" font-family="Verdana" font-size="9.00">Scene</text>
</g>
<!-- Load\nAssets&#45;&gt;Intro\nScene -->
<g id="edge6" class="edge"><title>Load\nAssets&#45;&gt;Intro\nScene</title>
<path fill="none" stroke="black" d="M200,-869.804C200,-861.228 200,-852.652 200,-844.076"/>
<polygon fill="black" stroke="black" points="203.5,-844.008 200,-834.008 196.5,-844.008 203.5,-844.008"/>
</g>
<!-- Load\nGame&#45;&gt;Fatal\nError -->
<g id="edge4" class="edge"><title>Load\nGame&#45;&gt;Fatal\nError</title>
<path fill="none" stroke="#ff0000" d="M213.867,-995.293C237.362,-950.065 287.84,-861 321,-861 321,-861 321,-861 704,-861 765.879,-861 837.549,-861 881.834,-861"/>
<polygon fill="#ff0000" stroke="#ff0000" points="881.938,-864.5 891.938,-861 881.938,-857.5 881.938,-864.5"/>
<text text-anchor="middle" x="512.5" y="-863.8" font-family="Verdana" font-size="9.00" fill="#ff0000">Error</text>
</g>
<!-- Load\nGame&#45;&gt;Load\nAssets -->
<g id="edge2" class="edge"><title>Load\nGame&#45;&gt;Load\nAssets</title>
<path fill="none" stroke="black" d="M200,-991.959C200,-974.157 200,-956.355 200,-938.552"/>
<polygon fill="black" stroke="black" points="203.5,-938.07 200,-928.07 196.5,-938.07 203.5,-938.07"/>
</g>
<!-- Load\nGame&#45;&gt;Load\nGame -->
<g id="edge3" class="edge"><title>Load\nGame&#45;&gt;Load\nGame</title>
<path fill="none" stroke="black" d="M188.819,-1048.05C188.187,-1058.89 191.914,-1068 200,-1068 205.306,-1068 208.736,-1064.08 210.288,-1058.32"/>
<polygon fill="black" stroke="black" points="213.801,-1058.31 211.181,-1048.05 206.827,-1057.71 213.801,-1058.31"/>
<text text-anchor="middle" x="200" y="-1070.8" font-family="Verdana" font-size="9.00">Retry</text>
</g>
<!-- Get\nTicket\nAsync -->
<g id="node8" class="node"><title>Get\nTicket\nAsync</title>
<ellipse fill="#b4d3ff" stroke="#054ed9" cx="608" cy="-711" rx="29" ry="29"/>
<text text-anchor="middle" x="608" y="-718.8" font-family="Verdana" font-size="9.00">Get</text>
<text text-anchor="middle" x="608" y="-708.8" font-family="Verdana" font-size="9.00">Ticket</text>
<text text-anchor="middle" x="608" y="-698.8" font-family="Verdana" font-size="9.00">Async</text>
</g>
<!-- Get\nTicket\nAsync&#45;&gt;Fatal\nError -->
<g id="edge20" class="edge"><title>Get\nTicket\nAsync&#45;&gt;Fatal\nError</title>
<path fill="none" stroke="#ff0000" d="M624.133,-735.165C635.831,-751.974 653.463,-773.676 674,-787 739.325,-829.382 829.748,-848.219 882.039,-856.018"/>
<polygon fill="#ff0000" stroke="#ff0000" points="881.576,-859.487 891.97,-857.434 882.564,-852.557 881.576,-859.487"/>
<text text-anchor="middle" x="703" y="-818.8" font-family="Verdana" font-size="9.00" fill="#ff0000">Error</text>
</g>
<!-- Wait\nTicket -->
<g id="node9" class="node"><title>Wait\nTicket</title>
<ellipse fill="#b4d3ff" stroke="#054ed9" cx="703" cy="-711" rx="29" ry="29"/>
<text text-anchor="middle" x="703" y="-713.8" font-family="Verdana" font-size="9.00">Wait</text>
<text text-anchor="middle" x="703" y="-703.8" font-family="Verdana" font-size="9.00">Ticket</text>
</g>
<!-- Get\nTicket\nAsync&#45;&gt;Wait\nTicket -->
<g id="edge21" class="edge"><title>Get\nTicket\nAsync&#45;&gt;Wait\nTicket</title>
<path fill="none" stroke="black" d="M637.155,-711C645.532,-711 654.855,-711 663.76,-711"/>
<polygon fill="black" stroke="black" points="663.94,-714.5 673.94,-711 663.94,-707.5 663.94,-714.5"/>
</g>
<!-- Wait\nTicket&#45;&gt;Fatal\nError -->
<g id="edge23" class="edge"><title>Wait\nTicket&#45;&gt;Fatal\nError</title>
<path fill="none" stroke="#ff0000" d="M727.544,-727.053C766.283,-753.465 843.667,-806.228 888.892,-837.063"/>
<polygon fill="#ff0000" stroke="#ff0000" points="886.982,-839.997 897.216,-842.738 890.926,-834.213 886.982,-839.997"/>
<text text-anchor="middle" x="782" y="-788.8" font-family="Verdana" font-size="9.00" fill="#ff0000">Error</text>
</g>
<!-- Wait\nTicket&#45;&gt;Begin\nActions -->
<g id="edge24" class="edge"><title>Wait\nTicket&#45;&gt;Begin\nActions</title>
<path fill="none" stroke="black" d="M720.716,-687.901C759.024,-634.967 853.342,-504.636 898.758,-441.879"/>
<polygon fill="black" stroke="black" points="901.804,-443.641 904.831,-433.488 896.133,-439.537 901.804,-443.641"/>
<text text-anchor="middle" x="782" y="-658.8" font-family="Verdana" font-size="9.00">Ticket Actions</text>
<text text-anchor="middle" x="782" y="-648.8" font-family="Verdana" font-size="9.00">Received</text>
</g>
<!-- Wait\nTicket&#45;&gt;Wait\nTicket -->
<g id="edge22" class="edge"><title>Wait\nTicket&#45;&gt;Wait\nTicket</title>
<path fill="none" stroke="black" d="M694.394,-738.986C694.112,-749.415 696.98,-758 703,-758 706.856,-758 709.419,-754.477 710.689,-749.202"/>
<polygon fill="black" stroke="black" points="714.198,-749.259 711.606,-738.986 707.226,-748.633 714.198,-749.259"/>
<text text-anchor="middle" x="703" y="-770.8" font-family="Verdana" font-size="9.00">Wait Server</text>
<text text-anchor="middle" x="703" y="-760.8" font-family="Verdana" font-size="9.00">Retry</text>
</g>
<!-- Title\nScene -->
<g id="node10" class="node"><title>Title\nScene</title>
<ellipse fill="#c7ffc2" stroke="#036d0b" cx="200" cy="-711" rx="29" ry="29"/>
<text text-anchor="middle" x="200" y="-713.8" font-family="Verdana" font-size="9.00">Title</text>
<text text-anchor="middle" x="200" y="-703.8" font-family="Verdana" font-size="9.00">Scene</text>
</g>
<!-- Board\nScene -->
<g id="node25" class="node"><title>Board\nScene</title>
<ellipse fill="none" stroke="black" cx="322" cy="-711" rx="29" ry="29"/>
<text text-anchor="middle" x="322" y="-713.8" font-family="Verdana" font-size="9.00">Board</text>
<text text-anchor="middle" x="322" y="-703.8" font-family="Verdana" font-size="9.00">Scene</text>
</g>
<!-- Title\nScene&#45;&gt;Board\nScene -->
<g id="edge9" class="edge"><title>Title\nScene&#45;&gt;Board\nScene</title>
<path fill="none" stroke="#036d0b" d="M229.135,-711C244.968,-711 264.972,-711 282.268,-711"/>
<polygon fill="#036d0b" stroke="#036d0b" points="282.626,-714.5 292.626,-711 282.626,-707.5 282.626,-714.5"/>
<text text-anchor="middle" x="261" y="-713.8" font-family="Verdana" font-size="9.00" fill="#036d0b">[Play]</text>
</g>
<!-- Wait\nfor\nBet -->
<g id="node11" class="node"><title>Wait\nfor\nBet</title>
<ellipse fill="#c7ffc2" stroke="#036d0b" cx="417" cy="-711" rx="29" ry="29"/>
<text text-anchor="middle" x="417" y="-718.8" font-family="Verdana" font-size="9.00">Wait</text>
<text text-anchor="middle" x="417" y="-708.8" font-family="Verdana" font-size="9.00">for</text>
<text text-anchor="middle" x="417" y="-698.8" font-family="Verdana" font-size="9.00">Bet</text>
</g>
<!-- Wait\nfor\nBet&#45;&gt;Get\nTicket\nAsync -->
<g id="edge12" class="edge"><title>Wait\nfor\nBet&#45;&gt;Get\nTicket\nAsync</title>
<path fill="none" stroke="#036d0b" stroke-width="2" d="M446.295,-711C478.818,-711 532.366,-711 568.625,-711"/>
<polygon fill="#036d0b" stroke="#036d0b" stroke-width="2" points="568.82,-714.5 578.82,-711 568.82,-707.5 568.82,-714.5"/>
<text text-anchor="start" x="464" y="-715.6" font-family="Verdana" font-weight="bold" font-size="13.00" fill="#036d0b">[Play Button]</text>
</g>
<!-- Handle\nUI Input -->
<g id="node12" class="node"><title>Handle\nUI Input</title>
<ellipse fill="#c7ffc2" stroke="#036d0b" cx="1524" cy="-654" rx="29" ry="29"/>
<text text-anchor="middle" x="1524" y="-656.8" font-family="Verdana" font-size="9.00">Handle</text>
<text text-anchor="middle" x="1524" y="-646.8" font-family="Verdana" font-size="9.00">UI Input</text>
</g>
<!-- Wait\nfor\nBet&#45;&gt;Handle\nUI Input -->
<g id="edge11" class="edge"><title>Wait\nfor\nBet&#45;&gt;Handle\nUI Input</title>
<path fill="none" stroke="#036d0b" stroke-dasharray="1,5" d="M452.63,-693.879C489.834,-677.091 551.157,-654 607,-654 607,-654 607,-654 1298.5,-654 1363.81,-654 1439.81,-654 1484.52,-654"/>
<polygon fill="#036d0b" stroke="#036d0b" points="450.867,-690.838 443.255,-698.208 453.801,-697.194 450.867,-690.838"/>
<polygon fill="#036d0b" stroke="#036d0b" points="1484.65,-657.5 1494.65,-654 1484.65,-650.5 1484.65,-657.5"/>
<text text-anchor="middle" x="925" y="-656.8" font-family="Verdana" font-size="9.00" fill="#036d0b">(Wait for Bet Tick calls Handle UI Input)</text>
</g>
<!-- Auto\nScratch\nToggle -->
<g id="node23" class="node"><title>Auto\nScratch\nToggle</title>
<ellipse fill="#f3b7ff" stroke="#8c05cc" cx="417" cy="-591" rx="29" ry="29"/>
<text text-anchor="middle" x="417" y="-598.8" font-family="Verdana" font-size="9.00">Auto</text>
<text text-anchor="middle" x="417" y="-588.8" font-family="Verdana" font-size="9.00">Scratch</text>
<text text-anchor="middle" x="417" y="-578.8" font-family="Verdana" font-size="9.00">Toggle</text>
</g>
<!-- Wait\nfor\nBet&#45;&gt;Auto\nScratch\nToggle -->
<g id="edge13" class="edge"><title>Wait\nfor\nBet&#45;&gt;Auto\nScratch\nToggle</title>
<path fill="none" stroke="#036d0b" d="M417,-671.528C417,-658.233 417,-643.409 417,-630.14"/>
<polygon fill="#036d0b" stroke="#036d0b" points="413.5,-671.803 417,-681.803 420.5,-671.803 413.5,-671.803"/>
<polygon fill="#036d0b" stroke="#036d0b" points="420.5,-630.049 417,-620.049 413.5,-630.049 420.5,-630.049"/>
<text text-anchor="middle" x="392" y="-632.6" font-family="Verdana" font-size="13.00" fill="#036d0b">[Auto Scratch Switch]</text>
</g>
<!-- Handle\nUI Input&#45;&gt;Return\nto\nLobby -->
<g id="edge19" class="edge"><title>Handle\nUI Input&#45;&gt;Return\nto\nLobby</title>
<path fill="none" stroke="#036d0b" d="M1524.5,-683.085C1525.4,-722.226 1532.79,-791.797 1571,-834 1604.97,-871.523 1631.83,-852.253 1678,-873 1682.33,-874.945 1686.79,-877.112 1691.19,-879.349"/>
<polygon fill="#036d0b" stroke="#036d0b" points="1689.58,-882.457 1700.07,-883.99 1692.83,-876.254 1689.58,-882.457"/>
<text text-anchor="middle" x="1624.5" y="-875.8" font-family="Verdana" font-size="9.00" fill="#036d0b">[Home Button]</text>
</g>
<!-- Display\nHelp -->
<g id="node13" class="node"><title>Display\nHelp</title>
<ellipse fill="#c7ffc2" stroke="#036d0b" cx="1729" cy="-820" rx="29" ry="29"/>
<text text-anchor="middle" x="1729" y="-822.8" font-family="Verdana" font-size="9.00">Display</text>
<text text-anchor="middle" x="1729" y="-812.8" font-family="Verdana" font-size="9.00">Help</text>
</g>
<!-- Handle\nUI Input&#45;&gt;Display\nHelp -->
<g id="edge15" class="edge"><title>Handle\nUI Input&#45;&gt;Display\nHelp</title>
<path fill="none" stroke="#036d0b" d="M1534.73,-691.766C1541.8,-712.71 1553.29,-737.899 1571,-755 1604.22,-787.082 1655.52,-804.233 1690.37,-812.718"/>
<polygon fill="#036d0b" stroke="#036d0b" points="1538.06,-690.661 1531.7,-682.183 1531.38,-692.773 1538.06,-690.661"/>
<polygon fill="#036d0b" stroke="#036d0b" points="1689.64,-816.142 1700.17,-814.983 1691.22,-809.322 1689.64,-816.142"/>
<text text-anchor="middle" x="1624.5" y="-822.8" font-family="Verdana" font-size="9.00" fill="#036d0b">[Help Button]</text>
<text text-anchor="middle" x="1624.5" y="-812.8" font-family="Verdana" font-size="9.00" fill="#036d0b">[Close Button]</text>
</g>
<!-- Display\nLines -->
<g id="node14" class="node"><title>Display\nLines</title>
<ellipse fill="#c7ffc2" stroke="#036d0b" stroke-dasharray="1,5" cx="1729" cy="-744" rx="29" ry="29"/>
<text text-anchor="middle" x="1729" y="-746.8" font-family="Verdana" font-size="9.00">Display</text>
<text text-anchor="middle" x="1729" y="-736.8" font-family="Verdana" font-size="9.00">Lines</text>
</g>
<!-- Handle\nUI Input&#45;&gt;Display\nLines -->
<g id="edge16" class="edge"><title>Handle\nUI Input&#45;&gt;Display\nLines</title>
<path fill="none" stroke="#036d0b" d="M1554.52,-678.576C1559.82,-682.363 1565.43,-686.004 1571,-689 1609.67,-709.809 1657.79,-725.301 1690.49,-734.452"/>
<polygon fill="#036d0b" stroke="#036d0b" points="1556.61,-675.766 1546.5,-672.576 1552.41,-681.37 1556.61,-675.766"/>
<polygon fill="#036d0b" stroke="#036d0b" points="1689.96,-737.937 1700.53,-737.199 1691.81,-731.185 1689.96,-737.937"/>
<text text-anchor="middle" x="1624.5" y="-743.8" font-family="Verdana" font-size="9.00" fill="#036d0b">[Line Indicator Button]</text>
<text text-anchor="middle" x="1624.5" y="-733.8" font-family="Verdana" font-size="9.00" fill="#036d0b">(Timeout)</text>
</g>
<!-- Display\nMenu -->
<g id="node15" class="node"><title>Display\nMenu</title>
<ellipse fill="#c7ffc2" stroke="#036d0b" cx="1729" cy="-668" rx="29" ry="29"/>
<text text-anchor="middle" x="1729" y="-670.8" font-family="Verdana" font-size="9.00">Display</text>
<text text-anchor="middle" x="1729" y="-660.8" font-family="Verdana" font-size="9.00">Menu</text>
</g>
<!-- Handle\nUI Input&#45;&gt;Display\nMenu -->
<g id="edge14" class="edge"><title>Handle\nUI Input&#45;&gt;Display\nMenu</title>
<path fill="none" stroke="#036d0b" d="M1563.35,-656.645C1599.6,-659.145 1653.68,-662.874 1689.86,-665.369"/>
<polygon fill="#036d0b" stroke="#036d0b" points="1563.44,-653.143 1553.23,-655.947 1562.96,-660.126 1563.44,-653.143"/>
<polygon fill="#036d0b" stroke="#036d0b" points="1689.8,-668.873 1700.01,-666.07 1690.28,-661.89 1689.8,-668.873"/>
<text text-anchor="middle" x="1624.5" y="-677.8" font-family="Verdana" font-size="9.00" fill="#036d0b">[Menu Button]</text>
<text text-anchor="middle" x="1624.5" y="-667.8" font-family="Verdana" font-size="9.00" fill="#036d0b">(Timeout)</text>
</g>
<!-- Display\nSymbol -->
<g id="node16" class="node"><title>Display\nSymbol</title>
<ellipse fill="#c7ffc2" stroke="#036d0b" stroke-dasharray="1,5" cx="1729" cy="-592" rx="29" ry="29"/>
<text text-anchor="middle" x="1729" y="-594.8" font-family="Verdana" font-size="9.00">Display</text>
<text text-anchor="middle" x="1729" y="-584.8" font-family="Verdana" font-size="9.00">Symbol</text>
</g>
<!-- Handle\nUI Input&#45;&gt;Display\nSymbol -->
<g id="edge17" class="edge"><title>Handle\nUI Input&#45;&gt;Display\nSymbol</title>
<path fill="none" stroke="#036d0b" d="M1551.85,-626.226C1557.74,-621.469 1564.25,-617.077 1571,-614 1608.86,-596.754 1656.74,-592.203 1689.61,-591.369"/>
<polygon fill="#036d0b" stroke="#036d0b" points="1549.49,-623.643 1544.25,-632.849 1554.09,-628.923 1549.49,-623.643"/>
<polygon fill="#036d0b" stroke="#036d0b" points="1689.78,-594.867 1699.72,-591.217 1689.67,-587.868 1689.78,-594.867"/>
<text text-anchor="middle" x="1624.5" y="-626.8" font-family="Verdana" font-size="9.00" fill="#036d0b">[Symbol Button]</text>
<text text-anchor="middle" x="1624.5" y="-616.8" font-family="Verdana" font-size="9.00" fill="#036d0b">(Timeout)</text>
</g>
<!-- Toggle\nAudio -->
<g id="node26" class="node"><title>Toggle\nAudio</title>
<ellipse fill="none" stroke="black" cx="1729" cy="-516" rx="29" ry="29"/>
<text text-anchor="middle" x="1729" y="-518.8" font-family="Verdana" font-size="9.00">Toggle</text>
<text text-anchor="middle" x="1729" y="-508.8" font-family="Verdana" font-size="9.00">Audio</text>
</g>
<!-- Handle\nUI Input&#45;&gt;Toggle\nAudio -->
<g id="edge18" class="edge"><title>Handle\nUI Input&#45;&gt;Toggle\nAudio</title>
<path fill="none" stroke="#036d0b" d="M1532.38,-615.432C1538.77,-592.507 1550.37,-564.727 1571,-548 1588.89,-533.497 1649.32,-524.367 1689.78,-519.728"/>
<polygon fill="#036d0b" stroke="#036d0b" points="1528.96,-614.684 1529.88,-625.239 1535.75,-616.417 1528.96,-614.684"/>
<polygon fill="#036d0b" stroke="#036d0b" points="1690.29,-523.193 1699.85,-518.618 1689.52,-516.235 1690.29,-523.193"/>
<text text-anchor="middle" x="1624.5" y="-560.8" font-family="Verdana" font-size="9.00" fill="#036d0b">[Audio Toggle Button]</text>
<text text-anchor="middle" x="1624.5" y="-550.8" font-family="Verdana" font-size="9.00" fill="#036d0b">(Timeout)</text>
</g>
<!-- Wait\nfor\nScratch -->
<g id="node17" class="node"><title>Wait\nfor\nScratch</title>
<ellipse fill="#c7ffc2" stroke="#036d0b" cx="1297.5" cy="-597" rx="29" ry="29"/>
<text text-anchor="middle" x="1297.5" y="-604.8" font-family="Verdana" font-size="9.00">Wait</text>
<text text-anchor="middle" x="1297.5" y="-594.8" font-family="Verdana" font-size="9.00">for</text>
<text text-anchor="middle" x="1297.5" y="-584.8" font-family="Verdana" font-size="9.00">Scratch</text>
</g>
<!-- Wait\nfor\nScratch&#45;&gt;Handle\nUI Input -->
<g id="edge36" class="edge"><title>Wait\nfor\nScratch&#45;&gt;Handle\nUI Input</title>
<path fill="none" stroke="#036d0b" stroke-dasharray="1,5" d="M1336.87,-596.435C1374,-597.142 1431.22,-601.592 1477,-620 1482.67,-622.279 1488.27,-625.425 1493.5,-628.89"/>
<polygon fill="#036d0b" stroke="#036d0b" points="1336.53,-592.931 1326.5,-596.325 1336.46,-599.931 1336.53,-592.931"/>
<polygon fill="#036d0b" stroke="#036d0b" points="1491.75,-631.943 1501.92,-634.926 1495.83,-626.254 1491.75,-631.943"/>
<text text-anchor="middle" x="1427" y="-632.8" font-family="Verdana" font-size="9.00" fill="#036d0b">Wait for Scratch Tick/</text>
<text text-anchor="middle" x="1427" y="-622.8" font-family="Verdana" font-size="9.00" fill="#036d0b">calls Handle UI Input</text>
</g>
<!-- Reveal\nOne -->
<g id="node21" class="node"><title>Reveal\nOne</title>
<ellipse fill="#ffe785" stroke="#036d0b" cx="1524" cy="-477" rx="29" ry="29"/>
<text text-anchor="middle" x="1524" y="-479.8" font-family="Verdana" font-size="9.00">Reveal</text>
<text text-anchor="middle" x="1524" y="-469.8" font-family="Verdana" font-size="9.00">One</text>
</g>
<!-- Wait\nfor\nScratch&#45;&gt;Reveal\nOne -->
<g id="edge37" class="edge"><title>Wait\nfor\nScratch&#45;&gt;Reveal\nOne</title>
<path fill="none" stroke="black" d="M1315.75,-574.061C1330.25,-556.309 1352.49,-532.397 1377,-518 1410.65,-498.23 1454.29,-487.608 1485.06,-482.169"/>
<polygon fill="black" stroke="black" points="1485.68,-485.614 1494.97,-480.518 1484.53,-478.709 1485.68,-485.614"/>
</g>
<!-- Reveal\nAll -->
<g id="node22" class="node"><title>Reveal\nAll</title>
<ellipse fill="#ffe785" stroke="#036d0b" stroke-dasharray="1,5" cx="1524" cy="-400" rx="29" ry="29"/>
<text text-anchor="middle" x="1524" y="-402.8" font-family="Verdana" font-size="9.00">Reveal</text>
<text text-anchor="middle" x="1524" y="-392.8" font-family="Verdana" font-size="9.00">All</text>
</g>
<!-- Wait\nfor\nScratch&#45;&gt;Reveal\nAll -->
<g id="edge38" class="edge"><title>Wait\nfor\nScratch&#45;&gt;Reveal\nAll</title>
<path fill="none" stroke="black" d="M1317.83,-575.824C1330.57,-561.156 1347.06,-540.781 1359,-521 1369.28,-503.962 1363.56,-494.675 1377,-480 1407.17,-447.069 1454.11,-424.746 1486.58,-412.223"/>
<polygon fill="black" stroke="black" points="1488.01,-415.424 1496.16,-408.65 1485.57,-408.865 1488.01,-415.424"/>
</g>
<!-- Intro\nScene&#45;&gt;Title\nScene -->
<g id="edge8" class="edge"><title>Intro\nScene&#45;&gt;Title\nScene</title>
<path fill="none" stroke="#036d0b" d="M200,-775.791C200,-767.746 200,-758.885 200,-750.368"/>
<polygon fill="#036d0b" stroke="#036d0b" points="203.5,-750.227 200,-740.227 196.5,-750.227 203.5,-750.227"/>
<text text-anchor="middle" x="192" y="-755.8" font-family="Verdana" font-size="9.00" fill="#036d0b">[Skip Video]</text>
</g>
<!-- Animate\nNext\nAction&#45;&gt;Wait\nfor\nScratch -->
<g id="edge29" class="edge"><title>Animate\nNext\nAction&#45;&gt;Wait\nfor\nScratch</title>
<path fill="none" stroke="black" d="M1086.04,-436.187C1088.82,-469.395 1098.46,-523.022 1131,-554 1165.15,-586.511 1220.62,-595.233 1257.82,-597.17"/>
<polygon fill="black" stroke="black" points="1258.14,-600.684 1268.27,-597.562 1258.4,-593.689 1258.14,-600.684"/>
</g>
<!-- Animate\nNext\nAction&#45;&gt;Animate\nNext\nAction -->
<g id="edge26" class="edge"><title>Animate\nNext\nAction&#45;&gt;Animate\nNext\nAction</title>
<path fill="none" stroke="#a903a3" d="M1075.39,-434.986C1075.11,-445.415 1077.98,-454 1084,-454 1087.86,-454 1090.42,-450.477 1091.69,-445.202"/>
<polygon fill="#a903a3" stroke="#a903a3" points="1095.2,-445.259 1092.61,-434.986 1088.23,-444.633 1095.2,-445.259"/>
<text text-anchor="middle" x="1084" y="-456.8" font-family="Verdana" font-size="9.00">Repeat</text>
</g>
<!-- Big\nWin -->
<g id="node27" class="node"><title>Big\nWin</title>
<ellipse fill="none" stroke="black" cx="1297.5" cy="-483" rx="29" ry="29"/>
<text text-anchor="middle" x="1297.5" y="-485.8" font-family="Verdana" font-size="9.00">Big</text>
<text text-anchor="middle" x="1297.5" y="-475.8" font-family="Verdana" font-size="9.00">Win</text>
</g>
<!-- Animate\nNext\nAction&#45;&gt;Big\nWin -->
<g id="edge30" class="edge"><title>Animate\nNext\nAction&#45;&gt;Big\nWin</title>
<path fill="none" stroke="black" d="M1111.79,-416.625C1149.45,-430.159 1218.16,-454.85 1260.33,-470.003"/>
<polygon fill="black" stroke="black" points="1259.34,-473.365 1269.93,-473.453 1261.7,-466.777 1259.34,-473.365"/>
</g>
<!-- Mega\nWin -->
<g id="node28" class="node"><title>Mega\nWin</title>
<ellipse fill="none" stroke="black" cx="1297.5" cy="-407" rx="29" ry="29"/>
<text text-anchor="middle" x="1297.5" y="-409.8" font-family="Verdana" font-size="9.00">Mega</text>
<text text-anchor="middle" x="1297.5" y="-399.8" font-family="Verdana" font-size="9.00">Win</text>
</g>
<!-- Animate\nNext\nAction&#45;&gt;Mega\nWin -->
<g id="edge31" class="edge"><title>Animate\nNext\nAction&#45;&gt;Mega\nWin</title>
<path fill="none" stroke="black" d="M1113.09,-407C1150.38,-407 1216.39,-407 1258.22,-407"/>
<polygon fill="black" stroke="black" points="1258.3,-410.5 1268.3,-407 1258.3,-403.5 1258.3,-410.5"/>
</g>
<!-- Win -->
<g id="node29" class="node"><title>Win</title>
<ellipse fill="none" stroke="black" cx="1297.5" cy="-331" rx="29" ry="29"/>
<text text-anchor="middle" x="1297.5" y="-328.8" font-family="Verdana" font-size="9.00">Win</text>
</g>
<!-- Animate\nNext\nAction&#45;&gt;Win -->
<g id="edge32" class="edge"><title>Animate\nNext\nAction&#45;&gt;Win</title>
<path fill="none" stroke="black" d="M1111.79,-397.375C1149.45,-383.841 1218.16,-359.15 1260.33,-343.997"/>
<polygon fill="black" stroke="black" points="1261.7,-347.223 1269.93,-340.547 1259.34,-340.635 1261.7,-347.223"/>
</g>
<!-- Free\nScratch\nAward -->
<g id="node30" class="node"><title>Free\nScratch\nAward</title>
<ellipse fill="none" stroke="black" cx="1297.5" cy="-255" rx="29" ry="29"/>
<text text-anchor="middle" x="1297.5" y="-262.8" font-family="Verdana" font-size="9.00">Free</text>
<text text-anchor="middle" x="1297.5" y="-252.8" font-family="Verdana" font-size="9.00">Scratch</text>
<text text-anchor="middle" x="1297.5" y="-242.8" font-family="Verdana" font-size="9.00">Award</text>
</g>
<!-- Animate\nNext\nAction&#45;&gt;Free\nScratch\nAward -->
<g id="edge34" class="edge"><title>Animate\nNext\nAction&#45;&gt;Free\nScratch\nAward</title>
<path fill="none" stroke="black" d="M1102.75,-384.582C1110.81,-375.16 1120.81,-364.449 1131,-356 1172.56,-321.528 1227.02,-290.599 1261.9,-272.309"/>
<polygon fill="black" stroke="black" points="1263.92,-275.203 1271.19,-267.493 1260.7,-268.988 1263.92,-275.203"/>
</g>
<!-- Free\nScratch\nWin -->
<g id="node31" class="node"><title>Free\nScratch\nWin</title>
<ellipse fill="none" stroke="black" cx="1297.5" cy="-179" rx="29" ry="29"/>
<text text-anchor="middle" x="1297.5" y="-186.8" font-family="Verdana" font-size="9.00">Free</text>
<text text-anchor="middle" x="1297.5" y="-176.8" font-family="Verdana" font-size="9.00">Scratch</text>
<text text-anchor="middle" x="1297.5" y="-166.8" font-family="Verdana" font-size="9.00">Win</text>
</g>
<!-- Animate\nNext\nAction&#45;&gt;Free\nScratch\nWin -->
<g id="edge35" class="edge"><title>Animate\nNext\nAction&#45;&gt;Free\nScratch\nWin</title>
<path fill="none" stroke="black" d="M1091.58,-378.976C1098.38,-354.415 1110.88,-318.718 1131,-293 1166.23,-247.974 1224.16,-213.883 1261.3,-195.175"/>
<polygon fill="black" stroke="black" points="1263.31,-198.09 1270.73,-190.532 1260.21,-191.811 1263.31,-198.09"/>
</g>
<!-- Lose -->
<g id="node32" class="node"><title>Lose</title>
<ellipse fill="none" stroke="black" cx="1297.5" cy="-103" rx="29" ry="29"/>
<text text-anchor="middle" x="1297.5" y="-100.8" font-family="Verdana" font-size="9.00">Lose</text>
</g>
<!-- Animate\nNext\nAction&#45;&gt;Lose -->
<g id="edge33" class="edge"><title>Animate\nNext\nAction&#45;&gt;Lose</title>
<path fill="none" stroke="black" d="M1085.79,-377.958C1088.17,-338.196 1097.24,-266.049 1131,-216 1163.19,-168.272 1222.92,-135.032 1261.13,-117.492"/>
<polygon fill="black" stroke="black" points="1262.65,-120.647 1270.35,-113.372 1259.79,-114.256 1262.65,-120.647"/>
</g>
<!-- Update\nBalance -->
<g id="node20" class="node"><title>Update\nBalance</title>
<ellipse fill="#ffe785" stroke="#036d0b" cx="1729" cy="-103" rx="29" ry="29"/>
<text text-anchor="middle" x="1729" y="-105.8" font-family="Verdana" font-size="9.00">Update</text>
<text text-anchor="middle" x="1729" y="-95.8" font-family="Verdana" font-size="9.00">Balance</text>
</g>
<!-- Update\nBalance&#45;&gt;Finish\nActions -->
<g id="edge28" class="edge"><title>Update\nBalance&#45;&gt;Finish\nActions</title>
<path fill="none" stroke="#a903a3" d="M1758.13,-104.114C1767.59,-104.489 1778.36,-104.915 1788.66,-105.323"/>
<polygon fill="#a903a3" stroke="#a903a3" points="1788.61,-108.824 1798.74,-105.722 1788.89,-101.829 1788.61,-108.824"/>
</g>
<!-- Update\nBalance&#45;&gt;Animate\nNext\nAction -->
<g id="edge27" class="edge"><title>Update\nBalance&#45;&gt;Animate\nNext\nAction</title>
<path fill="none" stroke="#a903a3" stroke-dasharray="1,5" d="M1726.67,-132.093C1722.93,-203.469 1710.4,-385.061 1678,-435 1642.1,-490.335 1616.01,-495.5 1553,-515 1529.5,-522.271 1272.83,-531.748 1236,-521 1185.06,-506.131 1138.27,-464.625 1110.69,-436.025"/>
<polygon fill="#a903a3" stroke="#a903a3" points="1113.17,-433.561 1103.76,-428.695 1108.09,-438.368 1113.17,-433.561"/>
<text text-anchor="middle" x="1427" y="-528.8" font-family="Verdana" font-size="9.00" fill="#a903a3">Next Action</text>
</g>
<!-- Reveal\nOne&#45;&gt;Update\nBalance -->
<g id="edge39" class="edge"><title>Reveal\nOne&#45;&gt;Update\nBalance</title>
<path fill="none" stroke="black" d="M1551.73,-468.196C1586.72,-455.203 1647.19,-427.405 1678,-382 1704.16,-343.446 1718.98,-209.264 1724.92,-142.028"/>
<polygon fill="black" stroke="black" points="1728.43,-142.1 1725.8,-131.836 1721.45,-141.499 1728.43,-142.1"/>
</g>
<!-- Reveal\nAll&#45;&gt;Update\nBalance -->
<g id="edge40" class="edge"><title>Reveal\nAll&#45;&gt;Update\nBalance</title>
<path fill="none" stroke="black" d="M1553.06,-397.202C1587.77,-392.189 1646.18,-378.405 1678,-341 1703.1,-311.497 1717.9,-202.024 1724.28,-142.371"/>
<polygon fill="black" stroke="black" points="1727.78,-142.501 1725.34,-132.192 1720.82,-141.777 1727.78,-142.501"/>
</g>
<!-- Next\nAuto\nScratch&#45;&gt;Get\nTicket\nAsync -->
<g id="edge48" class="edge"><title>Next\nAuto\nScratch&#45;&gt;Get\nTicket\nAsync</title>
<path fill="none" stroke="#a903a3" d="M1910.66,-85.6652C1892.52,-68.0745 1863.64,-46 1833,-46 702,-46 702,-46 702,-46 638.383,-46 615.639,-529.503 610.318,-671.957"/>
<polygon fill="#a903a3" stroke="#a903a3" points="606.819,-671.877 609.951,-681.998 613.814,-672.133 606.819,-671.877"/>
<text text-anchor="middle" x="1297.5" y="-48.8" font-family="Verdana" font-size="9.00">Remaining Auto Scratches</text>
</g>
<!-- Next\nAuto\nScratch&#45;&gt;Wait\nfor\nBet -->
<g id="edge49" class="edge"><title>Next\nAuto\nScratch&#45;&gt;Wait\nfor\nBet</title>
<path fill="none" stroke="#a903a3" d="M1919.58,-80.2754C1905.26,-48.5827 1876.25,-0 1833,-0 607,-0 607,-0 607,-0 318.432,-0 528.466,-352.466 446,-629 441.572,-643.848 436.175,-660.023 431.305,-674.052"/>
<polygon fill="#a903a3" stroke="#a903a3" points="427.879,-673.244 427.873,-683.839 434.485,-675.561 427.879,-673.244"/>
<text text-anchor="middle" x="1174.5" y="-2.8" font-family="Verdana" font-size="9.00">No Auto Scratches</text>
</g>
<!-- Board\nScene&#45;&gt;Wait\nfor\nBet -->
<g id="edge10" class="edge"><title>Board\nScene&#45;&gt;Wait\nfor\nBet</title>
<path fill="none" stroke="black" d="M351.155,-711C359.532,-711 368.855,-711 377.76,-711"/>
<polygon fill="black" stroke="black" points="377.94,-714.5 387.94,-711 377.94,-707.5 377.94,-714.5"/>
</g>
<!-- Big\nWin&#45;&gt;Update\nBalance -->
<g id="edge41" class="edge"><title>Big\nWin&#45;&gt;Update\nBalance</title>
<path fill="none" stroke="black" d="M1324.09,-470.682C1335.72,-464.196 1349.08,-455.417 1359,-445 1370.26,-433.186 1365.38,-424.46 1377,-413 1485.45,-306.005 1579.75,-365.429 1678,-249 1703.88,-218.329 1716.59,-173.566 1722.69,-141.702"/>
<polygon fill="black" stroke="black" points="1726.14,-142.303 1724.44,-131.844 1719.24,-141.076 1726.14,-142.303"/>
</g>
<!-- Mega\nWin&#45;&gt;Update\nBalance -->
<g id="edge42" class="edge"><title>Mega\nWin&#45;&gt;Update\nBalance</title>
<path fill="none" stroke="black" d="M1324.46,-395.854C1336.47,-389.535 1350.02,-380.558 1359,-369 1375.04,-348.355 1358.55,-331.521 1377,-313 1426.65,-263.165 1625.71,-262.059 1678,-215 1699.47,-195.68 1712.22,-165.395 1719.47,-141.187"/>
<polygon fill="black" stroke="black" points="1722.93,-141.806 1722.25,-131.233 1716.19,-139.924 1722.93,-141.806"/>
</g>
<!-- Win&#45;&gt;Update\nBalance -->
<g id="edge43" class="edge"><title>Win&#45;&gt;Update\nBalance</title>
<path fill="none" stroke="black" d="M1323.41,-317.472C1334.77,-310.784 1348.08,-302.183 1359,-293 1368.15,-285.301 1366.94,-279.472 1377,-273 1494.96,-197.081 1565.84,-262.254 1678,-178 1691.75,-167.669 1702.91,-152.382 1711.17,-138.3"/>
<polygon fill="black" stroke="black" points="1714.39,-139.726 1716.18,-129.284 1708.27,-136.327 1714.39,-139.726"/>
</g>
<!-- Free\nScratch\nAward&#45;&gt;Update\nBalance -->
<g id="edge44" class="edge"><title>Free\nScratch\nAward&#45;&gt;Update\nBalance</title>
<path fill="none" stroke="black" d="M1325.37,-246.719C1340.52,-242.066 1359.8,-236.171 1377,-231 1510.59,-190.828 1553.94,-205.795 1678,-142 1685.16,-138.319 1692.31,-133.558 1698.87,-128.636"/>
<polygon fill="black" stroke="black" points="1701.12,-131.315 1706.82,-122.383 1696.8,-125.813 1701.12,-131.315"/>
</g>
<!-- Free\nScratch\nWin&#45;&gt;Update\nBalance -->
<g id="edge45" class="edge"><title>Free\nScratch\nWin&#45;&gt;Update\nBalance</title>
<path fill="none" stroke="black" d="M1326.32,-175.533C1389.33,-167.446 1547.63,-145.808 1678,-117 1682.38,-116.033 1686.94,-114.913 1691.45,-113.737"/>
<polygon fill="black" stroke="black" points="1692.41,-117.102 1701.15,-111.109 1690.58,-110.346 1692.41,-117.102"/>
</g>
<!-- Lose&#45;&gt;Update\nBalance -->
<g id="edge46" class="edge"><title>Lose&#45;&gt;Update\nBalance</title>
<path fill="none" stroke="black" d="M1326.68,-103C1401.4,-103 1604.67,-103 1689.75,-103"/>
<polygon fill="black" stroke="black" points="1690,-106.5 1700,-103 1690,-99.5001 1690,-106.5"/>
</g>
</g>
</svg>
