<?xml version="1.0" encoding="UTF-8" standalone="no"?>
<!DOCTYPE svg PUBLIC "-//W3C//DTD SVG 1.1//EN"
 "http://www.w3.org/Graphics/SVG/1.1/DTD/svg11.dtd">
<!-- Generated by graphviz version 2.38.0 (20140413.2041)
 -->
<!-- Title: G Pages: 1 -->
<svg width="3443pt" height="3097pt"
 viewBox="0.00 0.00 3443.00 3097.00" xmlns="http://www.w3.org/2000/svg" xmlns:xlink="http://www.w3.org/1999/xlink">
<g id="graph0" class="graph" transform="scale(1 1) rotate(0) translate(4 3093)">
<title>G</title>
<polygon fill="white" stroke="none" points="-4,4 -4,-3093 3439,-3093 3439,4 -4,4"/>
<!-- CanvasRenderingContext2D -->
<g id="node1" class="node"><title>CanvasRenderingContext2D</title>
<polygon fill="none" stroke="black" stroke-width="0" points="2589.08,-2207.27 2080.08,-2207.27 2080.08,-1286.27 2589.08,-1286.27 2589.08,-2207.27"/>
<image xlink:href="PNG\CanvasRenderingContext2D.png" width="509px" height="921px" preserveAspectRatio="xMinYMin meet" x="2080.08" y="-2207.27"/>
</g>
<!-- HTMLCanvasContext -->
<g id="node2" class="node"><title>HTMLCanvasContext</title>
<polygon fill="none" stroke="black" stroke-width="0" points="1369.98,-2022.73 1225.98,-2022.73 1225.98,-1917.73 1369.98,-1917.73 1369.98,-2022.73"/>
<image xlink:href="PNG\HTMLCanvasContext.png" width="144px" height="105px" preserveAspectRatio="xMinYMin meet" x="1225.98" y="-2022.73"/>
</g>
<!-- CanvasRenderingContext2D&#45;&gt;HTMLCanvasContext -->
<g id="edge1" class="edge"><title>CanvasRenderingContext2D&#45;&gt;HTMLCanvasContext</title>
<path fill="none" stroke="black" stroke-width="2" d="M2080.01,-1912C1773.09,-1912 1297.98,-1912 1297.98,-1912 1297.98,-1912 1297.98,-1912.54 1297.98,-1912.54"/>
<polygon fill="black" stroke="black" stroke-width="2" points="1294.48,-1907.37 1297.98,-1917.37 1301.48,-1907.37 1294.48,-1907.37"/>
</g>
<!-- WebGLActiveInfo -->
<g id="node3" class="node"><title>WebGLActiveInfo</title>
<polygon fill="none" stroke="black" stroke-width="0" points="324.877,-1916.98 193.877,-1916.98 193.877,-1836.98 324.877,-1836.98 324.877,-1916.98"/>
<image xlink:href="PNG\WebGLActiveInfo.png" width="131px" height="80px" preserveAspectRatio="xMinYMin meet" x="193.877" y="-1916.98"/>
</g>
<!-- WebGLObject -->
<g id="node4" class="node"><title>WebGLObject</title>
<polygon fill="none" stroke="black" stroke-width="0" points="324.877,-1828.98 193.877,-1828.98 193.877,-1736.98 324.877,-1736.98 324.877,-1828.98"/>
<image xlink:href="PNG\WebGLObject.png" width="131px" height="92px" preserveAspectRatio="xMinYMin meet" x="193.877" y="-1828.98"/>
</g>
<!-- WebGLActiveInfo&#45;&gt;WebGLObject -->
<g id="edge2" class="edge"><title>WebGLActiveInfo&#45;&gt;WebGLObject</title>
<path fill="none" stroke="black" stroke-width="2" d="M226.627,-1836.84C226.627,-1836.84 226.627,-1836.06 226.627,-1836.06"/>
<polygon fill="black" stroke="black" stroke-width="2" points="230.127,-1839 226.627,-1829 223.127,-1839 230.127,-1839"/>
</g>
<!-- WebGLRenderingContext -->
<g id="node10" class="node"><title>WebGLRenderingContext</title>
<polygon fill="none" stroke="black" stroke-width="0" points="997.917,-2670.68 332.917,-2670.68 332.917,-818.682 997.917,-818.682 997.917,-2670.68"/>
<image xlink:href="PNG\WebGLRenderingContext.png" width="665px" height="1852px" preserveAspectRatio="xMinYMin meet" x="332.917" y="-2670.68"/>
</g>
<!-- WebGLActiveInfo&#45;&gt;WebGLRenderingContext -->
<g id="edge34" class="edge"><title>WebGLActiveInfo&#45;&gt;WebGLRenderingContext</title>
<path fill="none" stroke="orange" stroke-dasharray="1,5" d="M325.066,-1876C325.066,-1876 325.821,-1876 325.821,-1876"/>
<polygon fill="orange" stroke="orange" points="322.622,-1879.5 332.622,-1876 322.622,-1872.5 322.622,-1879.5"/>
</g>
<!-- WebGLBuffer -->
<g id="node5" class="node"><title>WebGLBuffer</title>
<polygon fill="none" stroke="black" stroke-width="0" points="324.877,-1640.98 193.877,-1640.98 193.877,-1560.98 324.877,-1560.98 324.877,-1640.98"/>
<image xlink:href="PNG\WebGLBuffer.png" width="131px" height="80px" preserveAspectRatio="xMinYMin meet" x="193.877" y="-1640.98"/>
</g>
<!-- WebGLBuffer&#45;&gt;WebGLObject -->
<g id="edge3" class="edge"><title>WebGLBuffer&#45;&gt;WebGLObject</title>
<path fill="none" stroke="black" stroke-width="2" d="M325.141,-1614C328.33,-1614 330.237,-1614 330.237,-1614 330.237,-1614 330.237,-1759 330.237,-1759 330.237,-1759 329.727,-1759 329.727,-1759"/>
<polygon fill="black" stroke="black" stroke-width="2" points="335.141,-1755.5 325.141,-1759 335.141,-1762.5 335.141,-1755.5"/>
</g>
<!-- WebGLBuffer&#45;&gt;WebGLRenderingContext -->
<g id="edge30" class="edge"><title>WebGLBuffer&#45;&gt;WebGLRenderingContext</title>
<path fill="none" stroke="orange" stroke-dasharray="1,5" d="M325.066,-1587C325.066,-1587 325.821,-1587 325.821,-1587"/>
<polygon fill="orange" stroke="orange" points="322.622,-1590.5 332.622,-1587 322.622,-1583.5 322.622,-1590.5"/>
</g>
<!-- WebGLContextAttributes -->
<g id="node6" class="node"><title>WebGLContextAttributes</title>
<polygon fill="none" stroke="black" stroke-width="0" points="1369.98,-2110.73 1236.98,-2110.73 1236.98,-2030.73 1369.98,-2030.73 1369.98,-2110.73"/>
<image xlink:href="PNG\WebGLContextAttributes.png" width="133px" height="80px" preserveAspectRatio="xMinYMin meet" x="1236.98" y="-2110.73"/>
</g>
<!-- WebGLContextAttributes&#45;&gt;WebGLObject -->
<g id="edge4" class="edge"><title>WebGLContextAttributes&#45;&gt;WebGLObject</title>
<path fill="none" stroke="black" stroke-width="2" d="M1236.66,-2084C1233.42,-2084 1231.48,-2084 1231.48,-2084 1231.48,-2084 1231.48,-2722 1231.48,-2722 1231.48,-2722 327.557,-2722 327.557,-2722 327.557,-2722 327.557,-1831 327.557,-1831 327.557,-1831 292.127,-1831 292.127,-1831 292.127,-1831 292.127,-1830.84 292.127,-1830.84"/>
<polygon fill="black" stroke="black" stroke-width="2" points="295.628,-1839.4 292.127,-1829.4 288.628,-1839.4 295.628,-1839.4"/>
</g>
<!-- WebGLContextAttributes&#45;&gt;WebGLRenderingContext -->
<g id="edge35" class="edge"><title>WebGLContextAttributes&#45;&gt;WebGLRenderingContext</title>
<path fill="none" stroke="orange" stroke-dasharray="1,5" d="M1236.7,-2057C1236.7,-2057 1008.23,-2057 1008.23,-2057"/>
<polygon fill="orange" stroke="orange" points="1008.23,-2053.5 998.232,-2057 1008.23,-2060.5 1008.23,-2053.5"/>
</g>
<!-- WebGLFramebuffer -->
<g id="node7" class="node"><title>WebGLFramebuffer</title>
<polygon fill="none" stroke="black" stroke-width="0" points="324.877,-1552.98 193.877,-1552.98 193.877,-1472.98 324.877,-1472.98 324.877,-1552.98"/>
<image xlink:href="PNG\WebGLFramebuffer.png" width="131px" height="80px" preserveAspectRatio="xMinYMin meet" x="193.877" y="-1552.98"/>
</g>
<!-- WebGLFramebuffer&#45;&gt;WebGLObject -->
<g id="edge5" class="edge"><title>WebGLFramebuffer&#45;&gt;WebGLObject</title>
<path fill="none" stroke="black" stroke-width="2" d="M193.628,-1512C190.44,-1512 188.533,-1512 188.533,-1512 188.533,-1512 188.533,-1759 188.533,-1759 188.533,-1759 189.043,-1759 189.043,-1759"/>
<polygon fill="black" stroke="black" stroke-width="2" points="183.628,-1762.5 193.628,-1759 183.628,-1755.5 183.628,-1762.5"/>
</g>
<!-- WebGLFramebuffer&#45;&gt;WebGLRenderingContext -->
<g id="edge31" class="edge"><title>WebGLFramebuffer&#45;&gt;WebGLRenderingContext</title>
<path fill="none" stroke="orange" stroke-dasharray="1,5" d="M325.066,-1512C325.066,-1512 325.821,-1512 325.821,-1512"/>
<polygon fill="orange" stroke="orange" points="322.622,-1515.5 332.622,-1512 322.622,-1508.5 322.622,-1515.5"/>
</g>
<!-- WebGLProgram -->
<g id="node8" class="node"><title>WebGLProgram</title>
<polygon fill="none" stroke="black" stroke-width="0" points="185.861,-1869.9 -0.138794,-1869.9 -0.138794,-1636.9 185.861,-1636.9 185.861,-1869.9"/>
<image xlink:href="PNG\WebGLProgram.png" width="186px" height="233px" preserveAspectRatio="xMinYMin meet" x="-0.138794" y="-1869.9"/>
</g>
<!-- WebGLProgram&#45;&gt;WebGLObject -->
<g id="edge6" class="edge"><title>WebGLProgram&#45;&gt;WebGLObject</title>
<path fill="none" stroke="black" stroke-width="2" d="M186.341,-1782C186.341,-1782 187.092,-1782 187.092,-1782"/>
<polygon fill="black" stroke="black" stroke-width="2" points="183.855,-1785.5 193.855,-1782 183.855,-1778.5 183.855,-1785.5"/>
</g>
<!-- WebGLProgram&#45;&gt;WebGLRenderingContext -->
<g id="edge28" class="edge"><title>WebGLProgram&#45;&gt;WebGLRenderingContext</title>
<path fill="none" stroke="orange" stroke-dasharray="1,5" d="M186.126,-1732C186.126,-1732 322.85,-1732 322.85,-1732"/>
<polygon fill="orange" stroke="orange" points="322.85,-1735.5 332.85,-1732 322.85,-1728.5 322.85,-1735.5"/>
</g>
<!-- WebGLRenderbuffer -->
<g id="node9" class="node"><title>WebGLRenderbuffer</title>
<polygon fill="none" stroke="black" stroke-width="0" points="324.877,-2092.98 193.877,-2092.98 193.877,-2012.98 324.877,-2012.98 324.877,-2092.98"/>
<image xlink:href="PNG\WebGLRenderbuffer.png" width="131px" height="80px" preserveAspectRatio="xMinYMin meet" x="193.877" y="-2092.98"/>
</g>
<!-- WebGLRenderbuffer&#45;&gt;WebGLObject -->
<g id="edge7" class="edge"><title>WebGLRenderbuffer&#45;&gt;WebGLObject</title>
<path fill="none" stroke="black" stroke-width="2" d="M325.159,-2039C327.522,-2039 328.897,-2039 328.897,-2039 328.897,-2039 328.897,-1805 328.897,-1805 328.897,-1805 328.523,-1805 328.523,-1805"/>
<polygon fill="black" stroke="black" stroke-width="2" points="335.159,-1801.5 325.159,-1805 335.159,-1808.5 335.159,-1801.5"/>
</g>
<!-- WebGLRenderbuffer&#45;&gt;WebGLRenderingContext -->
<g id="edge32" class="edge"><title>WebGLRenderbuffer&#45;&gt;WebGLRenderingContext</title>
<path fill="none" stroke="orange" stroke-dasharray="1,5" d="M325.066,-2066C325.066,-2066 325.821,-2066 325.821,-2066"/>
<polygon fill="orange" stroke="orange" points="322.622,-2069.5 332.622,-2066 322.622,-2062.5 322.622,-2069.5"/>
</g>
<!-- WebGLRenderingContext&#45;&gt;HTMLCanvasContext -->
<g id="edge8" class="edge"><title>WebGLRenderingContext&#45;&gt;HTMLCanvasContext</title>
<path fill="none" stroke="black" stroke-width="2" d="M998.371,-1970C998.371,-1970 1215.94,-1970 1215.94,-1970"/>
<polygon fill="black" stroke="black" stroke-width="2" points="1215.94,-1973.5 1225.94,-1970 1215.94,-1966.5 1215.94,-1973.5"/>
</g>
<!-- GameEngine -->
<g id="node18" class="node"><title>GameEngine</title>
<polygon fill="none" stroke="black" stroke-width="0" points="1648.01,-2035.73 1517.01,-2035.73 1517.01,-1917.73 1648.01,-1917.73 1648.01,-2035.73"/>
<image xlink:href="PNG\GameEngine.png" width="131px" height="118px" preserveAspectRatio="xMinYMin meet" x="1517.01" y="-2035.73"/>
</g>
<!-- WebGLRenderingContext&#45;&gt;GameEngine -->
<g id="edge44" class="edge"><title>WebGLRenderingContext&#45;&gt;GameEngine</title>
<path fill="none" stroke="orange" stroke-dasharray="1,5" d="M998.142,-1916C1252.8,-1916 1560.68,-1916 1560.68,-1916 1560.68,-1916 1560.68,-1916.15 1560.68,-1916.15"/>
<polygon fill="orange" stroke="orange" points="1557.18,-1907.5 1560.68,-1917.5 1564.18,-1907.5 1557.18,-1907.5"/>
</g>
<!-- WebGLShader -->
<g id="node11" class="node"><title>WebGLShader</title>
<polygon fill="none" stroke="black" stroke-width="0" points="1369.98,-2361.73 1238.98,-2361.73 1238.98,-2269.73 1369.98,-2269.73 1369.98,-2361.73"/>
<image xlink:href="PNG\WebGLShader.png" width="131px" height="92px" preserveAspectRatio="xMinYMin meet" x="1238.98" y="-2361.73"/>
</g>
<!-- WebGLShader&#45;&gt;WebGLObject -->
<g id="edge9" class="edge"><title>WebGLShader&#45;&gt;WebGLObject</title>
<path fill="none" stroke="black" stroke-width="2" d="M1304.48,-2362.09C1304.48,-2478.34 1304.48,-2773 1304.48,-2773 1304.48,-2773 326.217,-2773 326.217,-2773 326.217,-2773 326.217,-1834 326.217,-1834 326.217,-1834 259.377,-1834 259.377,-1834 259.377,-1834 259.377,-1833.53 259.377,-1833.53"/>
<polygon fill="black" stroke="black" stroke-width="2" points="262.877,-1839.29 259.377,-1829.29 255.877,-1839.29 262.877,-1839.29"/>
</g>
<!-- WebGLShader&#45;&gt;WebGLRenderingContext -->
<g id="edge29" class="edge"><title>WebGLShader&#45;&gt;WebGLRenderingContext</title>
<path fill="none" stroke="orange" stroke-dasharray="1,5" d="M1238.8,-2315C1238.8,-2315 1008.08,-2315 1008.08,-2315"/>
<polygon fill="orange" stroke="orange" points="1008.08,-2311.5 998.083,-2315 1008.08,-2318.5 1008.08,-2311.5"/>
</g>
<!-- WebGLShaderPrecisionFormat -->
<g id="node12" class="node"><title>WebGLShaderPrecisionFormat</title>
<polygon fill="none" stroke="black" stroke-width="0" points="324.876,-2004.98 171.876,-2004.98 171.876,-1924.98 324.876,-1924.98 324.876,-2004.98"/>
<image xlink:href="PNG\WebGLShaderPrecisionFormat.png" width="153px" height="80px" preserveAspectRatio="xMinYMin meet" x="171.876" y="-2004.98"/>
</g>
<!-- WebGLShaderPrecisionFormat&#45;&gt;WebGLObject -->
<g id="edge10" class="edge"><title>WebGLShaderPrecisionFormat&#45;&gt;WebGLObject</title>
<path fill="none" stroke="black" stroke-width="2" d="M191.205,-1924.61C191.205,-1877.22 191.205,-1805 191.205,-1805 191.205,-1805 191.464,-1805 191.464,-1805"/>
<polygon fill="black" stroke="black" stroke-width="2" points="183.794,-1808.5 193.794,-1805 183.794,-1801.5 183.794,-1808.5"/>
</g>
<!-- WebGLShaderPrecisionFormat&#45;&gt;WebGLRenderingContext -->
<g id="edge36" class="edge"><title>WebGLShaderPrecisionFormat&#45;&gt;WebGLRenderingContext</title>
<path fill="none" stroke="orange" stroke-dasharray="1,5" d="M325.354,-1964C325.354,-1964 326.107,-1964 326.107,-1964"/>
<polygon fill="orange" stroke="orange" points="322.89,-1967.5 332.89,-1964 322.89,-1960.5 322.89,-1967.5"/>
</g>
<!-- WebGLTexture -->
<g id="node13" class="node"><title>WebGLTexture</title>
<polygon fill="none" stroke="black" stroke-width="0" points="324.877,-1464.98 193.877,-1464.98 193.877,-1372.98 324.877,-1372.98 324.877,-1464.98"/>
<image xlink:href="PNG\WebGLTexture.png" width="131px" height="92px" preserveAspectRatio="xMinYMin meet" x="193.877" y="-1464.98"/>
</g>
<!-- WebGLTexture&#45;&gt;WebGLObject -->
<g id="edge11" class="edge"><title>WebGLTexture&#45;&gt;WebGLObject</title>
<path fill="none" stroke="black" stroke-width="2" d="M324.914,-1434C329.039,-1434 331.577,-1434 331.577,-1434 331.577,-1434 331.577,-1782 331.577,-1782 331.577,-1782 330.911,-1782 330.911,-1782"/>
<polygon fill="black" stroke="black" stroke-width="2" points="334.914,-1778.5 324.914,-1782 334.914,-1785.5 334.914,-1778.5"/>
</g>
<!-- WebGLTexture&#45;&gt;WebGLRenderingContext -->
<g id="edge33" class="edge"><title>WebGLTexture&#45;&gt;WebGLRenderingContext</title>
<path fill="none" stroke="orange" stroke-dasharray="1,5" d="M325.066,-1403C325.066,-1403 325.821,-1403 325.821,-1403"/>
<polygon fill="orange" stroke="orange" points="322.622,-1406.5 332.622,-1403 322.622,-1399.5 322.622,-1406.5"/>
</g>
<!-- WebGLUniformLocation -->
<g id="node14" class="node"><title>WebGLUniformLocation</title>
<polygon fill="none" stroke="black" stroke-width="0" points="324.877,-1728.98 193.877,-1728.98 193.877,-1648.98 324.877,-1648.98 324.877,-1728.98"/>
<image xlink:href="PNG\WebGLUniformLocation.png" width="131px" height="80px" preserveAspectRatio="xMinYMin meet" x="193.877" y="-1728.98"/>
</g>
<!-- WebGLUniformLocation&#45;&gt;WebGLObject -->
<g id="edge12" class="edge"><title>WebGLUniformLocation&#45;&gt;WebGLObject</title>
<path fill="none" stroke="black" stroke-width="2" d="M259.377,-1729.12C259.377,-1729.12 259.377,-1729.9 259.377,-1729.9"/>
<polygon fill="black" stroke="black" stroke-width="2" points="255.877,-1726.95 259.377,-1736.95 262.877,-1726.95 255.877,-1726.95"/>
</g>
<!-- WebGLUniformLocation&#45;&gt;WebGLProgram -->
<g id="edge26" class="edge"><title>WebGLUniformLocation&#45;&gt;WebGLProgram</title>
<path fill="none" stroke="orange" stroke-dasharray="1,5" d="M193.566,-1688C193.566,-1688 192.796,-1688 192.796,-1688"/>
<polygon fill="orange" stroke="orange" points="195.871,-1684.5 185.871,-1688 195.871,-1691.5 195.871,-1684.5"/>
</g>
<!-- WebGLUniformLocation&#45;&gt;WebGLRenderingContext -->
<g id="edge37" class="edge"><title>WebGLUniformLocation&#45;&gt;WebGLRenderingContext</title>
<path fill="none" stroke="orange" stroke-dasharray="1,5" d="M325.066,-1688C325.066,-1688 325.821,-1688 325.821,-1688"/>
<polygon fill="orange" stroke="orange" points="322.622,-1691.5 332.622,-1688 322.622,-1684.5 322.622,-1691.5"/>
</g>
<!-- Class2 -->
<g id="node15" class="node"><title>Class2</title>
<polygon fill="none" stroke="black" stroke-width="0" points="2943.13,-2225.95 2736.13,-2225.95 2736.13,-1967.95 2943.13,-1967.95 2943.13,-2225.95"/>
<image xlink:href="PNG\Class2.png" width="207px" height="258px" preserveAspectRatio="xMinYMin meet" x="2736.13" y="-2225.95"/>
</g>
<!-- Class1 -->
<g id="node16" class="node"><title>Class1</title>
<polygon fill="none" stroke="black" stroke-width="0" points="3220.16,-2134.5 3013.16,-2134.5 3013.16,-1557.5 3220.16,-1557.5 3220.16,-2134.5"/>
<image xlink:href="PNG\Class1.png" width="207px" height="577px" preserveAspectRatio="xMinYMin meet" x="3013.16" y="-2134.5"/>
</g>
<!-- Class2&#45;&gt;Class1 -->
<g id="edge13" class="edge"><title>Class2&#45;&gt;Class1</title>
<path fill="none" stroke="black" stroke-width="2" d="M2943.18,-2051C2943.18,-2051 3002.77,-2051 3002.77,-2051"/>
<polygon fill="black" stroke="black" stroke-width="2" points="3002.77,-2054.5 3012.77,-2051 3002.77,-2047.5 3002.77,-2054.5"/>
</g>
<!-- Class3 -->
<g id="node17" class="node"><title>Class3</title>
<polygon fill="none" stroke="black" stroke-width="0" points="3435.18,-1890.06 3228.18,-1890.06 3228.18,-1670.06 3435.18,-1670.06 3435.18,-1890.06"/>
<image xlink:href="PNG\Class3.png" width="207px" height="220px" preserveAspectRatio="xMinYMin meet" x="3228.18" y="-1890.06"/>
</g>
<!-- Class3&#45;&gt;Class2 -->
<g id="edge14" class="edge"><title>Class3&#45;&gt;Class2</title>
<path fill="none" stroke="black" stroke-width="2" d="M3297.18,-1890.14C3297.18,-2008.53 3297.18,-2180 3297.18,-2180 3297.18,-2180 2953.17,-2180 2953.17,-2180"/>
<polygon fill="black" stroke="black" stroke-width="2" points="2953.17,-2176.5 2943.17,-2180 2953.17,-2183.5 2953.17,-2176.5"/>
</g>
<!-- CocoEngine -->
<g id="node19" class="node"><title>CocoEngine</title>
<polygon fill="none" stroke="black" stroke-width="0" points="1821.02,-2824.73 1517.02,-2824.73 1517.02,-2515.73 1821.02,-2515.73 1821.02,-2824.73"/>
<image xlink:href="PNG\CocoEngine.png" width="304px" height="309px" preserveAspectRatio="xMinYMin meet" x="1517.02" y="-2824.73"/>
</g>
<!-- GameEngine&#45;&gt;CocoEngine -->
<g id="edge15" class="edge"><title>GameEngine&#45;&gt;CocoEngine</title>
<path fill="none" stroke="black" stroke-width="2" d="M1560.68,-2035.86C1560.68,-2035.86 1560.68,-2505.5 1560.68,-2505.5"/>
<polygon fill="black" stroke="black" stroke-width="2" points="1557.18,-2505.5 1560.68,-2515.5 1564.18,-2505.5 1557.18,-2505.5"/>
</g>
<!-- NewAnimation -->
<g id="node20" class="node"><title>NewAnimation</title>
<polygon fill="none" stroke="black" stroke-width="0" points="1632.52,-1133.73 1501.52,-1133.73 1501.52,-1053.73 1632.52,-1053.73 1632.52,-1133.73"/>
<image xlink:href="PNG\NewAnimation.png" width="131px" height="80px" preserveAspectRatio="xMinYMin meet" x="1501.52" y="-1133.73"/>
</g>
<!-- NewAnimation&#45;&gt;GameEngine -->
<g id="edge43" class="edge"><title>NewAnimation&#45;&gt;GameEngine</title>
<path fill="none" stroke="orange" stroke-dasharray="1,5" d="M1632.7,-1117C1770.54,-1117 2077.4,-1117 2077.4,-1117 2077.4,-1117 2077.4,-1911 2077.4,-1911 2077.4,-1911 1604.34,-1911 1604.34,-1911 1604.34,-1911 1604.34,-1911.65 1604.34,-1911.65"/>
<polygon fill="orange" stroke="orange" points="1600.84,-1907.54 1604.34,-1917.54 1607.84,-1907.54 1600.84,-1907.54"/>
</g>
<!-- CocoScene -->
<g id="node21" class="node"><title>CocoScene</title>
<polygon fill="none" stroke="black" stroke-width="0" points="2072.04,-2507.73 1656.04,-2507.73 1656.04,-1917.73 2072.04,-1917.73 2072.04,-2507.73"/>
<image xlink:href="PNG\CocoScene.png" width="416px" height="590px" preserveAspectRatio="xMinYMin meet" x="1656.04" y="-2507.73"/>
</g>
<!-- NewAnimation&#45;&gt;CocoScene -->
<g id="edge16" class="edge"><title>NewAnimation&#45;&gt;CocoScene</title>
<path fill="none" stroke="black" stroke-width="2" d="M1588.85,-1133.89C1588.85,-1135.84 1588.85,-1137 1588.85,-1137 1588.85,-1137 2074.72,-1137 2074.72,-1137 2074.72,-1137 2074.72,-2062 2074.72,-2062 2074.72,-2062 2074.45,-2062 2074.45,-2062"/>
<polygon fill="black" stroke="black" stroke-width="2" points="2082.05,-2058.5 2072.05,-2062 2082.05,-2065.5 2082.05,-2058.5"/>
</g>
<!-- CocoScene&#45;&gt;GameEngine -->
<g id="edge42" class="edge"><title>CocoScene&#45;&gt;GameEngine</title>
<path fill="none" stroke="orange" stroke-dasharray="1,5" d="M1655.74,-1976C1655.74,-1976 1654.97,-1976 1654.97,-1976"/>
<polygon fill="orange" stroke="orange" points="1658.03,-1972.5 1648.03,-1976 1658.03,-1979.5 1658.03,-1972.5"/>
</g>
<!-- PathLine -->
<g id="node22" class="node"><title>PathLine</title>
<polygon fill="none" stroke="black" stroke-width="0" points="3005.14,-1783.03 2874.14,-1783.03 2874.14,-1652.03 3005.14,-1652.03 3005.14,-1783.03"/>
<image xlink:href="PNG\PathLine.png" width="131px" height="131px" preserveAspectRatio="xMinYMin meet" x="2874.14" y="-1783.03"/>
</g>
<!-- PathLine&#45;&gt;CanvasRenderingContext2D -->
<g id="edge17" class="edge"><title>PathLine&#45;&gt;CanvasRenderingContext2D</title>
<path fill="none" stroke="orange" stroke-dasharray="1,5" d="M2874.03,-1711C2874.03,-1711 2599.22,-1711 2599.22,-1711"/>
<polygon fill="orange" stroke="orange" points="2599.22,-1707.5 2589.22,-1711 2599.22,-1714.5 2599.22,-1707.5"/>
</g>
<!-- ImageData -->
<g id="node23" class="node"><title>ImageData</title>
<polygon fill="none" stroke="black" stroke-width="0" points="1369.98,-2261.73 1238.98,-2261.73 1238.98,-2118.73 1369.98,-2118.73 1369.98,-2261.73"/>
<image xlink:href="PNG\ImageData.png" width="131px" height="143px" preserveAspectRatio="xMinYMin meet" x="1238.98" y="-2261.73"/>
</g>
<!-- ImageData&#45;&gt;CanvasRenderingContext2D -->
<g id="edge18" class="edge"><title>ImageData&#45;&gt;CanvasRenderingContext2D</title>
<path fill="none" stroke="orange" stroke-dasharray="1,5" d="M1370.25,-2190C1372.61,-2190 1373.99,-2190 1373.99,-2190 1373.99,-2190 1373.99,-1913 1373.99,-1913 1373.99,-1913 2070,-1913 2070,-1913"/>
<polygon fill="orange" stroke="orange" points="2070,-1916.5 2080,-1913 2070,-1909.5 2070,-1916.5"/>
</g>
<!-- ImageData&#45;&gt;WebGLRenderingContext -->
<g id="edge39" class="edge"><title>ImageData&#45;&gt;WebGLRenderingContext</title>
<path fill="none" stroke="orange" stroke-dasharray="1,5" d="M1238.8,-2190C1238.8,-2190 1008.08,-2190 1008.08,-2190"/>
<polygon fill="orange" stroke="orange" points="1008.08,-2186.5 998.083,-2190 1008.08,-2193.5 1008.08,-2186.5"/>
</g>
<!-- HTMLCanvasGradient -->
<g id="node24" class="node"><title>HTMLCanvasGradient</title>
<polygon fill="none" stroke="black" stroke-width="0" points="2728.11,-1707.95 2597.11,-1707.95 2597.11,-1627.95 2728.11,-1627.95 2728.11,-1707.95"/>
<image xlink:href="PNG\HTMLCanvasGradient.png" width="131px" height="80px" preserveAspectRatio="xMinYMin meet" x="2597.11" y="-1707.95"/>
</g>
<!-- HTMLCanvasGradient&#45;&gt;CanvasRenderingContext2D -->
<g id="edge19" class="edge"><title>HTMLCanvasGradient&#45;&gt;CanvasRenderingContext2D</title>
<path fill="none" stroke="orange" stroke-dasharray="1,5" d="M2597.02,-1667C2597.02,-1667 2596.25,-1667 2596.25,-1667"/>
<polygon fill="orange" stroke="orange" points="2599.3,-1663.5 2589.3,-1667 2599.3,-1670.5 2599.3,-1663.5"/>
</g>
<!-- HTMLCanvasPattern -->
<g id="node25" class="node"><title>HTMLCanvasPattern</title>
<polygon fill="none" stroke="black" stroke-width="0" points="2728.11,-1795.95 2597.11,-1795.95 2597.11,-1715.95 2728.11,-1715.95 2728.11,-1795.95"/>
<image xlink:href="PNG\HTMLCanvasPattern.png" width="131px" height="80px" preserveAspectRatio="xMinYMin meet" x="2597.11" y="-1795.95"/>
</g>
<!-- HTMLCanvasPattern&#45;&gt;CanvasRenderingContext2D -->
<g id="edge20" class="edge"><title>HTMLCanvasPattern&#45;&gt;CanvasRenderingContext2D</title>
<path fill="none" stroke="orange" stroke-dasharray="1,5" d="M2597.02,-1755C2597.02,-1755 2596.25,-1755 2596.25,-1755"/>
<polygon fill="orange" stroke="orange" points="2599.3,-1751.5 2589.3,-1755 2599.3,-1758.5 2599.3,-1751.5"/>
</g>
<!-- Image -->
<g id="node26" class="node"><title>Image</title>
<polygon fill="none" stroke="black" stroke-width="0" points="1509,-2111.73 1378,-2111.73 1378,-1917.73 1509,-1917.73 1509,-2111.73"/>
<image xlink:href="PNG\Image.png" width="131px" height="194px" preserveAspectRatio="xMinYMin meet" x="1378" y="-2111.73"/>
</g>
<!-- Image&#45;&gt;CanvasRenderingContext2D -->
<g id="edge21" class="edge"><title>Image&#45;&gt;CanvasRenderingContext2D</title>
<path fill="none" stroke="orange" stroke-dasharray="1,5" d="M1443.5,-1917.47C1443.5,-1915.88 1443.5,-1915 1443.5,-1915 1443.5,-1915 2069.83,-1915 2069.83,-1915"/>
<polygon fill="orange" stroke="orange" points="2069.83,-1918.5 2079.83,-1915 2069.83,-1911.5 2069.83,-1918.5"/>
</g>
<!-- Image&#45;&gt;WebGLRenderingContext -->
<g id="edge38" class="edge"><title>Image&#45;&gt;WebGLRenderingContext</title>
<path fill="none" stroke="orange" stroke-dasharray="1,5" d="M1377.83,-2026C1377.83,-2026 1008.08,-2026 1008.08,-2026"/>
<polygon fill="orange" stroke="orange" points="1008.08,-2022.5 998.085,-2026 1008.08,-2029.5 1008.08,-2022.5"/>
</g>
<!-- HTMLElement -->
<g id="node27" class="node"><title>HTMLElement</title>
<polygon fill="none" stroke="black" stroke-width="0" points="1734.18,-3088.73 1462.18,-3088.73 1462.18,-2996.73 1734.18,-2996.73 1734.18,-3088.73"/>
<image xlink:href="PNG\HTMLElement.png" width="272px" height="92px" preserveAspectRatio="xMinYMin meet" x="1462.18" y="-3088.73"/>
</g>
<!-- HTMLElement&#45;&gt;CanvasRenderingContext2D -->
<g id="edge22" class="edge"><title>HTMLElement&#45;&gt;CanvasRenderingContext2D</title>
<path fill="none" stroke="orange" stroke-dasharray="1,5" d="M1734.25,-3042C1967.64,-3042 2419.42,-3042 2419.42,-3042 2419.42,-3042 2419.42,-2217.52 2419.42,-2217.52"/>
<polygon fill="orange" stroke="orange" points="2422.92,-2217.52 2419.42,-2207.52 2415.92,-2217.52 2422.92,-2217.52"/>
</g>
<!-- HTMLTextMetrics -->
<g id="node28" class="node"><title>HTMLTextMetrics</title>
<polygon fill="none" stroke="black" stroke-width="0" points="2728.11,-2059.95 2597.11,-2059.95 2597.11,-1967.95 2728.11,-1967.95 2728.11,-2059.95"/>
<image xlink:href="PNG\HTMLTextMetrics.png" width="131px" height="92px" preserveAspectRatio="xMinYMin meet" x="2597.11" y="-2059.95"/>
</g>
<!-- HTMLTextMetrics&#45;&gt;CanvasRenderingContext2D -->
<g id="edge23" class="edge"><title>HTMLTextMetrics&#45;&gt;CanvasRenderingContext2D</title>
<path fill="none" stroke="orange" stroke-dasharray="1,5" d="M2597.02,-2013C2597.02,-2013 2596.25,-2013 2596.25,-2013"/>
<polygon fill="orange" stroke="orange" points="2599.3,-2009.5 2589.3,-2013 2599.3,-2016.5 2599.3,-2009.5"/>
</g>
<!-- HTMLCanvasElement -->
<g id="node29" class="node"><title>HTMLCanvasElement</title>
<polygon fill="none" stroke="black" stroke-width="0" points="1655.58,-2988.73 1428.58,-2988.73 1428.58,-2832.73 1655.58,-2832.73 1655.58,-2988.73"/>
<image xlink:href="PNG\HTMLCanvasElement.png" width="227px" height="156px" preserveAspectRatio="xMinYMin meet" x="1428.58" y="-2988.73"/>
</g>
<!-- HTMLCanvasElement&#45;&gt;CanvasRenderingContext2D -->
<g id="edge24" class="edge"><title>HTMLCanvasElement&#45;&gt;CanvasRenderingContext2D</title>
<path fill="none" stroke="orange" stroke-dasharray="1,5" d="M1655.78,-2910C1855.82,-2910 2249.75,-2910 2249.75,-2910 2249.75,-2910 2249.75,-2217.35 2249.75,-2217.35"/>
<polygon fill="orange" stroke="orange" points="2253.25,-2217.35 2249.75,-2207.35 2246.25,-2217.35 2253.25,-2217.35"/>
</g>
<!-- HTMLCanvasElement&#45;&gt;WebGLRenderingContext -->
<g id="edge27" class="edge"><title>HTMLCanvasElement&#45;&gt;WebGLRenderingContext</title>
<path fill="none" stroke="orange" stroke-dasharray="1,5" d="M1468.79,-2832.6C1468.79,-2738.52 1468.79,-2593 1468.79,-2593 1468.79,-2593 1007.98,-2593 1007.98,-2593"/>
<polygon fill="orange" stroke="orange" points="1007.98,-2589.5 997.977,-2593 1007.98,-2596.5 1007.98,-2589.5"/>
</g>
<!-- HTMLWindow -->
<g id="node30" class="node"><title>HTMLWindow</title>
<polygon fill="none" stroke="black" stroke-width="0" points="2953.13,-1619.95 2597.13,-1619.95 2597.13,-1399.95 2953.13,-1399.95 2953.13,-1619.95"/>
<image xlink:href="PNG\HTMLWindow.png" width="356px" height="220px" preserveAspectRatio="xMinYMin meet" x="2597.13" y="-1619.95"/>
</g>
<!-- HTMLWindow&#45;&gt;CanvasRenderingContext2D -->
<g id="edge25" class="edge"><title>HTMLWindow&#45;&gt;CanvasRenderingContext2D</title>
<path fill="none" stroke="orange" stroke-dasharray="1,5" d="M2596.89,-1509C2596.89,-1509 2596.14,-1509 2596.14,-1509"/>
<polygon fill="orange" stroke="orange" points="2599.35,-1505.5 2589.35,-1509 2599.35,-1512.5 2599.35,-1505.5"/>
</g>
<!-- State -->
<g id="node31" class="node"><title>State</title>
<polygon fill="none" stroke="black" stroke-width="0" points="2829.12,-1959.95 2597.12,-1959.95 2597.12,-1803.95 2829.12,-1803.95 2829.12,-1959.95"/>
<image xlink:href="PNG\State.png" width="232px" height="156px" preserveAspectRatio="xMinYMin meet" x="2597.12" y="-1959.95"/>
</g>
<!-- State&#45;&gt;Class2 -->
<g id="edge40" class="edge"><title>State&#45;&gt;Class2</title>
<path fill="none" stroke="orange" stroke-dasharray="1,5" d="M2782.63,-1960.17C2782.63,-1960.17 2782.63,-1960.94 2782.63,-1960.94"/>
<polygon fill="orange" stroke="orange" points="2779.13,-1957.8 2782.63,-1967.8 2786.13,-1957.8 2779.13,-1957.8"/>
</g>
<!-- State&#45;&gt;Class3 -->
<g id="edge41" class="edge"><title>State&#45;&gt;Class3</title>
<path fill="none" stroke="orange" stroke-dasharray="1,5" d="M2733.46,-1959.99C2733.46,-2096.9 2733.46,-2366 2733.46,-2366 2733.46,-2366 3366.18,-2366 3366.18,-2366 3366.18,-2366 3366.18,-1900.27 3366.18,-1900.27"/>
<polygon fill="orange" stroke="orange" points="3369.68,-1900.27 3366.18,-1890.27 3362.68,-1900.27 3369.68,-1900.27"/>
</g>
<!-- State&#45;&gt;GameEngine -->
<g id="edge45" class="edge"><title>State&#45;&gt;GameEngine</title>
<path fill="none" stroke="orange" stroke-dasharray="1,5" d="M2730.79,-1960.03C2730.79,-2128.49 2730.79,-2511 2730.79,-2511 2730.79,-2511 1604.34,-2511 1604.34,-2511 1604.34,-2511 1604.34,-2045.95 1604.34,-2045.95"/>
<polygon fill="orange" stroke="orange" points="1607.84,-2045.95 1604.34,-2035.95 1600.84,-2045.95 1607.84,-2045.95"/>
</g>
<!-- CocoImage -->
<g id="node32" class="node"><title>CocoImage</title>
<polygon fill="none" stroke="black" stroke-width="0" points="2866.12,-1391.95 2597.12,-1391.95 2597.12,-1031.95 2866.12,-1031.95 2866.12,-1391.95"/>
<image xlink:href="PNG\CocoImage.png" width="269px" height="360px" preserveAspectRatio="xMinYMin meet" x="2597.12" y="-1391.95"/>
</g>
<!-- CocoImage&#45;&gt;NewAnimation -->
<g id="edge46" class="edge"><title>CocoImage&#45;&gt;NewAnimation</title>
<path fill="none" stroke="orange" stroke-dasharray="1,5" d="M2596.89,-1101C2596.89,-1101 1642.77,-1101 1642.77,-1101"/>
<polygon fill="orange" stroke="orange" points="1642.77,-1097.5 1632.77,-1101 1642.77,-1104.5 1642.77,-1097.5"/>
</g>
<!-- CocoClip -->
<g id="node33" class="node"><title>CocoClip</title>
<polygon fill="none" stroke="black" stroke-width="0" points="2072,-1909.73 1006,-1909.73 1006,-1141.73 2072,-1141.73 2072,-1909.73"/>
<image xlink:href="PNG\CocoClip.png" width="1066px" height="768px" preserveAspectRatio="xMinYMin meet" x="1006" y="-1909.73"/>
</g>
<!-- CocoClip&#45;&gt;NewAnimation -->
<g id="edge47" class="edge"><title>CocoClip&#45;&gt;NewAnimation</title>
<path fill="none" stroke="orange" stroke-dasharray="1,5" d="M1545.19,-1141.61C1545.19,-1141.61 1545.19,-1140.85 1545.19,-1140.85"/>
<polygon fill="orange" stroke="orange" points="1548.69,-1143.97 1545.19,-1133.97 1541.69,-1143.97 1548.69,-1143.97"/>
</g>
<!-- CocoImageSibling -->
<g id="node34" class="node"><title>CocoImageSibling</title>
<polygon fill="none" stroke="black" stroke-width="0" points="1509,-244.731 1378,-244.731 1378,-113.731 1509,-113.731 1509,-244.731"/>
<image xlink:href="PNG\CocoImageSibling.png" width="131px" height="131px" preserveAspectRatio="xMinYMin meet" x="1378" y="-244.731"/>
</g>
<!-- CocoImageSibling&#45;&gt;NewAnimation -->
<g id="edge48" class="edge"><title>CocoImageSibling&#45;&gt;NewAnimation</title>
<path fill="none" stroke="orange" stroke-dasharray="1,5" d="M1509.31,-179C1740.57,-179 2502.03,-179 2502.03,-179 2502.03,-179 2502.03,-1069 2502.03,-1069 2502.03,-1069 1642.77,-1069 1642.77,-1069"/>
<polygon fill="orange" stroke="orange" points="1642.77,-1065.5 1632.77,-1069 1642.77,-1072.5 1642.77,-1065.5"/>
</g>
<!-- CocoSequence -->
<g id="node35" class="node"><title>CocoSequence</title>
<polygon fill="none" stroke="black" stroke-width="0" points="1648.01,-1045.73 1517.01,-1045.73 1517.01,-914.731 1648.01,-914.731 1648.01,-1045.73"/>
<image xlink:href="PNG\CocoSequence.png" width="131px" height="131px" preserveAspectRatio="xMinYMin meet" x="1517.01" y="-1045.73"/>
</g>
<!-- CocoSequence&#45;&gt;NewAnimation -->
<g id="edge49" class="edge"><title>CocoSequence&#45;&gt;NewAnimation</title>
<path fill="none" stroke="orange" stroke-dasharray="1,5" d="M1574.76,-1045.93C1574.76,-1045.93 1574.76,-1046.68 1574.76,-1046.68"/>
<polygon fill="orange" stroke="orange" points="1571.26,-1043.48 1574.76,-1053.48 1578.26,-1043.48 1571.26,-1043.48"/>
</g>
<!-- CocoTimeline -->
<g id="node36" class="node"><title>CocoTimeline</title>
<polygon fill="none" stroke="black" stroke-width="0" points="2458.5,-663.731 818.499,-663.731 818.499,-252.731 2458.5,-252.731 2458.5,-663.731"/>
<image xlink:href="PNG\CocoTimeline.png" width="1640px" height="411px" preserveAspectRatio="xMinYMin meet" x="818.499" y="-663.731"/>
</g>
<!-- CocoTimeline&#45;&gt;NewAnimation -->
<g id="edge50" class="edge"><title>CocoTimeline&#45;&gt;NewAnimation</title>
<path fill="none" stroke="orange" stroke-dasharray="1,5" d="M1509.26,-664.121C1509.26,-664.121 1509.26,-1043.61 1509.26,-1043.61"/>
<polygon fill="orange" stroke="orange" points="1505.76,-1043.61 1509.26,-1053.61 1512.76,-1043.61 1505.76,-1043.61"/>
</g>
<!-- CocoKeyFrame -->
<g id="node37" class="node"><title>CocoKeyFrame</title>
<polygon fill="none" stroke="black" stroke-width="0" points="1369.97,-1133.73 1090.97,-1133.73 1090.97,-671.731 1369.97,-671.731 1369.97,-1133.73"/>
<image xlink:href="PNG\CocoKeyFrame.png" width="279px" height="462px" preserveAspectRatio="xMinYMin meet" x="1090.97" y="-1133.73"/>
</g>
<!-- CocoKeyFrame&#45;&gt;NewAnimation -->
<g id="edge51" class="edge"><title>CocoKeyFrame&#45;&gt;NewAnimation</title>
<path fill="none" stroke="orange" stroke-dasharray="1,5" d="M1370.28,-1093C1370.28,-1093 1491.1,-1093 1491.1,-1093"/>
<polygon fill="orange" stroke="orange" points="1491.1,-1096.5 1501.1,-1093 1491.1,-1089.5 1491.1,-1096.5"/>
</g>
<!-- COCO_KEYFRAME_INTERPOLATION_ENUM -->
<g id="node38" class="node"><title>COCO_KEYFRAME_INTERPOLATION_ENUM</title>
<polygon fill="none" stroke="black" stroke-width="0" points="1687.44,-105.731 1476.44,-105.731 1476.44,0.268661 1687.44,0.268661 1687.44,-105.731"/>
<image xlink:href="PNG\COCO_KEYFRAME_INTERPOLATION_ENUM.png" width="211px" height="106px" preserveAspectRatio="xMinYMin meet" x="1476.44" y="-105.731"/>
</g>
<!-- COCO_KEYFRAME_INTERPOLATION_ENUM&#45;&gt;NewAnimation -->
<g id="edge52" class="edge"><title>COCO_KEYFRAME_INTERPOLATION_ENUM&#45;&gt;NewAnimation</title>
<path fill="none" stroke="orange" stroke-dasharray="1,5" d="M1687.82,-52C1938.14,-52 2545.55,-52 2545.55,-52 2545.55,-52 2545.55,-1085 2545.55,-1085 2545.55,-1085 1642.74,-1085 1642.74,-1085"/>
<polygon fill="orange" stroke="orange" points="1642.74,-1081.5 1632.74,-1085 1642.74,-1088.5 1642.74,-1081.5"/>
</g>
</g>
</svg>
