<?xml version="1.0" encoding="UTF-8" standalone="no"?>
<!DOCTYPE svg PUBLIC "-//W3C//DTD SVG 1.1//EN"
 "http://www.w3.org/Graphics/SVG/1.1/DTD/svg11.dtd">
<!-- Generated by graphviz version 2.38.0 (20140413.2041)
 -->
<!-- Title: G Pages: 1 -->
<svg width="1828pt" height="476pt"
 viewBox="0.00 0.00 1828.00 476.00" xmlns="http://www.w3.org/2000/svg" xmlns:xlink="http://www.w3.org/1999/xlink">
<g id="graph0" class="graph" transform="scale(1 1) rotate(0) translate(4 472)">
<title>G</title>
<polygon fill="white" stroke="none" points="-4,4 -4,-472 1824,-472 1824,4 -4,4"/>
<!-- CanvasRenderingContext2D -->
<g id="node1" class="node"><title>CanvasRenderingContext2D</title>
<polygon fill="none" stroke="black" stroke-width="0" points="1028,-324 974,-324 974,-288 1028,-288 1028,-324"/>
</g>
<!-- HTMLCanvasContext -->
<g id="node2" class="node"><title>HTMLCanvasContext</title>
<polygon fill="none" stroke="black" stroke-width="0" points="1028,-252 974,-252 974,-216 1028,-216 1028,-252"/>
</g>
<!-- CanvasRenderingContext2D&#45;&gt;HTMLCanvasContext -->
<g id="edge1" class="edge"><title>CanvasRenderingContext2D&#45;&gt;HTMLCanvasContext</title>
<path fill="none" stroke="black" stroke-width="2" d="M1001,-287.831C1001,-287.831 1001,-262.413 1001,-262.413"/>
<polygon fill="black" stroke="black" stroke-width="2" points="1004.5,-262.413 1001,-252.413 997.5,-262.413 1004.5,-262.413"/>
</g>
<!-- WebGLActiveInfo -->
<g id="node3" class="node"><title>WebGLActiveInfo</title>
<polygon fill="none" stroke="black" stroke-width="0" points="126,-396 72,-396 72,-360 126,-360 126,-396"/>
</g>
<!-- WebGLObject -->
<g id="node4" class="node"><title>WebGLObject</title>
<polygon fill="none" stroke="black" stroke-width="0" points="378,-324 324,-324 324,-288 378,-288 378,-324"/>
</g>
<!-- WebGLActiveInfo&#45;&gt;WebGLObject -->
<g id="edge2" class="edge"><title>WebGLActiveInfo&#45;&gt;WebGLObject</title>
<path fill="none" stroke="black" stroke-width="2" d="M90,-359.949C90,-345.627 90,-328 90,-328 90,-328 329.143,-328 329.143,-328 329.143,-328 329.143,-327.617 329.143,-327.617"/>
<polygon fill="black" stroke="black" stroke-width="2" points="332.643,-334.168 329.143,-324.168 325.643,-334.168 332.643,-334.168"/>
</g>
<!-- WebGLRenderingContext -->
<g id="node10" class="node"><title>WebGLRenderingContext</title>
<polygon fill="none" stroke="black" stroke-width="0" points="594,-324 540,-324 540,-288 594,-288 594,-324"/>
</g>
<!-- WebGLActiveInfo&#45;&gt;WebGLRenderingContext -->
<g id="edge35" class="edge"><title>WebGLActiveInfo&#45;&gt;WebGLRenderingContext</title>
<path fill="none" stroke="orange" stroke-dasharray="1,5" d="M108,-359.944C108,-348.561 108,-336 108,-336 108,-336 542.25,-336 542.25,-336 542.25,-336 542.25,-334.143 542.25,-334.143"/>
<polygon fill="orange" stroke="orange" points="545.75,-334.143 542.25,-324.143 538.75,-334.143 545.75,-334.143"/>
</g>
<!-- WebGLBuffer -->
<g id="node5" class="node"><title>WebGLBuffer</title>
<polygon fill="none" stroke="black" stroke-width="0" points="198,-396 144,-396 144,-360 198,-360 198,-396"/>
</g>
<!-- WebGLBuffer&#45;&gt;WebGLObject -->
<g id="edge3" class="edge"><title>WebGLBuffer&#45;&gt;WebGLObject</title>
<path fill="none" stroke="black" stroke-width="2" d="M162,-359.963C162,-346.709 162,-331 162,-331 162,-331 331.714,-331 331.714,-331 331.714,-331 331.714,-330.317 331.714,-330.317"/>
<polygon fill="black" stroke="black" stroke-width="2" points="335.214,-334.169 331.714,-324.169 328.214,-334.169 335.214,-334.169"/>
</g>
<!-- WebGLBuffer&#45;&gt;WebGLRenderingContext -->
<g id="edge31" class="edge"><title>WebGLBuffer&#45;&gt;WebGLRenderingContext</title>
<path fill="none" stroke="orange" stroke-dasharray="1,5" d="M180,-359.873C180,-349.289 180,-338 180,-338 180,-338 544.5,-338 544.5,-338 544.5,-338 544.5,-334.243 544.5,-334.243"/>
<polygon fill="orange" stroke="orange" points="548,-334.243 544.5,-324.243 541,-334.243 548,-334.243"/>
</g>
<!-- WebGLContextAttributes -->
<g id="node6" class="node"><title>WebGLContextAttributes</title>
<polygon fill="none" stroke="black" stroke-width="0" points="270,-396 216,-396 216,-360 270,-360 270,-396"/>
</g>
<!-- WebGLContextAttributes&#45;&gt;WebGLObject -->
<g id="edge4" class="edge"><title>WebGLContextAttributes&#45;&gt;WebGLObject</title>
<path fill="none" stroke="black" stroke-width="2" d="M258,-359.956C258,-347.437 258,-333 258,-333 258,-333 334.286,-333 334.286,-333 334.286,-333 334.286,-332.116 334.286,-332.116"/>
<polygon fill="black" stroke="black" stroke-width="2" points="337.786,-334.159 334.286,-324.159 330.786,-334.159 337.786,-334.159"/>
</g>
<!-- WebGLContextAttributes&#45;&gt;WebGLRenderingContext -->
<g id="edge36" class="edge"><title>WebGLContextAttributes&#45;&gt;WebGLRenderingContext</title>
<path fill="none" stroke="orange" stroke-dasharray="1,5" d="M264,-359.89C264,-350.103 264,-340 264,-340 264,-340 546.75,-340 546.75,-340 546.75,-340 546.75,-334.194 546.75,-334.194"/>
<polygon fill="orange" stroke="orange" points="550.25,-334.194 546.75,-324.194 543.25,-334.194 550.25,-334.194"/>
</g>
<!-- WebGLFramebuffer -->
<g id="node7" class="node"><title>WebGLFramebuffer</title>
<polygon fill="none" stroke="black" stroke-width="0" points="342,-396 288,-396 288,-360 342,-360 342,-396"/>
</g>
<!-- WebGLFramebuffer&#45;&gt;WebGLObject -->
<g id="edge5" class="edge"><title>WebGLFramebuffer&#45;&gt;WebGLObject</title>
<path fill="none" stroke="black" stroke-width="2" d="M336.857,-359.831C336.857,-359.831 336.857,-334.413 336.857,-334.413"/>
<polygon fill="black" stroke="black" stroke-width="2" points="340.357,-334.413 336.857,-324.413 333.357,-334.413 340.357,-334.413"/>
</g>
<!-- WebGLFramebuffer&#45;&gt;WebGLRenderingContext -->
<g id="edge32" class="edge"><title>WebGLFramebuffer&#45;&gt;WebGLRenderingContext</title>
<path fill="none" stroke="orange" stroke-dasharray="1,5" d="M339.429,-359.68C339.429,-351.212 339.429,-343 339.429,-343 339.429,-343 549,-343 549,-343 549,-343 549,-334.066 549,-334.066"/>
<polygon fill="orange" stroke="orange" points="552.5,-334.066 549,-324.066 545.5,-334.066 552.5,-334.066"/>
</g>
<!-- WebGLProgram -->
<g id="node8" class="node"><title>WebGLProgram</title>
<polygon fill="none" stroke="black" stroke-width="0" points="414,-396 360,-396 360,-360 414,-360 414,-396"/>
</g>
<!-- WebGLProgram&#45;&gt;WebGLObject -->
<g id="edge6" class="edge"><title>WebGLProgram&#45;&gt;WebGLObject</title>
<path fill="none" stroke="black" stroke-width="2" d="M364.5,-359.831C364.5,-359.831 364.5,-334.413 364.5,-334.413"/>
<polygon fill="black" stroke="black" stroke-width="2" points="368,-334.413 364.5,-324.413 361,-334.413 368,-334.413"/>
</g>
<!-- WebGLProgram&#45;&gt;WebGLRenderingContext -->
<g id="edge29" class="edge"><title>WebGLProgram&#45;&gt;WebGLRenderingContext</title>
<path fill="none" stroke="orange" stroke-dasharray="1,5" d="M396,-359.955C396,-352.251 396,-345 396,-345 396,-345 551.25,-345 551.25,-345 551.25,-345 551.25,-334.13 551.25,-334.13"/>
<polygon fill="orange" stroke="orange" points="554.75,-334.13 551.25,-324.13 547.75,-334.13 554.75,-334.13"/>
</g>
<!-- WebGLRenderbuffer -->
<g id="node9" class="node"><title>WebGLRenderbuffer</title>
<polygon fill="none" stroke="black" stroke-width="0" points="486,-396 432,-396 432,-360 486,-360 486,-396"/>
</g>
<!-- WebGLRenderbuffer&#45;&gt;WebGLObject -->
<g id="edge7" class="edge"><title>WebGLRenderbuffer&#45;&gt;WebGLObject</title>
<path fill="none" stroke="black" stroke-width="2" d="M450,-359.831C450,-338.502 450,-306 450,-306 450,-306 388.052,-306 388.052,-306"/>
<polygon fill="black" stroke="black" stroke-width="2" points="388.052,-302.5 378.052,-306 388.052,-309.5 388.052,-302.5"/>
</g>
<!-- WebGLRenderbuffer&#45;&gt;WebGLRenderingContext -->
<g id="edge33" class="edge"><title>WebGLRenderbuffer&#45;&gt;WebGLRenderingContext</title>
<path fill="none" stroke="orange" stroke-dasharray="1,5" d="M477,-359.857C477,-353.539 477,-348 477,-348 477,-348 553.5,-348 553.5,-348 553.5,-348 553.5,-334.056 553.5,-334.056"/>
<polygon fill="orange" stroke="orange" points="557,-334.055 553.5,-324.056 550,-334.056 557,-334.055"/>
</g>
<!-- WebGLRenderingContext&#45;&gt;HTMLCanvasContext -->
<g id="edge8" class="edge"><title>WebGLRenderingContext&#45;&gt;HTMLCanvasContext</title>
<path fill="none" stroke="black" stroke-width="2" d="M594.077,-295C683.769,-295 965.5,-295 965.5,-295 965.5,-295 965.5,-234 965.5,-234 965.5,-234 966.323,-234 966.323,-234"/>
<polygon fill="black" stroke="black" stroke-width="2" points="963.734,-237.5 973.734,-234 963.734,-230.5 963.734,-237.5"/>
</g>
<!-- GameEngine -->
<g id="node18" class="node"><title>GameEngine</title>
<polygon fill="none" stroke="black" stroke-width="0" points="956,-252 902,-252 902,-216 956,-216 956,-252"/>
</g>
<!-- WebGLRenderingContext&#45;&gt;GameEngine -->
<g id="edge48" class="edge"><title>WebGLRenderingContext&#45;&gt;GameEngine</title>
<path fill="none" stroke="orange" stroke-dasharray="1,5" d="M594.113,-291C676.773,-291 920,-291 920,-291 920,-291 920,-262.035 920,-262.035"/>
<polygon fill="orange" stroke="orange" points="923.5,-262.035 920,-252.035 916.5,-262.035 923.5,-262.035"/>
</g>
<!-- WebGLShader -->
<g id="node11" class="node"><title>WebGLShader</title>
<polygon fill="none" stroke="black" stroke-width="0" points="558,-396 504,-396 504,-360 558,-360 558,-396"/>
</g>
<!-- WebGLShader&#45;&gt;WebGLObject -->
<g id="edge9" class="edge"><title>WebGLShader&#45;&gt;WebGLObject</title>
<path fill="none" stroke="black" stroke-width="2" d="M513,-359.942C513,-355.505 513,-352 513,-352 513,-352 369,-352 369,-352 369,-352 369,-334.18 369,-334.18"/>
<polygon fill="black" stroke="black" stroke-width="2" points="372.5,-334.18 369,-324.18 365.5,-334.18 372.5,-334.18"/>
</g>
<!-- WebGLShader&#45;&gt;WebGLRenderingContext -->
<g id="edge30" class="edge"><title>WebGLShader&#45;&gt;WebGLRenderingContext</title>
<path fill="none" stroke="orange" stroke-dasharray="1,5" d="M555.75,-359.831C555.75,-359.831 555.75,-334.413 555.75,-334.413"/>
<polygon fill="orange" stroke="orange" points="559.25,-334.413 555.75,-324.413 552.25,-334.413 559.25,-334.413"/>
</g>
<!-- WebGLShaderPrecisionFormat -->
<g id="node12" class="node"><title>WebGLShaderPrecisionFormat</title>
<polygon fill="none" stroke="black" stroke-width="0" points="630,-396 576,-396 576,-360 630,-360 630,-396"/>
</g>
<!-- WebGLShaderPrecisionFormat&#45;&gt;WebGLObject -->
<g id="edge10" class="edge"><title>WebGLShaderPrecisionFormat&#45;&gt;WebGLObject</title>
<path fill="none" stroke="black" stroke-width="2" d="M582,-359.793C582,-354.445 582,-350 582,-350 582,-350 373.5,-350 373.5,-350 373.5,-350 373.5,-334.151 373.5,-334.151"/>
<polygon fill="black" stroke="black" stroke-width="2" points="377,-334.15 373.5,-324.151 370,-334.151 377,-334.15"/>
</g>
<!-- WebGLShaderPrecisionFormat&#45;&gt;WebGLRenderingContext -->
<g id="edge37" class="edge"><title>WebGLShaderPrecisionFormat&#45;&gt;WebGLRenderingContext</title>
<path fill="none" stroke="orange" stroke-dasharray="1,5" d="M588,-359.831C588,-359.831 588,-334.413 588,-334.413"/>
<polygon fill="orange" stroke="orange" points="591.5,-334.413 588,-324.413 584.5,-334.413 591.5,-334.413"/>
</g>
<!-- WebGLTexture -->
<g id="node13" class="node"><title>WebGLTexture</title>
<polygon fill="none" stroke="black" stroke-width="0" points="54,-396 0,-396 0,-360 54,-360 54,-396"/>
</g>
<!-- WebGLTexture&#45;&gt;WebGLObject -->
<g id="edge11" class="edge"><title>WebGLTexture&#45;&gt;WebGLObject</title>
<path fill="none" stroke="black" stroke-width="2" d="M18,-359.813C18,-344.818 18,-326 18,-326 18,-326 326.571,-326 326.571,-326 326.571,-326 326.571,-325.815 326.571,-325.815"/>
<polygon fill="black" stroke="black" stroke-width="2" points="330.072,-334.154 326.571,-324.154 323.072,-334.155 330.072,-334.154"/>
</g>
<!-- WebGLTexture&#45;&gt;WebGLRenderingContext -->
<g id="edge34" class="edge"><title>WebGLTexture&#45;&gt;WebGLRenderingContext</title>
<path fill="none" stroke="orange" stroke-dasharray="1,5" d="M36,-359.92C36,-358.154 36,-357 36,-357 36,-357 564,-357 564,-357 564,-357 564,-334.124 564,-334.124"/>
<polygon fill="orange" stroke="orange" points="567.5,-334.124 564,-324.124 560.5,-334.124 567.5,-334.124"/>
</g>
<!-- WebGLUniformLocation -->
<g id="node14" class="node"><title>WebGLUniformLocation</title>
<polygon fill="none" stroke="black" stroke-width="0" points="414,-468 360,-468 360,-432 414,-432 414,-468"/>
</g>
<!-- WebGLUniformLocation&#45;&gt;WebGLObject -->
<g id="edge12" class="edge"><title>WebGLUniformLocation&#45;&gt;WebGLObject</title>
<path fill="none" stroke="black" stroke-width="2" d="M359.715,-450C354.694,-450 351,-450 351,-450 351,-450 351,-334.238 351,-334.238"/>
<polygon fill="black" stroke="black" stroke-width="2" points="354.5,-334.238 351,-324.238 347.5,-334.238 354.5,-334.238"/>
</g>
<!-- WebGLUniformLocation&#45;&gt;WebGLProgram -->
<g id="edge27" class="edge"><title>WebGLUniformLocation&#45;&gt;WebGLProgram</title>
<path fill="none" stroke="orange" stroke-dasharray="1,5" d="M387,-431.831C387,-431.831 387,-406.413 387,-406.413"/>
<polygon fill="orange" stroke="orange" points="390.5,-406.413 387,-396.413 383.5,-406.413 390.5,-406.413"/>
</g>
<!-- WebGLUniformLocation&#45;&gt;WebGLRenderingContext -->
<g id="edge38" class="edge"><title>WebGLUniformLocation&#45;&gt;WebGLRenderingContext</title>
<path fill="none" stroke="orange" stroke-dasharray="1,5" d="M414.002,-450C464.907,-450 570,-450 570,-450 570,-450 570,-334.238 570,-334.238"/>
<polygon fill="orange" stroke="orange" points="573.5,-334.238 570,-324.238 566.5,-334.238 573.5,-334.238"/>
</g>
<!-- Class2 -->
<g id="node15" class="node"><title>Class2</title>
<polygon fill="none" stroke="black" stroke-width="0" points="307,-180 253,-180 253,-144 307,-144 307,-180"/>
</g>
<!-- Class1 -->
<g id="node16" class="node"><title>Class1</title>
<polygon fill="none" stroke="black" stroke-width="0" points="307,-108 253,-108 253,-72 307,-72 307,-108"/>
</g>
<!-- Class2&#45;&gt;Class1 -->
<g id="edge13" class="edge"><title>Class2&#45;&gt;Class1</title>
<path fill="none" stroke="black" stroke-width="2" d="M280,-143.831C280,-143.831 280,-118.413 280,-118.413"/>
<polygon fill="black" stroke="black" stroke-width="2" points="283.5,-118.413 280,-108.413 276.5,-118.413 283.5,-118.413"/>
</g>
<!-- Class3 -->
<g id="node17" class="node"><title>Class3</title>
<polygon fill="none" stroke="black" stroke-width="0" points="334,-252 280,-252 280,-216 334,-216 334,-252"/>
</g>
<!-- Class3&#45;&gt;Class2 -->
<g id="edge14" class="edge"><title>Class3&#45;&gt;Class2</title>
<path fill="none" stroke="black" stroke-width="2" d="M293.5,-215.831C293.5,-215.831 293.5,-190.413 293.5,-190.413"/>
<polygon fill="black" stroke="black" stroke-width="2" points="297,-190.413 293.5,-180.413 290,-190.413 297,-190.413"/>
</g>
<!-- CocoEngine -->
<g id="node19" class="node"><title>CocoEngine</title>
<polygon fill="none" stroke="black" stroke-width="0" points="1193,-180 1139,-180 1139,-144 1193,-144 1193,-180"/>
</g>
<!-- GameEngine&#45;&gt;CocoEngine -->
<g id="edge15" class="edge"><title>GameEngine&#45;&gt;CocoEngine</title>
<path fill="none" stroke="black" stroke-width="2" d="M929,-215.578C929,-206.721 929,-198 929,-198 929,-198 1155.5,-198 1155.5,-198 1155.5,-198 1155.5,-190.422 1155.5,-190.422"/>
<polygon fill="black" stroke="black" stroke-width="2" points="1159,-190.422 1155.5,-180.422 1152,-190.422 1159,-190.422"/>
</g>
<!-- SceneGameBoard -->
<g id="node20" class="node"><title>SceneGameBoard</title>
<polygon fill="none" stroke="black" stroke-width="0" points="1138,-108 1084,-108 1084,-72 1138,-72 1138,-108"/>
</g>
<!-- GameEngine&#45;&gt;SceneGameBoard -->
<g id="edge59" class="edge"><title>GameEngine&#45;&gt;SceneGameBoard</title>
<path fill="none" stroke="orange" stroke-dasharray="1,5" d="M942.5,-205.906C942.5,-205.906 942.5,-84 942.5,-84 942.5,-84 1073.93,-84 1073.93,-84"/>
<polygon fill="orange" stroke="orange" points="939,-205.906 942.5,-215.906 946,-205.907 939,-205.906"/>
<polygon fill="orange" stroke="orange" points="1073.93,-87.5001 1083.93,-84 1073.93,-80.5001 1073.93,-87.5001"/>
</g>
<!-- CocoEngine&#45;&gt;SceneGameBoard -->
<g id="edge60" class="edge"><title>CocoEngine&#45;&gt;SceneGameBoard</title>
<path fill="none" stroke="orange" stroke-dasharray="1,5" d="M1138.69,-168C1134.39,-168 1131.33,-168 1131.33,-168 1131.33,-168 1131.33,-118.091 1131.33,-118.091"/>
<polygon fill="orange" stroke="orange" points="1134.83,-118.091 1131.33,-108.091 1127.83,-118.091 1134.83,-118.091"/>
</g>
<!-- CocoScene -->
<g id="node21" class="node"><title>CocoScene</title>
<polygon fill="none" stroke="black" stroke-width="0" points="1138,-36 1084,-36 1084,-0 1138,-0 1138,-36"/>
</g>
<!-- SceneGameBoard&#45;&gt;CocoScene -->
<g id="edge16" class="edge"><title>SceneGameBoard&#45;&gt;CocoScene</title>
<path fill="none" stroke="black" stroke-width="2" d="M1111,-71.8314C1111,-71.8314 1111,-46.4133 1111,-46.4133"/>
<polygon fill="black" stroke="black" stroke-width="2" points="1114.5,-46.4132 1111,-36.4133 1107.5,-46.4133 1114.5,-46.4132"/>
</g>
<!-- CocoScene&#45;&gt;GameEngine -->
<g id="edge43" class="edge"><title>CocoScene&#45;&gt;GameEngine</title>
<path fill="none" stroke="orange" stroke-dasharray="1,5" d="M1083.82,-18C1030.1,-18 915.5,-18 915.5,-18 915.5,-18 915.5,-205.955 915.5,-205.955"/>
<polygon fill="orange" stroke="orange" points="912,-205.955 915.5,-215.955 919,-205.956 912,-205.955"/>
</g>
<!-- SceneTitle -->
<g id="node22" class="node"><title>SceneTitle</title>
<polygon fill="none" stroke="black" stroke-width="0" points="1587,-324 1533,-324 1533,-288 1587,-288 1587,-324"/>
</g>
<!-- SceneTitle&#45;&gt;GameEngine -->
<g id="edge46" class="edge"><title>SceneTitle&#45;&gt;GameEngine</title>
<path fill="none" stroke="orange" stroke-dasharray="1,5" d="M1551,-287.956C1551,-275.437 1551,-261 1551,-261 1551,-261 938,-261 938,-261 938,-261 938,-260.116 938,-260.116"/>
<polygon fill="orange" stroke="orange" points="941.5,-262.159 938,-252.159 934.5,-262.159 941.5,-262.159"/>
</g>
<!-- SceneTitle&#45;&gt;CocoScene -->
<g id="edge17" class="edge"><title>SceneTitle&#45;&gt;CocoScene</title>
<path fill="none" stroke="black" stroke-width="2" d="M1569,-287.984C1569,-224.934 1569,-18 1569,-18 1569,-18 1148.28,-18 1148.28,-18"/>
<polygon fill="black" stroke="black" stroke-width="2" points="1148.28,-14.5001 1138.28,-18 1148.28,-21.5001 1148.28,-14.5001"/>
</g>
<!-- PathLine -->
<g id="node23" class="node"><title>PathLine</title>
<polygon fill="none" stroke="black" stroke-width="0" points="956,-396 902,-396 902,-360 956,-360 956,-396"/>
</g>
<!-- PathLine&#45;&gt;CanvasRenderingContext2D -->
<g id="edge18" class="edge"><title>PathLine&#45;&gt;CanvasRenderingContext2D</title>
<path fill="none" stroke="orange" stroke-dasharray="1,5" d="M947,-359.871C947,-339.428 947,-309 947,-309 947,-309 963.684,-309 963.684,-309"/>
<polygon fill="orange" stroke="orange" points="963.684,-312.5 973.684,-309 963.684,-305.5 963.684,-312.5"/>
</g>
<!-- ImageData -->
<g id="node24" class="node"><title>ImageData</title>
<polygon fill="none" stroke="black" stroke-width="0" points="884,-396 830,-396 830,-360 884,-360 884,-396"/>
</g>
<!-- ImageData&#45;&gt;CanvasRenderingContext2D -->
<g id="edge19" class="edge"><title>ImageData&#45;&gt;CanvasRenderingContext2D</title>
<path fill="none" stroke="orange" stroke-dasharray="1,5" d="M866,-359.831C866,-338.502 866,-306 866,-306 866,-306 963.681,-306 963.681,-306"/>
<polygon fill="orange" stroke="orange" points="963.681,-309.5 973.681,-306 963.681,-302.5 963.681,-309.5"/>
</g>
<!-- ImageData&#45;&gt;WebGLRenderingContext -->
<g id="edge40" class="edge"><title>ImageData&#45;&gt;WebGLRenderingContext</title>
<path fill="none" stroke="orange" stroke-dasharray="1,5" d="M848,-359.894C848,-340.661 848,-313 848,-313 848,-313 604.199,-313 604.199,-313"/>
<polygon fill="orange" stroke="orange" points="604.199,-309.5 594.199,-313 604.199,-316.5 604.199,-309.5"/>
</g>
<!-- HTMLCanvasGradient -->
<g id="node25" class="node"><title>HTMLCanvasGradient</title>
<polygon fill="none" stroke="black" stroke-width="0" points="1028,-396 974,-396 974,-360 1028,-360 1028,-396"/>
</g>
<!-- HTMLCanvasGradient&#45;&gt;CanvasRenderingContext2D -->
<g id="edge20" class="edge"><title>HTMLCanvasGradient&#45;&gt;CanvasRenderingContext2D</title>
<path fill="none" stroke="orange" stroke-dasharray="1,5" d="M1001,-359.831C1001,-359.831 1001,-334.413 1001,-334.413"/>
<polygon fill="orange" stroke="orange" points="1004.5,-334.413 1001,-324.413 997.5,-334.413 1004.5,-334.413"/>
</g>
<!-- HTMLCanvasPattern -->
<g id="node26" class="node"><title>HTMLCanvasPattern</title>
<polygon fill="none" stroke="black" stroke-width="0" points="1100,-396 1046,-396 1046,-360 1100,-360 1100,-396"/>
</g>
<!-- HTMLCanvasPattern&#45;&gt;CanvasRenderingContext2D -->
<g id="edge21" class="edge"><title>HTMLCanvasPattern&#45;&gt;CanvasRenderingContext2D</title>
<path fill="none" stroke="orange" stroke-dasharray="1,5" d="M1064.5,-359.973C1064.5,-339.233 1064.5,-308 1064.5,-308 1064.5,-308 1038.3,-308 1038.3,-308"/>
<polygon fill="orange" stroke="orange" points="1038.3,-304.5 1028.3,-308 1038.3,-311.5 1038.3,-304.5"/>
</g>
<!-- Image -->
<g id="node27" class="node"><title>Image</title>
<polygon fill="none" stroke="black" stroke-width="0" points="812,-396 758,-396 758,-360 812,-360 812,-396"/>
</g>
<!-- Image&#45;&gt;CanvasRenderingContext2D -->
<g id="edge22" class="edge"><title>Image&#45;&gt;CanvasRenderingContext2D</title>
<path fill="none" stroke="orange" stroke-dasharray="1,5" d="M794,-359.989C794,-337.515 794,-302 794,-302 794,-302 963.938,-302 963.938,-302"/>
<polygon fill="orange" stroke="orange" points="963.938,-305.5 973.938,-302 963.938,-298.5 963.938,-305.5"/>
</g>
<!-- Image&#45;&gt;WebGLRenderingContext -->
<g id="edge39" class="edge"><title>Image&#45;&gt;WebGLRenderingContext</title>
<path fill="none" stroke="orange" stroke-dasharray="1,5" d="M776,-359.733C776,-341.445 776,-316 776,-316 776,-316 604.323,-316 604.323,-316"/>
<polygon fill="orange" stroke="orange" points="604.323,-312.5 594.323,-316 604.323,-319.5 604.323,-312.5"/>
</g>
<!-- HTMLElement -->
<g id="node28" class="node"><title>HTMLElement</title>
<polygon fill="none" stroke="black" stroke-width="0" points="1172,-396 1118,-396 1118,-360 1172,-360 1172,-396"/>
</g>
<!-- HTMLElement&#45;&gt;CanvasRenderingContext2D -->
<g id="edge23" class="edge"><title>HTMLElement&#45;&gt;CanvasRenderingContext2D</title>
<path fill="none" stroke="orange" stroke-dasharray="1,5" d="M1124.67,-359.845C1124.67,-337.648 1124.67,-303 1124.67,-303 1124.67,-303 1038.14,-303 1038.14,-303"/>
<polygon fill="orange" stroke="orange" points="1038.14,-299.5 1028.14,-303 1038.14,-306.5 1038.14,-299.5"/>
</g>
<!-- HTMLTextMetrics -->
<g id="node29" class="node"><title>HTMLTextMetrics</title>
<polygon fill="none" stroke="black" stroke-width="0" points="1244,-396 1190,-396 1190,-360 1244,-360 1244,-396"/>
</g>
<!-- HTMLTextMetrics&#45;&gt;CanvasRenderingContext2D -->
<g id="edge24" class="edge"><title>HTMLTextMetrics&#45;&gt;CanvasRenderingContext2D</title>
<path fill="none" stroke="orange" stroke-dasharray="1,5" d="M1218.5,-359.847C1218.5,-336.243 1218.5,-298 1218.5,-298 1218.5,-298 1038.11,-298 1038.11,-298"/>
<polygon fill="orange" stroke="orange" points="1038.11,-294.5 1028.11,-298 1038.11,-301.5 1038.11,-294.5"/>
</g>
<!-- HTMLCanvasElement -->
<g id="node30" class="node"><title>HTMLCanvasElement</title>
<polygon fill="none" stroke="black" stroke-width="0" points="740,-396 686,-396 686,-360 740,-360 740,-396"/>
</g>
<!-- HTMLCanvasElement&#45;&gt;CanvasRenderingContext2D -->
<g id="edge25" class="edge"><title>HTMLCanvasElement&#45;&gt;CanvasRenderingContext2D</title>
<path fill="none" stroke="orange" stroke-dasharray="1,5" d="M722,-359.847C722,-336.243 722,-298 722,-298 722,-298 963.995,-298 963.995,-298"/>
<polygon fill="orange" stroke="orange" points="963.995,-301.5 973.995,-298 963.995,-294.5 963.995,-301.5"/>
</g>
<!-- HTMLCanvasElement&#45;&gt;WebGLRenderingContext -->
<g id="edge28" class="edge"><title>HTMLCanvasElement&#45;&gt;WebGLRenderingContext</title>
<path fill="none" stroke="orange" stroke-dasharray="1,5" d="M704,-359.966C704,-342.94 704,-320 704,-320 704,-320 604.067,-320 604.067,-320"/>
<polygon fill="orange" stroke="orange" points="604.067,-316.5 594.067,-320 604.067,-323.5 604.067,-316.5"/>
</g>
<!-- HTMLWindow -->
<g id="node31" class="node"><title>HTMLWindow</title>
<polygon fill="none" stroke="black" stroke-width="0" points="1316,-396 1262,-396 1262,-360 1316,-360 1316,-396"/>
</g>
<!-- HTMLWindow&#45;&gt;CanvasRenderingContext2D -->
<g id="edge26" class="edge"><title>HTMLWindow&#45;&gt;CanvasRenderingContext2D</title>
<path fill="none" stroke="orange" stroke-dasharray="1,5" d="M1289,-359.974C1289,-335.023 1289,-293 1289,-293 1289,-293 1038.09,-293 1038.09,-293"/>
<polygon fill="orange" stroke="orange" points="1038.09,-289.5 1028.09,-293 1038.09,-296.5 1038.09,-289.5"/>
</g>
<!-- State -->
<g id="node32" class="node"><title>State</title>
<polygon fill="none" stroke="black" stroke-width="0" points="306,-324 252,-324 252,-288 306,-288 306,-324"/>
</g>
<!-- State&#45;&gt;Class2 -->
<g id="edge41" class="edge"><title>State&#45;&gt;Class2</title>
<path fill="none" stroke="orange" stroke-dasharray="1,5" d="M266.5,-287.762C266.5,-287.762 266.5,-190.09 266.5,-190.09"/>
<polygon fill="orange" stroke="orange" points="270,-190.09 266.5,-180.09 263,-190.09 270,-190.09"/>
</g>
<!-- State&#45;&gt;Class3 -->
<g id="edge42" class="edge"><title>State&#45;&gt;Class3</title>
<path fill="none" stroke="orange" stroke-dasharray="1,5" d="M286.5,-287.831C286.5,-287.831 286.5,-262.413 286.5,-262.413"/>
<polygon fill="orange" stroke="orange" points="290,-262.413 286.5,-252.413 283,-262.413 290,-262.413"/>
</g>
<!-- State&#45;&gt;GameEngine -->
<g id="edge47" class="edge"><title>State&#45;&gt;GameEngine</title>
<path fill="none" stroke="orange" stroke-dasharray="1,5" d="M293,-287.578C293,-278.721 293,-270 293,-270 293,-270 911,-270 911,-270 911,-270 911,-262.422 911,-262.422"/>
<polygon fill="orange" stroke="orange" points="914.5,-262.422 911,-252.422 907.5,-262.422 914.5,-262.422"/>
</g>
<!-- State&#45;&gt;SceneGameBoard -->
<g id="edge61" class="edge"><title>State&#45;&gt;SceneGameBoard</title>
<path fill="none" stroke="orange" stroke-dasharray="1,5" d="M299.5,-287.841C299.5,-282.957 299.5,-279 299.5,-279 299.5,-279 1094.67,-279 1094.67,-279 1094.67,-279 1094.67,-118.122 1094.67,-118.122"/>
<polygon fill="orange" stroke="orange" points="1098.17,-118.122 1094.67,-108.122 1091.17,-118.122 1098.17,-118.122"/>
</g>
<!-- CocoClip -->
<g id="node33" class="node"><title>CocoClip</title>
<polygon fill="none" stroke="black" stroke-width="0" points="1388,-396 1334,-396 1334,-360 1388,-360 1388,-396"/>
</g>
<!-- CocoClip&#45;&gt;GameEngine -->
<g id="edge44" class="edge"><title>CocoClip&#45;&gt;GameEngine</title>
<path fill="none" stroke="orange" stroke-dasharray="1,5" d="M1347.5,-359.878C1347.5,-357.027 1347.5,-355 1347.5,-355 1347.5,-355 929,-355 929,-355 929,-355 929,-262.115 929,-262.115"/>
<polygon fill="orange" stroke="orange" points="932.5,-262.115 929,-252.115 925.5,-262.115 932.5,-262.115"/>
</g>
<!-- CocoClip&#45;&gt;SceneGameBoard -->
<g id="edge51" class="edge"><title>CocoClip&#45;&gt;SceneGameBoard</title>
<path fill="none" stroke="orange" stroke-dasharray="1,5" d="M1361,-359.956C1361,-298.776 1361,-103 1361,-103 1361,-103 1148.23,-103 1148.23,-103"/>
<polygon fill="orange" stroke="orange" points="1148.23,-99.5001 1138.23,-103 1148.23,-106.5 1148.23,-99.5001"/>
</g>
<!-- CocoClip&#45;&gt;SceneTitle -->
<g id="edge63" class="edge"><title>CocoClip&#45;&gt;SceneTitle</title>
<path fill="none" stroke="orange" stroke-dasharray="1,5" d="M1374.5,-359.894C1374.5,-340.661 1374.5,-313 1374.5,-313 1374.5,-313 1522.63,-313 1522.63,-313"/>
<polygon fill="orange" stroke="orange" points="1522.63,-316.5 1532.63,-313 1522.63,-309.5 1522.63,-316.5"/>
</g>
<!-- GridSymbol -->
<g id="node34" class="node"><title>GridSymbol</title>
<polygon fill="none" stroke="black" stroke-width="0" points="522,-324 468,-324 468,-288 522,-288 522,-324"/>
</g>
<!-- GridSymbol&#45;&gt;GameEngine -->
<g id="edge45" class="edge"><title>GridSymbol&#45;&gt;GameEngine</title>
<path fill="none" stroke="orange" stroke-dasharray="1,5" d="M495,-287.831C495,-266.502 495,-234 495,-234 495,-234 891.851,-234 891.851,-234"/>
<polygon fill="orange" stroke="orange" points="891.851,-237.5 901.851,-234 891.851,-230.5 891.851,-237.5"/>
</g>
<!-- CocoImage -->
<g id="node35" class="node"><title>CocoImage</title>
<polygon fill="none" stroke="black" stroke-width="0" points="1532,-396 1478,-396 1478,-360 1532,-360 1532,-396"/>
</g>
<!-- CocoImage&#45;&gt;SceneGameBoard -->
<g id="edge50" class="edge"><title>CocoImage&#45;&gt;SceneGameBoard</title>
<path fill="none" stroke="orange" stroke-dasharray="1,5" d="M1505,-359.802C1505,-297.121 1505,-94 1505,-94 1505,-94 1148.08,-94 1148.08,-94"/>
<polygon fill="orange" stroke="orange" points="1148.08,-90.5001 1138.08,-94 1148.08,-97.5001 1148.08,-90.5001"/>
</g>
<!-- CocoImage&#45;&gt;SceneTitle -->
<g id="edge62" class="edge"><title>CocoImage&#45;&gt;SceneTitle</title>
<path fill="none" stroke="orange" stroke-dasharray="1,5" d="M1532.29,-378C1537.57,-378 1541.5,-378 1541.5,-378 1541.5,-378 1541.5,-334.169 1541.5,-334.169"/>
<polygon fill="orange" stroke="orange" points="1545,-334.169 1541.5,-324.169 1538,-334.169 1545,-334.169"/>
</g>
<!-- CocoImageSibling -->
<g id="node36" class="node"><title>CocoImageSibling</title>
<polygon fill="none" stroke="black" stroke-width="0" points="1460,-396 1406,-396 1406,-360 1460,-360 1460,-396"/>
</g>
<!-- CocoImageSibling&#45;&gt;SceneGameBoard -->
<g id="edge52" class="edge"><title>CocoImageSibling&#45;&gt;SceneGameBoard</title>
<path fill="none" stroke="orange" stroke-dasharray="1,5" d="M1424,-359.694C1424,-297.624 1424,-99 1424,-99 1424,-99 1148.23,-99 1148.23,-99"/>
<polygon fill="orange" stroke="orange" points="1148.23,-95.5001 1138.23,-99 1148.23,-102.5 1148.23,-95.5001"/>
</g>
<!-- CocoImageSibling&#45;&gt;SceneTitle -->
<g id="edge64" class="edge"><title>CocoImageSibling&#45;&gt;SceneTitle</title>
<path fill="none" stroke="orange" stroke-dasharray="1,5" d="M1442,-359.998C1442,-342.325 1442,-318 1442,-318 1442,-318 1522.93,-318 1522.93,-318"/>
<polygon fill="orange" stroke="orange" points="1522.93,-321.5 1532.93,-318 1522.93,-314.5 1522.93,-321.5"/>
</g>
<!-- CocoSequence -->
<g id="node37" class="node"><title>CocoSequence</title>
<polygon fill="none" stroke="black" stroke-width="0" points="1011,-180 957,-180 957,-144 1011,-144 1011,-180"/>
</g>
<!-- CocoSequence&#45;&gt;SceneGameBoard -->
<g id="edge53" class="edge"><title>CocoSequence&#45;&gt;SceneGameBoard</title>
<path fill="none" stroke="orange" stroke-dasharray="1,5" d="M984,-143.965C984,-124.424 984,-96 984,-96 984,-96 1073.76,-96 1073.76,-96"/>
<polygon fill="orange" stroke="orange" points="1073.76,-99.5001 1083.76,-96 1073.76,-92.5001 1073.76,-99.5001"/>
</g>
<!-- CocoTimeline -->
<g id="node38" class="node"><title>CocoTimeline</title>
<polygon fill="none" stroke="black" stroke-width="0" points="1604,-396 1550,-396 1550,-360 1604,-360 1604,-396"/>
</g>
<!-- CocoTimeline&#45;&gt;SceneGameBoard -->
<g id="edge54" class="edge"><title>CocoTimeline&#45;&gt;SceneGameBoard</title>
<path fill="none" stroke="orange" stroke-dasharray="1,5" d="M1595.5,-359.984C1595.5,-296.934 1595.5,-90 1595.5,-90 1595.5,-90 1148.09,-90 1148.09,-90"/>
<polygon fill="orange" stroke="orange" points="1148.09,-86.5001 1138.09,-90 1148.09,-93.5001 1148.09,-86.5001"/>
</g>
<!-- CocoTimeline&#45;&gt;SceneTitle -->
<g id="edge65" class="edge"><title>CocoTimeline&#45;&gt;SceneTitle</title>
<path fill="none" stroke="orange" stroke-dasharray="1,5" d="M1568.5,-359.831C1568.5,-359.831 1568.5,-334.413 1568.5,-334.413"/>
<polygon fill="orange" stroke="orange" points="1572,-334.413 1568.5,-324.413 1565,-334.413 1572,-334.413"/>
</g>
<!-- CocoTimeLabel -->
<g id="node39" class="node"><title>CocoTimeLabel</title>
<polygon fill="none" stroke="black" stroke-width="0" points="1083,-180 1029,-180 1029,-144 1083,-144 1083,-180"/>
</g>
<!-- CocoTimeLabel&#45;&gt;SceneGameBoard -->
<g id="edge55" class="edge"><title>CocoTimeLabel&#45;&gt;SceneGameBoard</title>
<path fill="none" stroke="orange" stroke-dasharray="1,5" d="M1083.22,-156C1086.84,-156 1089.33,-156 1089.33,-156 1089.33,-156 1089.33,-118.035 1089.33,-118.035"/>
<polygon fill="orange" stroke="orange" points="1092.83,-118.035 1089.33,-108.035 1085.83,-118.035 1092.83,-118.035"/>
</g>
<!-- CocoKeyFrame -->
<g id="node40" class="node"><title>CocoKeyFrame</title>
<polygon fill="none" stroke="black" stroke-width="0" points="1676,-396 1622,-396 1622,-360 1676,-360 1676,-396"/>
</g>
<!-- CocoKeyFrame&#45;&gt;SceneGameBoard -->
<g id="edge56" class="edge"><title>CocoKeyFrame&#45;&gt;SceneGameBoard</title>
<path fill="none" stroke="orange" stroke-dasharray="1,5" d="M1658,-359.672C1658,-295.527 1658,-85 1658,-85 1658,-85 1148.13,-85 1148.13,-85"/>
<polygon fill="orange" stroke="orange" points="1148.13,-81.5001 1138.13,-85 1148.13,-88.5001 1148.13,-81.5001"/>
</g>
<!-- CocoKeyFrame&#45;&gt;SceneTitle -->
<g id="edge66" class="edge"><title>CocoKeyFrame&#45;&gt;SceneTitle</title>
<path fill="none" stroke="orange" stroke-dasharray="1,5" d="M1640,-359.778C1640,-341.171 1640,-315 1640,-315 1640,-315 1597.08,-315 1597.08,-315"/>
<polygon fill="orange" stroke="orange" points="1597.08,-311.5 1587.08,-315 1597.08,-318.5 1597.08,-311.5"/>
</g>
<!-- COCO_KEYFRAME_INTERPOLATION_ENUM -->
<g id="node41" class="node"><title>COCO_KEYFRAME_INTERPOLATION_ENUM</title>
<polygon fill="none" stroke="black" stroke-width="0" points="1748,-396 1694,-396 1694,-360 1748,-360 1748,-396"/>
</g>
<!-- COCO_KEYFRAME_INTERPOLATION_ENUM&#45;&gt;SceneGameBoard -->
<g id="edge57" class="edge"><title>COCO_KEYFRAME_INTERPOLATION_ENUM&#45;&gt;SceneGameBoard</title>
<path fill="none" stroke="orange" stroke-dasharray="1,5" d="M1730,-359.868C1730,-295.385 1730,-81 1730,-81 1730,-81 1148.4,-81 1148.4,-81"/>
<polygon fill="orange" stroke="orange" points="1148.4,-77.5001 1138.4,-81 1148.4,-84.5001 1148.4,-77.5001"/>
</g>
<!-- COCO_KEYFRAME_INTERPOLATION_ENUM&#45;&gt;SceneTitle -->
<g id="edge67" class="edge"><title>COCO_KEYFRAME_INTERPOLATION_ENUM&#45;&gt;SceneTitle</title>
<path fill="none" stroke="orange" stroke-dasharray="1,5" d="M1712,-359.831C1712,-338.502 1712,-306 1712,-306 1712,-306 1597.17,-306 1597.17,-306"/>
<polygon fill="orange" stroke="orange" points="1597.17,-302.5 1587.17,-306 1597.17,-309.5 1597.17,-302.5"/>
</g>
<!-- CocoAudio -->
<g id="node42" class="node"><title>CocoAudio</title>
<polygon fill="none" stroke="black" stroke-width="0" points="1820,-396 1766,-396 1766,-360 1820,-360 1820,-396"/>
</g>
<!-- CocoAudio&#45;&gt;SceneGameBoard -->
<g id="edge58" class="edge"><title>CocoAudio&#45;&gt;SceneGameBoard</title>
<path fill="none" stroke="orange" stroke-dasharray="1,5" d="M1802,-359.563C1802,-293.994 1802,-76 1802,-76 1802,-76 1148.09,-76 1148.09,-76"/>
<polygon fill="orange" stroke="orange" points="1148.09,-72.5001 1138.09,-76 1148.09,-79.5001 1148.09,-72.5001"/>
</g>
<!-- CocoAudio&#45;&gt;SceneTitle -->
<g id="edge68" class="edge"><title>CocoAudio&#45;&gt;SceneTitle</title>
<path fill="none" stroke="orange" stroke-dasharray="1,5" d="M1784,-359.62C1784,-335.721 1784,-297 1784,-297 1784,-297 1597.02,-297 1597.02,-297"/>
<polygon fill="orange" stroke="orange" points="1597.02,-293.5 1587.02,-297 1597.02,-300.5 1597.02,-293.5"/>
</g>
</g>
</svg>
