<?xml version="1.0" encoding="UTF-8" standalone="no"?>
<!DOCTYPE svg PUBLIC "-//W3C//DTD SVG 1.1//EN"
 "http://www.w3.org/Graphics/SVG/1.1/DTD/svg11.dtd">
<!-- Generated by graphviz version 2.38.0 (20140413.2041)
 -->
<!-- Title: G Pages: 1 -->
<svg width="4211pt" height="2161pt"
 viewBox="0.00 0.00 4211.00 2161.00" xmlns="http://www.w3.org/2000/svg" xmlns:xlink="http://www.w3.org/1999/xlink">
<g id="graph0" class="graph" transform="scale(1 1) rotate(0) translate(4 2157)">
<title>G</title>
<polygon fill="white" stroke="none" points="-4,4 -4,-2157 4207,-2157 4207,4 -4,4"/>
<!-- CanvasRenderingContext2D -->
<g id="node1" class="node"><title>CanvasRenderingContext2D</title>
<polygon fill="none" stroke="black" stroke-width="0" points="2149.05,-1365.63 1640.05,-1365.63 1640.05,-444.627 2149.05,-444.627 2149.05,-1365.63"/>
<image xlink:href="PNG\CanvasRenderingContext2D.png" width="509px" height="921px" preserveAspectRatio="xMinYMin meet" x="1640.05" y="-1365.63"/>
</g>
<!-- HTMLCanvasContext -->
<g id="node2" class="node"><title>HTMLCanvasContext</title>
<polygon fill="none" stroke="black" stroke-width="0" points="2301.08,-1142.76 2157.08,-1142.76 2157.08,-1037.76 2301.08,-1037.76 2301.08,-1142.76"/>
<image xlink:href="PNG\HTMLCanvasContext.png" width="144px" height="105px" preserveAspectRatio="xMinYMin meet" x="2157.08" y="-1142.76"/>
</g>
<!-- CanvasRenderingContext2D&#45;&gt;HTMLCanvasContext -->
<g id="edge1" class="edge"><title>CanvasRenderingContext2D&#45;&gt;HTMLCanvasContext</title>
<path fill="none" stroke="black" stroke-width="2" d="M2149.38,-1090C2149.38,-1090 2150.15,-1090 2150.15,-1090"/>
<polygon fill="black" stroke="black" stroke-width="2" points="2147.08,-1093.5 2157.07,-1090 2147.07,-1086.5 2147.08,-1093.5"/>
</g>
<!-- WebGLActiveInfo -->
<g id="node3" class="node"><title>WebGLActiveInfo</title>
<polygon fill="none" stroke="black" stroke-width="0" points="678.925,-1185.64 547.925,-1185.64 547.925,-1105.64 678.925,-1105.64 678.925,-1185.64"/>
<image xlink:href="PNG\WebGLActiveInfo.png" width="131px" height="80px" preserveAspectRatio="xMinYMin meet" x="547.925" y="-1185.64"/>
</g>
<!-- WebGLObject -->
<g id="node4" class="node"><title>WebGLObject</title>
<polygon fill="none" stroke="black" stroke-width="0" points="324.892,-1179.85 193.892,-1179.85 193.892,-1087.85 324.892,-1087.85 324.892,-1179.85"/>
<image xlink:href="PNG\WebGLObject.png" width="131px" height="92px" preserveAspectRatio="xMinYMin meet" x="193.892" y="-1179.85"/>
</g>
<!-- WebGLActiveInfo&#45;&gt;WebGLObject -->
<g id="edge2" class="edge"><title>WebGLActiveInfo&#45;&gt;WebGLObject</title>
<path fill="none" stroke="black" stroke-width="2" d="M547.842,-1145C546.189,-1145 545.253,-1145 545.253,-1145 545.253,-1145 545.253,-926 545.253,-926 545.253,-926 329.473,-926 329.473,-926 329.473,-926 329.473,-1133 329.473,-1133 329.473,-1133 329.055,-1133 329.055,-1133"/>
<polygon fill="black" stroke="black" stroke-width="2" points="335.299,-1129.5 325.299,-1133 335.299,-1136.5 335.299,-1129.5"/>
</g>
<!-- WebGLRenderingContext -->
<g id="node10" class="node"><title>WebGLRenderingContext</title>
<polygon fill="none" stroke="black" stroke-width="0" points="1351.97,-2029.54 686.965,-2029.54 686.965,-177.537 1351.97,-177.537 1351.97,-2029.54"/>
<image xlink:href="PNG\WebGLRenderingContext.png" width="665px" height="1852px" preserveAspectRatio="xMinYMin meet" x="686.965" y="-2029.54"/>
</g>
<!-- WebGLActiveInfo&#45;&gt;WebGLRenderingContext -->
<g id="edge35" class="edge"><title>WebGLActiveInfo&#45;&gt;WebGLRenderingContext</title>
<path fill="none" stroke="orange" stroke-dasharray="1,5" d="M679.114,-1145C679.114,-1145 679.87,-1145 679.87,-1145"/>
<polygon fill="orange" stroke="orange" points="676.671,-1148.5 686.671,-1145 676.671,-1141.5 676.671,-1148.5"/>
</g>
<!-- WebGLBuffer -->
<g id="node5" class="node"><title>WebGLBuffer</title>
<polygon fill="none" stroke="black" stroke-width="0" points="324.892,-991.847 193.892,-991.847 193.892,-911.847 324.892,-911.847 324.892,-991.847"/>
<image xlink:href="PNG\WebGLBuffer.png" width="131px" height="80px" preserveAspectRatio="xMinYMin meet" x="193.892" y="-991.847"/>
</g>
<!-- WebGLBuffer&#45;&gt;WebGLObject -->
<g id="edge3" class="edge"><title>WebGLBuffer&#45;&gt;WebGLObject</title>
<path fill="none" stroke="black" stroke-width="2" d="M325.002,-973C327.111,-973 328.327,-973 328.327,-973 328.327,-973 328.327,-1110 328.327,-1110 328.327,-1110 327.995,-1110 327.995,-1110"/>
<polygon fill="black" stroke="black" stroke-width="2" points="335.003,-1106.5 325.002,-1110 335.002,-1113.5 335.003,-1106.5"/>
</g>
<!-- WebGLBuffer&#45;&gt;WebGLRenderingContext -->
<g id="edge31" class="edge"><title>WebGLBuffer&#45;&gt;WebGLRenderingContext</title>
<path fill="none" stroke="orange" stroke-dasharray="1,5" d="M258.403,-911.765C258.403,-904.937 258.403,-900 258.403,-900 258.403,-900 676.759,-900 676.759,-900"/>
<polygon fill="orange" stroke="orange" points="676.759,-903.5 686.759,-900 676.759,-896.5 676.759,-903.5"/>
</g>
<!-- WebGLContextAttributes -->
<g id="node6" class="node"><title>WebGLContextAttributes</title>
<polygon fill="none" stroke="black" stroke-width="0" points="324.892,-1267.85 191.892,-1267.85 191.892,-1187.85 324.892,-1187.85 324.892,-1267.85"/>
<image xlink:href="PNG\WebGLContextAttributes.png" width="133px" height="80px" preserveAspectRatio="xMinYMin meet" x="191.892" y="-1267.85"/>
</g>
<!-- WebGLContextAttributes&#45;&gt;WebGLObject -->
<g id="edge4" class="edge"><title>WebGLContextAttributes&#45;&gt;WebGLObject</title>
<path fill="none" stroke="black" stroke-width="2" d="M259.392,-1187.71C259.392,-1187.71 259.392,-1186.93 259.392,-1186.93"/>
<polygon fill="black" stroke="black" stroke-width="2" points="262.892,-1189.87 259.392,-1179.87 255.892,-1189.87 262.892,-1189.87"/>
</g>
<!-- WebGLContextAttributes&#45;&gt;WebGLRenderingContext -->
<g id="edge36" class="edge"><title>WebGLContextAttributes&#45;&gt;WebGLRenderingContext</title>
<path fill="none" stroke="orange" stroke-dasharray="1,5" d="M325.277,-1227C325.773,-1227 326.037,-1227 326.037,-1227 326.037,-1227 326.037,-1723 326.037,-1723 326.037,-1723 676.714,-1723 676.714,-1723"/>
<polygon fill="orange" stroke="orange" points="676.714,-1726.5 686.714,-1723 676.714,-1719.5 676.714,-1726.5"/>
</g>
<!-- WebGLFramebuffer -->
<g id="node7" class="node"><title>WebGLFramebuffer</title>
<polygon fill="none" stroke="black" stroke-width="0" points="185.879,-1179.85 54.8786,-1179.85 54.8786,-1099.85 185.879,-1099.85 185.879,-1179.85"/>
<image xlink:href="PNG\WebGLFramebuffer.png" width="131px" height="80px" preserveAspectRatio="xMinYMin meet" x="54.8786" y="-1179.85"/>
</g>
<!-- WebGLFramebuffer&#45;&gt;WebGLObject -->
<g id="edge5" class="edge"><title>WebGLFramebuffer&#45;&gt;WebGLObject</title>
<path fill="none" stroke="black" stroke-width="2" d="M186.221,-1139C186.221,-1139 186.98,-1139 186.98,-1139"/>
<polygon fill="black" stroke="black" stroke-width="2" points="183.806,-1142.5 193.806,-1139 183.806,-1135.5 183.806,-1142.5"/>
</g>
<!-- WebGLFramebuffer&#45;&gt;WebGLRenderingContext -->
<g id="edge32" class="edge"><title>WebGLFramebuffer&#45;&gt;WebGLRenderingContext</title>
<path fill="none" stroke="orange" stroke-dasharray="1,5" d="M120.379,-1179.96C120.379,-1340.37 120.379,-1927 120.379,-1927 120.379,-1927 676.914,-1927 676.914,-1927"/>
<polygon fill="orange" stroke="orange" points="676.914,-1930.5 686.914,-1927 676.914,-1923.5 676.914,-1930.5"/>
</g>
<!-- WebGLProgram -->
<g id="node8" class="node"><title>WebGLProgram</title>
<polygon fill="none" stroke="black" stroke-width="0" points="185.876,-1091.85 -0.124207,-1091.85 -0.124207,-858.847 185.876,-858.847 185.876,-1091.85"/>
<image xlink:href="PNG\WebGLProgram.png" width="186px" height="233px" preserveAspectRatio="xMinYMin meet" x="-0.124207" y="-1091.85"/>
</g>
<!-- WebGLProgram&#45;&gt;WebGLObject -->
<g id="edge6" class="edge"><title>WebGLProgram&#45;&gt;WebGLObject</title>
<path fill="none" stroke="black" stroke-width="2" d="M120.377,-1092.25C120.377,-1092.74 120.377,-1093 120.377,-1093 120.377,-1093 183.548,-1093 183.548,-1093"/>
<polygon fill="black" stroke="black" stroke-width="2" points="183.548,-1096.5 193.548,-1093 183.548,-1089.5 183.548,-1096.5"/>
</g>
<!-- WebGLProgram&#45;&gt;WebGLRenderingContext -->
<g id="edge29" class="edge"><title>WebGLProgram&#45;&gt;WebGLRenderingContext</title>
<path fill="none" stroke="orange" stroke-dasharray="1,5" d="M185.963,-898C185.963,-898 676.89,-898 676.89,-898"/>
<polygon fill="orange" stroke="orange" points="676.89,-901.5 686.89,-898 676.89,-894.5 676.89,-901.5"/>
</g>
<!-- WebGLRenderbuffer -->
<g id="node9" class="node"><title>WebGLRenderbuffer</title>
<polygon fill="none" stroke="black" stroke-width="0" points="324.892,-1355.85 193.892,-1355.85 193.892,-1275.85 324.892,-1275.85 324.892,-1355.85"/>
<image xlink:href="PNG\WebGLRenderbuffer.png" width="131px" height="80px" preserveAspectRatio="xMinYMin meet" x="193.892" y="-1355.85"/>
</g>
<!-- WebGLRenderbuffer&#45;&gt;WebGLObject -->
<g id="edge7" class="edge"><title>WebGLRenderbuffer&#45;&gt;WebGLObject</title>
<path fill="none" stroke="black" stroke-width="2" d="M325.029,-1315C328.514,-1315 330.618,-1315 330.618,-1315 330.618,-1315 330.618,-1156 330.618,-1156 330.618,-1156 330.059,-1156 330.059,-1156"/>
<polygon fill="black" stroke="black" stroke-width="2" points="335.029,-1152.5 325.029,-1156 335.029,-1159.5 335.029,-1152.5"/>
</g>
<!-- WebGLRenderbuffer&#45;&gt;WebGLRenderingContext -->
<g id="edge33" class="edge"><title>WebGLRenderbuffer&#45;&gt;WebGLRenderingContext</title>
<path fill="none" stroke="orange" stroke-dasharray="1,5" d="M259.392,-1356.22C259.392,-1476.65 259.392,-1825 259.392,-1825 259.392,-1825 676.915,-1825 676.915,-1825"/>
<polygon fill="orange" stroke="orange" points="676.915,-1828.5 686.915,-1825 676.915,-1821.5 676.915,-1828.5"/>
</g>
<!-- WebGLRenderingContext&#45;&gt;HTMLCanvasContext -->
<g id="edge8" class="edge"><title>WebGLRenderingContext&#45;&gt;HTMLCanvasContext</title>
<path fill="none" stroke="black" stroke-width="2" d="M1351.99,-419C1729.8,-419 2294.58,-419 2294.58,-419 2294.58,-419 2294.58,-1027.58 2294.58,-1027.58"/>
<polygon fill="black" stroke="black" stroke-width="2" points="2291.08,-1027.58 2294.58,-1037.58 2298.08,-1027.58 2291.08,-1027.58"/>
</g>
<!-- GameEngine -->
<g id="node18" class="node"><title>GameEngine</title>
<polygon fill="none" stroke="black" stroke-width="0" points="2546.11,-1365.63 2397.11,-1365.63 2397.11,-826.627 2546.11,-826.627 2546.11,-1365.63"/>
<image xlink:href="PNG\GameEngine.png" width="149px" height="539px" preserveAspectRatio="xMinYMin meet" x="2397.11" y="-1365.63"/>
</g>
<!-- WebGLRenderingContext&#45;&gt;GameEngine -->
<g id="edge48" class="edge"><title>WebGLRenderingContext&#45;&gt;GameEngine</title>
<path fill="none" stroke="orange" stroke-dasharray="1,5" d="M1352.12,-394C1768.27,-394 2426.91,-394 2426.91,-394 2426.91,-394 2426.91,-816.423 2426.91,-816.423"/>
<polygon fill="orange" stroke="orange" points="2423.41,-816.423 2426.91,-826.423 2430.41,-816.423 2423.41,-816.423"/>
</g>
<!-- WebGLShader -->
<g id="node11" class="node"><title>WebGLShader</title>
<polygon fill="none" stroke="black" stroke-width="0" points="678.925,-1285.64 547.925,-1285.64 547.925,-1193.64 678.925,-1193.64 678.925,-1285.64"/>
<image xlink:href="PNG\WebGLShader.png" width="131px" height="92px" preserveAspectRatio="xMinYMin meet" x="547.925" y="-1285.64"/>
</g>
<!-- WebGLShader&#45;&gt;WebGLObject -->
<g id="edge9" class="edge"><title>WebGLShader&#45;&gt;WebGLObject</title>
<path fill="none" stroke="black" stroke-width="2" d="M547.676,-1239C544.488,-1239 542.581,-1239 542.581,-1239 542.581,-1239 542.581,-940 542.581,-940 542.581,-940 327.182,-940 327.182,-940 327.182,-940 327.182,-1083 327.182,-1083 327.182,-1083 281.225,-1083 281.225,-1083 281.225,-1083 281.225,-1083.47 281.225,-1083.47"/>
<polygon fill="black" stroke="black" stroke-width="2" points="277.725,-1077.69 281.225,-1087.69 284.725,-1077.69 277.725,-1077.69"/>
</g>
<!-- WebGLShader&#45;&gt;WebGLRenderingContext -->
<g id="edge30" class="edge"><title>WebGLShader&#45;&gt;WebGLRenderingContext</title>
<path fill="none" stroke="orange" stroke-dasharray="1,5" d="M679.114,-1239C679.114,-1239 679.87,-1239 679.87,-1239"/>
<polygon fill="orange" stroke="orange" points="676.671,-1242.5 686.671,-1239 676.671,-1235.5 676.671,-1242.5"/>
</g>
<!-- WebGLShaderPrecisionFormat -->
<g id="node12" class="node"><title>WebGLShaderPrecisionFormat</title>
<polygon fill="none" stroke="black" stroke-width="0" points="1632.02,-1244.93 1479.02,-1244.93 1479.02,-1164.93 1632.02,-1164.93 1632.02,-1244.93"/>
<image xlink:href="PNG\WebGLShaderPrecisionFormat.png" width="153px" height="80px" preserveAspectRatio="xMinYMin meet" x="1479.02" y="-1244.93"/>
</g>
<!-- WebGLShaderPrecisionFormat&#45;&gt;WebGLObject -->
<g id="edge10" class="edge"><title>WebGLShaderPrecisionFormat&#45;&gt;WebGLObject</title>
<path fill="none" stroke="black" stroke-width="2" d="M1478.88,-1218C1421.76,-1218 1353.57,-1218 1353.57,-1218 1353.57,-1218 1353.57,-2040 1353.57,-2040 1353.57,-2040 36.5443,-2040 36.5443,-2040 36.5443,-2040 36.5443,-1097 36.5443,-1097 36.5443,-1097 183.735,-1097 183.735,-1097"/>
<polygon fill="black" stroke="black" stroke-width="2" points="183.735,-1100.5 193.735,-1097 183.735,-1093.5 183.735,-1100.5"/>
</g>
<!-- WebGLShaderPrecisionFormat&#45;&gt;WebGLRenderingContext -->
<g id="edge37" class="edge"><title>WebGLShaderPrecisionFormat&#45;&gt;WebGLRenderingContext</title>
<path fill="none" stroke="orange" stroke-dasharray="1,5" d="M1479,-1191C1479,-1191 1362.02,-1191 1362.02,-1191"/>
<polygon fill="orange" stroke="orange" points="1362.02,-1187.5 1352.02,-1191 1362.02,-1194.5 1362.02,-1187.5"/>
</g>
<!-- WebGLTexture -->
<g id="node13" class="node"><title>WebGLTexture</title>
<polygon fill="none" stroke="black" stroke-width="0" points="1632.02,-1344.93 1501.02,-1344.93 1501.02,-1252.93 1632.02,-1252.93 1632.02,-1344.93"/>
<image xlink:href="PNG\WebGLTexture.png" width="131px" height="92px" preserveAspectRatio="xMinYMin meet" x="1501.02" y="-1344.93"/>
</g>
<!-- WebGLTexture&#45;&gt;WebGLObject -->
<g id="edge11" class="edge"><title>WebGLTexture&#45;&gt;WebGLObject</title>
<path fill="none" stroke="black" stroke-width="2" d="M1500.81,-1314C1438.77,-1314 1355.18,-1314 1355.18,-1314 1355.18,-1314 1355.18,-2045 1355.18,-2045 1355.18,-2045 18.21,-2045 18.21,-2045 18.21,-2045 18.21,-1095 18.21,-1095 18.21,-1095 183.806,-1095 183.806,-1095"/>
<polygon fill="black" stroke="black" stroke-width="2" points="183.806,-1098.5 193.806,-1095 183.806,-1091.5 183.806,-1098.5"/>
</g>
<!-- WebGLTexture&#45;&gt;WebGLRenderingContext -->
<g id="edge34" class="edge"><title>WebGLTexture&#45;&gt;WebGLRenderingContext</title>
<path fill="none" stroke="orange" stroke-dasharray="1,5" d="M1500.8,-1283C1500.8,-1283 1362.04,-1283 1362.04,-1283"/>
<polygon fill="orange" stroke="orange" points="1362.04,-1279.5 1352.04,-1283 1362.04,-1286.5 1362.04,-1279.5"/>
</g>
<!-- WebGLUniformLocation -->
<g id="node14" class="node"><title>WebGLUniformLocation</title>
<polygon fill="none" stroke="black" stroke-width="0" points="324.892,-1079.85 193.892,-1079.85 193.892,-999.847 324.892,-999.847 324.892,-1079.85"/>
<image xlink:href="PNG\WebGLUniformLocation.png" width="131px" height="80px" preserveAspectRatio="xMinYMin meet" x="193.892" y="-1079.85"/>
</g>
<!-- WebGLUniformLocation&#45;&gt;WebGLObject -->
<g id="edge12" class="edge"><title>WebGLUniformLocation&#45;&gt;WebGLObject</title>
<path fill="none" stroke="black" stroke-width="2" d="M237.558,-1079.98C237.558,-1079.98 237.558,-1080.77 237.558,-1080.77"/>
<polygon fill="black" stroke="black" stroke-width="2" points="234.058,-1077.82 237.558,-1087.82 241.058,-1077.82 234.058,-1077.82"/>
</g>
<!-- WebGLUniformLocation&#45;&gt;WebGLProgram -->
<g id="edge27" class="edge"><title>WebGLUniformLocation&#45;&gt;WebGLProgram</title>
<path fill="none" stroke="orange" stroke-dasharray="1,5" d="M193.58,-1039C193.58,-1039 192.811,-1039 192.811,-1039"/>
<polygon fill="orange" stroke="orange" points="195.886,-1035.5 185.886,-1039 195.886,-1042.5 195.886,-1035.5"/>
</g>
<!-- WebGLUniformLocation&#45;&gt;WebGLRenderingContext -->
<g id="edge38" class="edge"><title>WebGLUniformLocation&#45;&gt;WebGLRenderingContext</title>
<path fill="none" stroke="orange" stroke-dasharray="1,5" d="M325.084,-1039C329.219,-1039 331.763,-1039 331.763,-1039 331.763,-1039 331.763,-1621 331.763,-1621 331.763,-1621 676.945,-1621 676.945,-1621"/>
<polygon fill="orange" stroke="orange" points="676.945,-1624.5 686.945,-1621 676.945,-1617.5 676.945,-1624.5"/>
</g>
<!-- Class2 -->
<g id="node15" class="node"><title>Class2</title>
<polygon fill="none" stroke="black" stroke-width="0" points="1632.02,-2050.63 1425.02,-2050.63 1425.02,-1792.63 1632.02,-1792.63 1632.02,-2050.63"/>
<image xlink:href="PNG\Class2.png" width="207px" height="258px" preserveAspectRatio="xMinYMin meet" x="1425.02" y="-2050.63"/>
</g>
<!-- Class1 -->
<g id="node16" class="node"><title>Class1</title>
<polygon fill="none" stroke="black" stroke-width="0" points="539.909,-1519.45 332.909,-1519.45 332.909,-955.447 539.909,-955.447 539.909,-1519.45"/>
<image xlink:href="PNG\Class1.png" width="207px" height="564px" preserveAspectRatio="xMinYMin meet" x="332.909" y="-1519.45"/>
</g>
<!-- Class2&#45;&gt;Class1 -->
<g id="edge13" class="edge"><title>Class2&#45;&gt;Class1</title>
<path fill="none" stroke="black" stroke-width="2" d="M1424.79,-2034C1152.18,-2034 436.409,-2034 436.409,-2034 436.409,-2034 436.409,-1529.68 436.409,-1529.68"/>
<polygon fill="black" stroke="black" stroke-width="2" points="439.909,-1529.68 436.409,-1519.68 432.909,-1529.68 439.909,-1529.68"/>
</g>
<!-- Class3 -->
<g id="node17" class="node"><title>Class3</title>
<polygon fill="none" stroke="black" stroke-width="0" points="2017.48,-1999.63 1810.48,-1999.63 1810.48,-1792.63 2017.48,-1792.63 2017.48,-1999.63"/>
<image xlink:href="PNG\Class3.png" width="207px" height="207px" preserveAspectRatio="xMinYMin meet" x="1810.48" y="-1999.63"/>
</g>
<!-- Class3&#45;&gt;Class2 -->
<g id="edge14" class="edge"><title>Class3&#45;&gt;Class2</title>
<path fill="none" stroke="black" stroke-width="2" d="M1810.43,-1896C1810.43,-1896 1642.3,-1896 1642.3,-1896"/>
<polygon fill="black" stroke="black" stroke-width="2" points="1642.3,-1892.5 1632.3,-1896 1642.3,-1899.5 1642.3,-1892.5"/>
</g>
<!-- CocoEngine -->
<g id="node19" class="node"><title>CocoEngine</title>
<polygon fill="none" stroke="black" stroke-width="0" points="3559.2,-589.627 3255.2,-589.627 3255.2,-318.627 3559.2,-318.627 3559.2,-589.627"/>
<image xlink:href="PNG\CocoEngine.png" width="304px" height="271px" preserveAspectRatio="xMinYMin meet" x="3255.2" y="-589.627"/>
</g>
<!-- GameEngine&#45;&gt;CocoEngine -->
<g id="edge15" class="edge"><title>GameEngine&#45;&gt;CocoEngine</title>
<path fill="none" stroke="black" stroke-width="2" d="M2516.31,-826.521C2516.31,-707.032 2516.31,-593 2516.31,-593 2516.31,-593 3407.2,-593 3407.2,-593 3407.2,-593 3407.2,-592.71 3407.2,-592.71"/>
<polygon fill="black" stroke="black" stroke-width="2" points="3410.7,-600.099 3407.2,-590.099 3403.7,-600.1 3410.7,-600.099"/>
</g>
<!-- SceneGameBoard -->
<g id="node20" class="node"><title>SceneGameBoard</title>
<polygon fill="none" stroke="black" stroke-width="0" points="3386.19,-1453.63 3255.19,-1453.63 3255.19,-1373.63 3386.19,-1373.63 3386.19,-1453.63"/>
<image xlink:href="PNG\SceneGameBoard.png" width="131px" height="80px" preserveAspectRatio="xMinYMin meet" x="3255.19" y="-1453.63"/>
</g>
<!-- GameEngine&#45;&gt;SceneGameBoard -->
<g id="edge59" class="edge"><title>GameEngine&#45;&gt;SceneGameBoard</title>
<path fill="none" stroke="orange" stroke-dasharray="1,5" d="M2496.44,-1365.94C2496.44,-1367.93 2496.44,-1369 2496.44,-1369 2496.44,-1369 3320.69,-1369 3320.69,-1369 3320.69,-1369 3320.69,-1369.44 3320.69,-1369.44"/>
<polygon fill="orange" stroke="orange" points="3317.19,-1363.44 3320.69,-1373.44 3324.19,-1363.44 3317.19,-1363.44"/>
</g>
<!-- CocoEngine&#45;&gt;SceneGameBoard -->
<g id="edge60" class="edge"><title>CocoEngine&#45;&gt;SceneGameBoard</title>
<path fill="none" stroke="orange" stroke-dasharray="1,5" d="M3559.42,-454C3594.72,-454 3622.18,-454 3622.18,-454 3622.18,-454 3622.18,-1378 3622.18,-1378 3622.18,-1378 3396.48,-1378 3396.48,-1378"/>
<polygon fill="orange" stroke="orange" points="3396.48,-1374.5 3386.48,-1378 3396.48,-1381.5 3396.48,-1374.5"/>
</g>
<!-- CocoScene -->
<g id="node21" class="node"><title>CocoScene</title>
<polygon fill="none" stroke="black" stroke-width="0" points="3247.16,-589.627 2831.16,-589.627 2831.16,0.373405 3247.16,0.373405 3247.16,-589.627"/>
<image xlink:href="PNG\CocoScene.png" width="416px" height="590px" preserveAspectRatio="xMinYMin meet" x="2831.16" y="-589.627"/>
</g>
<!-- SceneGameBoard&#45;&gt;CocoScene -->
<g id="edge16" class="edge"><title>SceneGameBoard&#45;&gt;CocoScene</title>
<path fill="none" stroke="black" stroke-width="2" d="M3386.55,-1384C3475.81,-1384 3624.2,-1384 3624.2,-1384 3624.2,-1384 3624.2,-212 3624.2,-212 3624.2,-212 3257.48,-212 3257.48,-212"/>
<polygon fill="black" stroke="black" stroke-width="2" points="3257.48,-208.5 3247.48,-212 3257.48,-215.5 3257.48,-208.5"/>
</g>
<!-- CocoScene&#45;&gt;GameEngine -->
<g id="edge43" class="edge"><title>CocoScene&#45;&gt;GameEngine</title>
<path fill="none" stroke="orange" stroke-dasharray="1,5" d="M2830.94,-365C2663.74,-365 2456.71,-365 2456.71,-365 2456.71,-365 2456.71,-816.478 2456.71,-816.478"/>
<polygon fill="orange" stroke="orange" points="2453.21,-816.478 2456.71,-826.478 2460.21,-816.478 2453.21,-816.478"/>
</g>
<!-- SceneTitle -->
<g id="node22" class="node"><title>SceneTitle</title>
<polygon fill="none" stroke="black" stroke-width="0" points="3386.19,-1541.63 3255.19,-1541.63 3255.19,-1461.63 3386.19,-1461.63 3386.19,-1541.63"/>
<image xlink:href="PNG\SceneTitle.png" width="131px" height="80px" preserveAspectRatio="xMinYMin meet" x="3255.19" y="-1541.63"/>
</g>
<!-- SceneTitle&#45;&gt;GameEngine -->
<g id="edge46" class="edge"><title>SceneTitle&#45;&gt;GameEngine</title>
<path fill="none" stroke="orange" stroke-dasharray="1,5" d="M3254.97,-1474C3185.16,-1474 3084.76,-1474 3084.76,-1474 3084.76,-1474 3084.76,-1370 3084.76,-1370 3084.76,-1370 2446.77,-1370 2446.77,-1370 2446.77,-1370 2446.77,-1369.57 2446.77,-1369.57"/>
<polygon fill="orange" stroke="orange" points="2450.27,-1375.7 2446.77,-1365.7 2443.27,-1375.7 2450.27,-1375.7"/>
</g>
<!-- SceneTitle&#45;&gt;CocoScene -->
<g id="edge17" class="edge"><title>SceneTitle&#45;&gt;CocoScene</title>
<path fill="none" stroke="black" stroke-width="2" d="M3386.23,-1481C3476.01,-1481 3626.22,-1481 3626.22,-1481 3626.22,-1481 3626.22,-105 3626.22,-105 3626.22,-105 3257.38,-105 3257.38,-105"/>
<polygon fill="black" stroke="black" stroke-width="2" points="3257.38,-101.5 3247.38,-105 3257.38,-108.5 3257.38,-101.5"/>
</g>
<!-- PathLine -->
<g id="node23" class="node"><title>PathLine</title>
<polygon fill="none" stroke="black" stroke-width="0" points="2288.08,-941.756 2157.08,-941.756 2157.08,-810.756 2288.08,-810.756 2288.08,-941.756"/>
<image xlink:href="PNG\PathLine.png" width="131px" height="131px" preserveAspectRatio="xMinYMin meet" x="2157.08" y="-941.756"/>
</g>
<!-- PathLine&#45;&gt;CanvasRenderingContext2D -->
<g id="edge18" class="edge"><title>PathLine&#45;&gt;CanvasRenderingContext2D</title>
<path fill="none" stroke="orange" stroke-dasharray="1,5" d="M2156.99,-876C2156.99,-876 2156.22,-876 2156.22,-876"/>
<polygon fill="orange" stroke="orange" points="2159.27,-872.5 2149.27,-876 2159.27,-879.5 2159.27,-872.5"/>
</g>
<!-- ImageData -->
<g id="node24" class="node"><title>ImageData</title>
<polygon fill="none" stroke="black" stroke-width="0" points="1632.02,-1156.93 1501.02,-1156.93 1501.02,-1013.93 1632.02,-1013.93 1632.02,-1156.93"/>
<image xlink:href="PNG\ImageData.png" width="131px" height="143px" preserveAspectRatio="xMinYMin meet" x="1501.02" y="-1156.93"/>
</g>
<!-- ImageData&#45;&gt;CanvasRenderingContext2D -->
<g id="edge19" class="edge"><title>ImageData&#45;&gt;CanvasRenderingContext2D</title>
<path fill="none" stroke="orange" stroke-dasharray="1,5" d="M1632.11,-1085C1632.11,-1085 1632.88,-1085 1632.88,-1085"/>
<polygon fill="orange" stroke="orange" points="1629.83,-1088.5 1639.83,-1085 1629.83,-1081.5 1629.83,-1088.5"/>
</g>
<!-- ImageData&#45;&gt;WebGLRenderingContext -->
<g id="edge40" class="edge"><title>ImageData&#45;&gt;WebGLRenderingContext</title>
<path fill="none" stroke="orange" stroke-dasharray="1,5" d="M1500.8,-1085C1500.8,-1085 1362.04,-1085 1362.04,-1085"/>
<polygon fill="orange" stroke="orange" points="1362.04,-1081.5 1352.04,-1085 1362.04,-1088.5 1362.04,-1081.5"/>
</g>
<!-- HTMLCanvasGradient -->
<g id="node25" class="node"><title>HTMLCanvasGradient</title>
<polygon fill="none" stroke="black" stroke-width="0" points="2685.12,-261.627 2554.12,-261.627 2554.12,-181.627 2685.12,-181.627 2685.12,-261.627"/>
<image xlink:href="PNG\HTMLCanvasGradient.png" width="131px" height="80px" preserveAspectRatio="xMinYMin meet" x="2554.12" y="-261.627"/>
</g>
<!-- HTMLCanvasGradient&#45;&gt;CanvasRenderingContext2D -->
<g id="edge20" class="edge"><title>HTMLCanvasGradient&#45;&gt;CanvasRenderingContext2D</title>
<path fill="none" stroke="orange" stroke-dasharray="1,5" d="M2554.06,-221C2384.64,-221 1945.45,-221 1945.45,-221 1945.45,-221 1945.45,-434.535 1945.45,-434.535"/>
<polygon fill="orange" stroke="orange" points="1941.95,-434.535 1945.45,-444.535 1948.95,-434.535 1941.95,-434.535"/>
</g>
<!-- HTMLCanvasPattern -->
<g id="node26" class="node"><title>HTMLCanvasPattern</title>
<polygon fill="none" stroke="black" stroke-width="0" points="2288.08,-1029.76 2157.08,-1029.76 2157.08,-949.756 2288.08,-949.756 2288.08,-1029.76"/>
<image xlink:href="PNG\HTMLCanvasPattern.png" width="131px" height="80px" preserveAspectRatio="xMinYMin meet" x="2157.08" y="-1029.76"/>
</g>
<!-- HTMLCanvasPattern&#45;&gt;CanvasRenderingContext2D -->
<g id="edge21" class="edge"><title>HTMLCanvasPattern&#45;&gt;CanvasRenderingContext2D</title>
<path fill="none" stroke="orange" stroke-dasharray="1,5" d="M2156.99,-989C2156.99,-989 2156.22,-989 2156.22,-989"/>
<polygon fill="orange" stroke="orange" points="2159.27,-985.5 2149.27,-989 2159.27,-992.5 2159.27,-985.5"/>
</g>
<!-- Image -->
<g id="node27" class="node"><title>Image</title>
<polygon fill="none" stroke="black" stroke-width="0" points="678.925,-1097.64 547.925,-1097.64 547.925,-903.638 678.925,-903.638 678.925,-1097.64"/>
<image xlink:href="PNG\Image.png" width="131px" height="194px" preserveAspectRatio="xMinYMin meet" x="547.925" y="-1097.64"/>
</g>
<!-- Image&#45;&gt;CanvasRenderingContext2D -->
<g id="edge22" class="edge"><title>Image&#45;&gt;CanvasRenderingContext2D</title>
<path fill="none" stroke="orange" stroke-dasharray="1,5" d="M679.208,-968C681.571,-968 682.945,-968 682.945,-968 682.945,-968 682.945,-118 682.945,-118 682.945,-118 1741.85,-118 1741.85,-118 1741.85,-118 1741.85,-434.405 1741.85,-434.405"/>
<polygon fill="orange" stroke="orange" points="1738.35,-434.405 1741.85,-444.405 1745.35,-434.405 1738.35,-434.405"/>
</g>
<!-- Image&#45;&gt;WebGLRenderingContext -->
<g id="edge39" class="edge"><title>Image&#45;&gt;WebGLRenderingContext</title>
<path fill="none" stroke="orange" stroke-dasharray="1,5" d="M679.114,-1032C679.114,-1032 679.87,-1032 679.87,-1032"/>
<polygon fill="orange" stroke="orange" points="676.671,-1035.5 686.671,-1032 676.671,-1028.5 676.671,-1035.5"/>
</g>
<!-- HTMLElement -->
<g id="node28" class="node"><title>HTMLElement</title>
<polygon fill="none" stroke="black" stroke-width="0" points="1632.01,-841.927 1360.01,-841.927 1360.01,-749.927 1632.01,-749.927 1632.01,-841.927"/>
<image xlink:href="PNG\HTMLElement.png" width="272px" height="92px" preserveAspectRatio="xMinYMin meet" x="1360.01" y="-841.927"/>
</g>
<!-- HTMLElement&#45;&gt;CanvasRenderingContext2D -->
<g id="edge23" class="edge"><title>HTMLElement&#45;&gt;CanvasRenderingContext2D</title>
<path fill="none" stroke="orange" stroke-dasharray="1,5" d="M1632.05,-795C1632.05,-795 1632.83,-795 1632.83,-795"/>
<polygon fill="orange" stroke="orange" points="1629.88,-798.5 1639.88,-795 1629.88,-791.5 1629.88,-798.5"/>
</g>
<!-- HTMLTextMetrics -->
<g id="node29" class="node"><title>HTMLTextMetrics</title>
<polygon fill="none" stroke="black" stroke-width="0" points="2685.12,-361.627 2554.12,-361.627 2554.12,-269.627 2685.12,-269.627 2685.12,-361.627"/>
<image xlink:href="PNG\HTMLTextMetrics.png" width="131px" height="92px" preserveAspectRatio="xMinYMin meet" x="2554.12" y="-361.627"/>
</g>
<!-- HTMLTextMetrics&#45;&gt;CanvasRenderingContext2D -->
<g id="edge24" class="edge"><title>HTMLTextMetrics&#45;&gt;CanvasRenderingContext2D</title>
<path fill="none" stroke="orange" stroke-dasharray="1,5" d="M2553.96,-315C2403.62,-315 2047.25,-315 2047.25,-315 2047.25,-315 2047.25,-434.506 2047.25,-434.506"/>
<polygon fill="orange" stroke="orange" points="2043.75,-434.506 2047.25,-444.506 2050.75,-434.506 2043.75,-434.506"/>
</g>
<!-- HTMLCanvasElement -->
<g id="node30" class="node"><title>HTMLCanvasElement</title>
<polygon fill="none" stroke="black" stroke-width="0" points="1632.01,-1005.93 1405.01,-1005.93 1405.01,-849.927 1632.01,-849.927 1632.01,-1005.93"/>
<image xlink:href="PNG\HTMLCanvasElement.png" width="227px" height="156px" preserveAspectRatio="xMinYMin meet" x="1405.01" y="-1005.93"/>
</g>
<!-- HTMLCanvasElement&#45;&gt;CanvasRenderingContext2D -->
<g id="edge25" class="edge"><title>HTMLCanvasElement&#45;&gt;CanvasRenderingContext2D</title>
<path fill="none" stroke="orange" stroke-dasharray="1,5" d="M1632.1,-927C1632.1,-927 1632.89,-927 1632.89,-927"/>
<polygon fill="orange" stroke="orange" points="1629.95,-930.5 1639.95,-927 1629.95,-923.5 1629.95,-930.5"/>
</g>
<!-- HTMLCanvasElement&#45;&gt;WebGLRenderingContext -->
<g id="edge28" class="edge"><title>HTMLCanvasElement&#45;&gt;WebGLRenderingContext</title>
<path fill="none" stroke="orange" stroke-dasharray="1,5" d="M1404.96,-927C1404.96,-927 1362.37,-927 1362.37,-927"/>
<polygon fill="orange" stroke="orange" points="1362.37,-923.5 1352.37,-927 1362.37,-930.5 1362.37,-923.5"/>
</g>
<!-- HTMLWindow -->
<g id="node31" class="node"><title>HTMLWindow</title>
<polygon fill="none" stroke="black" stroke-width="0" points="678.914,-895.638 322.914,-895.638 322.914,-675.638 678.914,-675.638 678.914,-895.638"/>
<image xlink:href="PNG\HTMLWindow.png" width="356px" height="220px" preserveAspectRatio="xMinYMin meet" x="322.914" y="-895.638"/>
</g>
<!-- HTMLWindow&#45;&gt;CanvasRenderingContext2D -->
<g id="edge26" class="edge"><title>HTMLWindow&#45;&gt;CanvasRenderingContext2D</title>
<path fill="none" stroke="orange" stroke-dasharray="1,5" d="M500.914,-675.521C500.914,-472.107 500.914,-58 500.914,-58 500.914,-58 1843.65,-58 1843.65,-58 1843.65,-58 1843.65,-434.379 1843.65,-434.379"/>
<polygon fill="orange" stroke="orange" points="1840.15,-434.379 1843.65,-444.379 1847.15,-434.379 1840.15,-434.379"/>
</g>
<!-- State -->
<g id="node32" class="node"><title>State</title>
<polygon fill="none" stroke="black" stroke-width="0" points="2389.09,-1306.76 2157.09,-1306.76 2157.09,-1150.76 2389.09,-1150.76 2389.09,-1306.76"/>
<image xlink:href="PNG\State.png" width="232px" height="156px" preserveAspectRatio="xMinYMin meet" x="2157.09" y="-1306.76"/>
</g>
<!-- State&#45;&gt;Class2 -->
<g id="edge41" class="edge"><title>State&#45;&gt;Class2</title>
<path fill="none" stroke="orange" stroke-dasharray="1,5" d="M2215.09,-1307C2215.09,-1337.82 2215.09,-1366 2215.09,-1366 2215.09,-1366 1356.79,-1366 1356.79,-1366 1356.79,-1366 1356.79,-1911 1356.79,-1911 1356.79,-1911 1414.66,-1911 1414.66,-1911"/>
<polygon fill="orange" stroke="orange" points="1414.66,-1914.5 1424.66,-1911 1414.66,-1907.5 1414.66,-1914.5"/>
</g>
<!-- State&#45;&gt;Class3 -->
<g id="edge42" class="edge"><title>State&#45;&gt;Class3</title>
<path fill="none" stroke="orange" stroke-dasharray="1,5" d="M2273.09,-1306.93C2273.09,-1338.67 2273.09,-1368 2273.09,-1368 2273.09,-1368 1358.4,-1368 1358.4,-1368 1358.4,-1368 1358.4,-1788 1358.4,-1788 1358.4,-1788 1913.98,-1788 1913.98,-1788 1913.98,-1788 1913.98,-1788.44 1913.98,-1788.44"/>
<polygon fill="orange" stroke="orange" points="1910.48,-1782.37 1913.98,-1792.37 1917.48,-1782.37 1910.48,-1782.37"/>
</g>
<!-- State&#45;&gt;GameEngine -->
<g id="edge47" class="edge"><title>State&#45;&gt;GameEngine</title>
<path fill="none" stroke="orange" stroke-dasharray="1,5" d="M2389.14,-1228C2389.14,-1228 2389.93,-1228 2389.93,-1228"/>
<polygon fill="orange" stroke="orange" points="2386.98,-1231.5 2396.98,-1228 2386.98,-1224.5 2386.98,-1231.5"/>
</g>
<!-- State&#45;&gt;SceneGameBoard -->
<g id="edge61" class="edge"><title>State&#45;&gt;SceneGameBoard</title>
<path fill="none" stroke="orange" stroke-dasharray="1,5" d="M2331.09,-1307.08C2331.09,-1340.53 2331.09,-1372 2331.09,-1372 2331.09,-1372 3287.94,-1372 3287.94,-1372 3287.94,-1372 3287.94,-1372.14 3287.94,-1372.14"/>
<polygon fill="orange" stroke="orange" points="3284.44,-1363.38 3287.94,-1373.38 3291.44,-1363.39 3284.44,-1363.38"/>
</g>
<!-- CocoClip -->
<g id="node33" class="node"><title>CocoClip</title>
<polygon fill="none" stroke="black" stroke-width="0" points="3620.17,-1365.63 2554.17,-1365.63 2554.17,-597.627 3620.17,-597.627 3620.17,-1365.63"/>
<image xlink:href="PNG\CocoClip.png" width="1066px" height="768px" preserveAspectRatio="xMinYMin meet" x="2554.17" y="-1365.63"/>
</g>
<!-- CocoClip&#45;&gt;GameEngine -->
<g id="edge44" class="edge"><title>CocoClip&#45;&gt;GameEngine</title>
<path fill="none" stroke="orange" stroke-dasharray="1,5" d="M2553.99,-1096C2553.99,-1096 2553.21,-1096 2553.21,-1096"/>
<polygon fill="orange" stroke="orange" points="2556.23,-1092.5 2546.23,-1096 2556.23,-1099.5 2556.23,-1092.5"/>
</g>
<!-- CocoClip&#45;&gt;SceneGameBoard -->
<g id="edge51" class="edge"><title>CocoClip&#45;&gt;SceneGameBoard</title>
<path fill="none" stroke="orange" stroke-dasharray="1,5" d="M3353.44,-1365.74C3353.44,-1365.74 3353.44,-1366.51 3353.44,-1366.51"/>
<polygon fill="orange" stroke="orange" points="3349.94,-1363.39 3353.44,-1373.39 3356.94,-1363.39 3349.94,-1363.39"/>
</g>
<!-- CocoClip&#45;&gt;SceneTitle -->
<g id="edge63" class="edge"><title>CocoClip&#45;&gt;SceneTitle</title>
<path fill="none" stroke="orange" stroke-dasharray="1,5" d="M3212.58,-1365.7C3212.58,-1449.65 3212.58,-1514 3212.58,-1514 3212.58,-1514 3245,-1514 3245,-1514"/>
<polygon fill="orange" stroke="orange" points="3245,-1517.5 3255,-1514 3245,-1510.5 3245,-1517.5"/>
</g>
<!-- GridSymbol -->
<g id="node34" class="node"><title>GridSymbol</title>
<polygon fill="none" stroke="black" stroke-width="0" points="2744.12,-589.627 2554.12,-589.627 2554.12,-369.627 2744.12,-369.627 2744.12,-589.627"/>
<image xlink:href="PNG\GridSymbol.png" width="190px" height="220px" preserveAspectRatio="xMinYMin meet" x="2554.12" y="-589.627"/>
</g>
<!-- GridSymbol&#45;&gt;GameEngine -->
<g id="edge45" class="edge"><title>GridSymbol&#45;&gt;GameEngine</title>
<path fill="none" stroke="orange" stroke-dasharray="1,5" d="M2554.06,-517C2518.47,-517 2486.51,-517 2486.51,-517 2486.51,-517 2486.51,-816.485 2486.51,-816.485"/>
<polygon fill="orange" stroke="orange" points="2483.01,-816.485 2486.51,-826.485 2490.01,-816.485 2483.01,-816.485"/>
</g>
<!-- CocoImage -->
<g id="node35" class="node"><title>CocoImage</title>
<polygon fill="none" stroke="black" stroke-width="0" points="2823.13,-2152.63 2554.13,-2152.63 2554.13,-1792.63 2823.13,-1792.63 2823.13,-2152.63"/>
<image xlink:href="PNG\CocoImage.png" width="269px" height="360px" preserveAspectRatio="xMinYMin meet" x="2554.13" y="-2152.63"/>
</g>
<!-- CocoImage&#45;&gt;SceneGameBoard -->
<g id="edge50" class="edge"><title>CocoImage&#45;&gt;SceneGameBoard</title>
<path fill="none" stroke="orange" stroke-dasharray="1,5" d="M2823.25,-2067C2952.22,-2067 3127.37,-2067 3127.37,-2067 3127.37,-2067 3127.37,-1433 3127.37,-1433 3127.37,-1433 3244.97,-1433 3244.97,-1433"/>
<polygon fill="orange" stroke="orange" points="3244.97,-1436.5 3254.97,-1433 3244.97,-1429.5 3244.97,-1436.5"/>
</g>
<!-- CocoImage&#45;&gt;SceneTitle -->
<g id="edge62" class="edge"><title>CocoImage&#45;&gt;SceneTitle</title>
<path fill="none" stroke="orange" stroke-dasharray="1,5" d="M2823.35,-1983C2965.75,-1983 3169.97,-1983 3169.97,-1983 3169.97,-1983 3169.97,-1528 3169.97,-1528 3169.97,-1528 3245.02,-1528 3245.02,-1528"/>
<polygon fill="orange" stroke="orange" points="3245.02,-1531.5 3255.02,-1528 3245.02,-1524.5 3245.02,-1531.5"/>
</g>
<!-- CocoImageSibling -->
<g id="node36" class="node"><title>CocoImageSibling</title>
<polygon fill="none" stroke="black" stroke-width="0" points="3386.19,-1680.63 3255.19,-1680.63 3255.19,-1549.63 3386.19,-1549.63 3386.19,-1680.63"/>
<image xlink:href="PNG\CocoImageSibling.png" width="131px" height="131px" preserveAspectRatio="xMinYMin meet" x="3255.19" y="-1680.63"/>
</g>
<!-- CocoImageSibling&#45;&gt;SceneGameBoard -->
<g id="edge52" class="edge"><title>CocoImageSibling&#45;&gt;SceneGameBoard</title>
<path fill="none" stroke="orange" stroke-dasharray="1,5" d="M3386.31,-1615C3438.63,-1615 3503.18,-1615 3503.18,-1615 3503.18,-1615 3503.18,-1449 3503.18,-1449 3503.18,-1449 3396.31,-1449 3396.31,-1449"/>
<polygon fill="orange" stroke="orange" points="3396.31,-1445.5 3386.31,-1449 3396.31,-1452.5 3396.31,-1445.5"/>
</g>
<!-- CocoImageSibling&#45;&gt;SceneTitle -->
<g id="edge64" class="edge"><title>CocoImageSibling&#45;&gt;SceneTitle</title>
<path fill="none" stroke="orange" stroke-dasharray="1,5" d="M3320.69,-1549.43C3320.69,-1549.43 3320.69,-1548.68 3320.69,-1548.68"/>
<polygon fill="orange" stroke="orange" points="3324.19,-1551.88 3320.69,-1541.88 3317.19,-1551.88 3324.19,-1551.88"/>
</g>
<!-- CocoSequence -->
<g id="node37" class="node"><title>CocoSequence</title>
<polygon fill="none" stroke="black" stroke-width="0" points="4046.26,-1136.66 3915.26,-1136.66 3915.26,-1005.66 4046.26,-1005.66 4046.26,-1136.66"/>
<image xlink:href="PNG\CocoSequence.png" width="131px" height="131px" preserveAspectRatio="xMinYMin meet" x="3915.26" y="-1136.66"/>
</g>
<!-- CocoSequence&#45;&gt;SceneGameBoard -->
<g id="edge53" class="edge"><title>CocoSequence&#45;&gt;SceneGameBoard</title>
<path fill="none" stroke="orange" stroke-dasharray="1,5" d="M3914.98,-1071C3912.62,-1071 3911.25,-1071 3911.25,-1071 3911.25,-1071 3911.25,-1410 3911.25,-1410 3911.25,-1410 3396.43,-1410 3396.43,-1410"/>
<polygon fill="orange" stroke="orange" points="3396.43,-1406.5 3386.43,-1410 3396.43,-1413.5 3396.43,-1406.5"/>
</g>
<!-- CocoTimeline -->
<g id="node38" class="node"><title>CocoTimeline</title>
<polygon fill="none" stroke="black" stroke-width="0" points="3000.08,-1784.63 1360.08,-1784.63 1360.08,-1373.63 3000.08,-1373.63 3000.08,-1784.63"/>
<image xlink:href="PNG\CocoTimeline.png" width="1640px" height="411px" preserveAspectRatio="xMinYMin meet" x="1360.08" y="-1784.63"/>
</g>
<!-- CocoTimeline&#45;&gt;SceneGameBoard -->
<g id="edge54" class="edge"><title>CocoTimeline&#45;&gt;SceneGameBoard</title>
<path fill="none" stroke="orange" stroke-dasharray="1,5" d="M3000.31,-1393C3000.31,-1393 3245.12,-1393 3245.12,-1393"/>
<polygon fill="orange" stroke="orange" points="3245.12,-1396.5 3255.12,-1393 3245.12,-1389.5 3245.12,-1396.5"/>
</g>
<!-- CocoTimeline&#45;&gt;SceneTitle -->
<g id="edge65" class="edge"><title>CocoTimeline&#45;&gt;SceneTitle</title>
<path fill="none" stroke="orange" stroke-dasharray="1,5" d="M3000.31,-1488C3000.31,-1488 3245.12,-1488 3245.12,-1488"/>
<polygon fill="orange" stroke="orange" points="3245.12,-1491.5 3255.12,-1488 3245.12,-1484.5 3245.12,-1491.5"/>
</g>
<!-- CocoTimeLabel -->
<g id="node39" class="node"><title>CocoTimeLabel</title>
<polygon fill="none" stroke="black" stroke-width="0" points="4203.27,-1222.72 4072.27,-1222.72 4072.27,-1117.72 4203.27,-1117.72 4203.27,-1222.72"/>
<image xlink:href="PNG\CocoTimeLabel.png" width="131px" height="105px" preserveAspectRatio="xMinYMin meet" x="4072.27" y="-1222.72"/>
</g>
<!-- CocoTimeLabel&#45;&gt;SceneGameBoard -->
<g id="edge55" class="edge"><title>CocoTimeLabel&#45;&gt;SceneGameBoard</title>
<path fill="none" stroke="orange" stroke-dasharray="1,5" d="M4137.77,-1223C4137.77,-1302.56 4137.77,-1444 4137.77,-1444 4137.77,-1444 3396.52,-1444 3396.52,-1444"/>
<polygon fill="orange" stroke="orange" points="3396.52,-1440.5 3386.52,-1444 3396.52,-1447.5 3396.52,-1440.5"/>
</g>
<!-- CocoKeyFrame -->
<g id="node40" class="node"><title>CocoKeyFrame</title>
<polygon fill="none" stroke="black" stroke-width="0" points="3907.24,-1394.97 3628.24,-1394.97 3628.24,-932.967 3907.24,-932.967 3907.24,-1394.97"/>
<image xlink:href="PNG\CocoKeyFrame.png" width="279px" height="462px" preserveAspectRatio="xMinYMin meet" x="3628.24" y="-1394.97"/>
</g>
<!-- CocoKeyFrame&#45;&gt;SceneGameBoard -->
<g id="edge56" class="edge"><title>CocoKeyFrame&#45;&gt;SceneGameBoard</title>
<path fill="none" stroke="orange" stroke-dasharray="1,5" d="M3628.13,-1389C3628.13,-1389 3396.37,-1389 3396.37,-1389"/>
<polygon fill="orange" stroke="orange" points="3396.37,-1385.5 3386.37,-1389 3396.37,-1392.5 3396.37,-1385.5"/>
</g>
<!-- CocoKeyFrame&#45;&gt;SceneTitle -->
<g id="edge66" class="edge"><title>CocoKeyFrame&#45;&gt;SceneTitle</title>
<path fill="none" stroke="orange" stroke-dasharray="1,5" d="M3767.74,-1395.29C3767.74,-1454.1 3767.74,-1501 3767.74,-1501 3767.74,-1501 3396.65,-1501 3396.65,-1501"/>
<polygon fill="orange" stroke="orange" points="3396.65,-1497.5 3386.65,-1501 3396.65,-1504.5 3396.65,-1497.5"/>
</g>
<!-- COCO_KEYFRAME_INTERPOLATION_ENUM -->
<g id="node41" class="node"><title>COCO_KEYFRAME_INTERPOLATION_ENUM</title>
<polygon fill="none" stroke="black" stroke-width="0" points="3042.15,-1898.63 2831.15,-1898.63 2831.15,-1792.63 3042.15,-1792.63 3042.15,-1898.63"/>
<image xlink:href="PNG\COCO_KEYFRAME_INTERPOLATION_ENUM.png" width="211px" height="106px" preserveAspectRatio="xMinYMin meet" x="2831.15" y="-1898.63"/>
</g>
<!-- COCO_KEYFRAME_INTERPOLATION_ENUM&#45;&gt;SceneGameBoard -->
<g id="edge57" class="edge"><title>COCO_KEYFRAME_INTERPOLATION_ENUM&#45;&gt;SceneGameBoard</title>
<path fill="none" stroke="orange" stroke-dasharray="1,5" d="M3014.1,-1792.58C3014.1,-1677.05 3014.1,-1413 3014.1,-1413 3014.1,-1413 3244.92,-1413 3244.92,-1413"/>
<polygon fill="orange" stroke="orange" points="3244.92,-1416.5 3254.92,-1413 3244.92,-1409.5 3244.92,-1416.5"/>
</g>
<!-- COCO_KEYFRAME_INTERPOLATION_ENUM&#45;&gt;SceneTitle -->
<g id="edge67" class="edge"><title>COCO_KEYFRAME_INTERPOLATION_ENUM&#45;&gt;SceneTitle</title>
<path fill="none" stroke="orange" stroke-dasharray="1,5" d="M3028.13,-1792.53C3028.13,-1695.86 3028.13,-1501 3028.13,-1501 3028.13,-1501 3245.03,-1501 3245.03,-1501"/>
<polygon fill="orange" stroke="orange" points="3245.03,-1504.5 3255.03,-1501 3245.03,-1497.5 3245.03,-1504.5"/>
</g>
<!-- CocoAudio -->
<g id="node42" class="node"><title>CocoAudio</title>
<polygon fill="none" stroke="black" stroke-width="0" points="4064.26,-1440.66 3915.26,-1440.66 3915.26,-1144.66 4064.26,-1144.66 4064.26,-1440.66"/>
<image xlink:href="PNG\CocoAudio.png" width="149px" height="296px" preserveAspectRatio="xMinYMin meet" x="3915.26" y="-1440.66"/>
</g>
<!-- CocoAudio&#45;&gt;SceneGameBoard -->
<g id="edge58" class="edge"><title>CocoAudio&#45;&gt;SceneGameBoard</title>
<path fill="none" stroke="orange" stroke-dasharray="1,5" d="M3914.95,-1425C3914.95,-1425 3396.54,-1425 3396.54,-1425"/>
<polygon fill="orange" stroke="orange" points="3396.54,-1421.5 3386.54,-1425 3396.54,-1428.5 3396.54,-1421.5"/>
</g>
<!-- CocoAudio&#45;&gt;SceneTitle -->
<g id="edge68" class="edge"><title>CocoAudio&#45;&gt;SceneTitle</title>
<path fill="none" stroke="orange" stroke-dasharray="1,5" d="M3989.76,-1440.82C3989.76,-1484.57 3989.76,-1521 3989.76,-1521 3989.76,-1521 3396.37,-1521 3396.37,-1521"/>
<polygon fill="orange" stroke="orange" points="3396.37,-1517.5 3386.37,-1521 3396.37,-1524.5 3396.37,-1517.5"/>
</g>
</g>
</svg>
